<?xml version="1.0" encoding="utf-8"?>
<!-- Generator: Adobe Illustrator 21.0.0, SVG Export Plug-In . SVG Version: 6.00 Build 0)  -->
<svg version="1.1" id="Layer_2" xmlns="http://www.w3.org/2000/svg" xmlns:xlink="http://www.w3.org/1999/xlink" x="0px" y="0px"
	 viewBox="0 0 400 400" style="enable-background:new 0 0 400 400;" xml:space="preserve">
<style type="text/css">
	.st0{fill:#FFFFFF;}
</style>
<g id="Layer_2_1_">
	<path d="M332.9,104.1c0-2.8,0-4.5,0-4.5v-3.5l-3.1-1.6c-2.2-1.1-55.1-27.4-128.4-27.4H198c-73.3,0-126.2,26.3-128.4,27.4l-3.1,1.6
		v3.5c0,0,0,1.6,0,4.3c-0.6,31.2,3.2,110.5,51.7,172.1c39.4,50,76.2,61.6,80.3,62.7l1.6,0.4l1.6-0.4c1.6-0.4,39.1-11.4,79.5-62.7
		C329.7,214.4,333.6,135.1,332.9,104.1"/>
	<path class="st0" d="M277.7,273.2c47.5-60.3,51.2-138,50.6-168.6c0-2.9,0-4.5,0-4.5V99l-1-0.5c-2.2-1.1-53.9-26.8-125.9-26.8H198
		C126.1,71.8,74.4,97.4,72.2,98.6l-1,0.5v1.1c0,0,0,1.6,0,4.3c-0.6,30.7,3.1,108.5,50.6,168.8c38.3,48.8,73.9,59.9,77.8,61.1
		l0.5,0.2l0.5-0.2C202.1,333.8,238.3,323.3,277.7,273.2 M200.1,330.7c-3-0.9-38-11.6-75.7-59.6C74.7,208,74.5,125.4,74.8,105.9
		c0-2.7,0-4.3,0-4.3s0.1,0,0.2-0.1v-0.2l1-0.4c2.6-1.2,8.6-3.8,17-6.8c21.2-7.8,59.1-18.6,105-18.6h3.3c45.8,0,83.6,10.8,104.8,18.6
		c8.6,3.1,14.6,5.7,17.2,6.9l1.1,0.5v0.2c0.1,0.1,0.2,0.1,0.2,0.1s0,1.6,0,4.3c0.3,19.5,0.2,102.1-49.5,165.2
		C237.4,319.1,203,329.9,200.1,330.7"/>
	<path class="st0" d="M141.4,92.3c-3.3,0.7-4.9,1-8.1,1.7c-0.6,0.2-1,0.7-1,1.4l0.7,60.4c0,4,0.1,7.7,0.3,11
		c-8.2-20.9-16.7-42.5-25.3-64.3c-0.3-0.7-1-1-1.7-0.8c-4.8,1.6-7.2,2.4-11.9,4.2c-0.5,0.2-0.9,0.7-0.9,1.3v83.1
		c0,0.4,0.3,0.9,0.6,1.1c0.3,0.2,0.5,0.3,0.8,0.3c0.2,0,0.3,0,0.5-0.1c2.9-1.1,4.4-1.7,7.5-2.7c0.5-0.2,1-0.7,1-1.3
		c-0.1-19.6-0.3-39.3-0.3-58.9c0-5.1-0.1-8-0.3-11.7c8.6,21.6,16.8,42.9,24.7,63.2c0.3,0.6,1,1,1.7,0.9c5.1-1.2,7.5-1.8,12.6-2.8
		c0.6-0.2,1.1-0.7,1.1-1.4V93.6c0-0.4-0.2-0.8-0.5-1C142.3,92.3,141.9,92.2,141.4,92.3 M196.4,86.4c-14.3,0.3-28.8,1.5-43,3.8
		c-0.7,0.1-1.1,0.7-1.1,1.4v83c0,0.4,0.2,0.8,0.5,1s0.6,0.3,0.9,0.3c0.1,0,0.2,0,0.2,0c14-2.3,28.3-3.5,42.4-3.8
		c0.8,0,1.4-0.6,1.4-1.4v-5.1c0-0.3-0.2-0.7-0.4-1c-0.3-0.3-0.6-0.4-1-0.4c-13.3,0.3-20.3,0.7-33.1,2.4v-32.8
		c10.6-1.4,16.1-1.8,27.1-2.3c0.7,0,1.3-0.6,1.3-1.4V125c0-0.3-0.2-0.7-0.4-1c-0.3-0.3-0.6-0.4-1-0.3c-10.7,0.4-16.6,0.9-26.8,2.2
		V96.7c12.9-1.7,19.6-2.2,33.1-2.4c0.8,0,1.4-0.6,1.4-1.4v-5.1c0-0.3-0.2-0.7-0.4-1C197.1,86.4,196.7,86.4,196.4,86.4 M256.1,91.2
		c-16.8-3.1-34.1-4.8-51.2-5c-0.3,0-0.7,0.2-1,0.4c-0.3,0.3-0.4,0.6-0.4,1v5.3c0,0.8,0.6,1.4,1.4,1.4c8,0.1,12.1,0.3,19.7,0.9v76.6
		c0,0.7,0.5,1.3,1.2,1.4c3.3,0.3,5,0.4,8.4,0.8c0,0,0.1,0,0.2,0c0.3,0,0.7-0.1,1-0.3c0.3-0.3,0.4-0.6,0.4-1V96.2
		c7.6,0.9,11.8,1.5,19.8,3c0.4,0.1,0.9,0,1.1-0.3s0.5-0.6,0.5-1v-5.3C257.2,91.9,256.7,91.2,256.1,91.2 M291.6,140.6
		c-17.6-18.2-19.7-21.2-19.7-28.7c0-7.4,3.2-8.5,6.5-8.5c1.7,0,3.7,0.3,6,1c12.7,3.7,12.7,10.6,12.7,15.8v7.4c0,0.6,0.3,1.1,1,1.3
		c3.1,1,4.6,1.6,7.9,2.8c0.4,0.2,0.9,0.1,1.3-0.2c0.3-0.3,0.6-0.7,0.6-1.1v-6.2c0-7.9,0-20.9-22.9-27.5c-16-4.6-24.1,0.3-24.1,14.1
		c0,11.5,7.1,18.4,18.8,29.8l2.4,2.3c13.9,13.6,16.7,18.1,16.7,26.7c0,3.1-0.4,5.2-1.4,6.6c-1,1.4-2.5,2-5,2c-1.8,0-4.2-0.4-7-1.2
		c-6.1-1.7-10.5-4.1-13.1-7.1c-3.2-3.6-3.2-6.6-3.2-12.7v-6.5c0-0.6-0.4-1.2-1-1.3c-3.4-0.8-5.1-1.1-8.3-1.7c-0.4-0.1-0.8,0-1.1,0.3
		c-0.3,0.3-0.5,0.7-0.5,1v11.6c0,10.9,8.9,19.3,25.9,24.2c4.8,1.4,8.9,2.1,12.3,2.1c13.3,0,13.3-10.7,13.3-15.3
		C309.5,159.7,303.4,152.8,291.6,140.6"/>
	<path class="st0" d="M251.4,239.1c1-1,1.7-2,2.3-3.1c4.4-8.4,0.4-17.7-1.2-21c-12.1-20-35-31.8-58.9-29.5
		C218.4,186.8,242.3,209,251.4,239.1 M170.7,214.6c5.9,2.5,13.8,6.7,22.1,11.2c13.1,7,26.5,14.3,35.7,16.6c8.1,2,14.8,1.8,19.5-0.5
		c0-0.1,0-0.2-0.1-0.3c-0.1-0.3-0.1-0.7-0.3-1c-3.9-16.7-24.8-53.1-60.8-53.1c-1.5,0-3.1,0.1-4.6,0.2c-14,4-25.4,12.6-33.2,23.6
		c1.3-0.4,3.1-0.8,5.4-0.8C158.8,210.5,164.3,211.9,170.7,214.6 M161.8,264.9c14.7,4.8,22.8,6.4,33.5,6.4c3.9,0,8.3-0.3,14-0.7
		c15.6-1.3,32.1-6.5,40.9-10.8c0-4.3-0.4-8.6-1.1-13c-2.6,1.6-5.6,2.4-9.2,2.4c-3.7,0-8.1-0.7-15.4-2.4c-8.6-2-20.7-9.2-31.4-15.7
		c-5.9-3.5-11.4-6.8-16.1-9.1c-17.5-8.6-27.5-7.4-30.2-6.9c-6.3,10.4-9.4,22.7-8.6,35.3C139.2,252,145.2,259.4,161.8,264.9
		 M254.2,257.4c0.2-0.1,0.3-0.3,0.4-0.3c5.2-3.6,6.5-9.5,6.7-10.5c0-4.9-0.6-9.9-1.9-14.9c-0.1-0.2-0.1-0.4-0.2-0.6
		c-0.4,4.5-2.7,8.8-6.7,12.6C253.7,248.3,254.2,252.8,254.2,257.4 M255.7,260.7c-0.2,0.2-0.4,0.3-0.6,0.4c-0.3,0.3-0.7,0.5-1,0.8
		c-0.3,3.9-1,7.8-2.1,11.5c1.9-0.7,2.6,0.1,2.8,0.5c0,0.1,0,0.2,0.1,0.2c3.2-6.3,5.3-13.1,6.2-20.2
		C260,256.4,258.4,258.9,255.7,260.7 M253.4,276.1c-0.1-0.3-0.1-0.3-0.3-0.3s-0.6,0.1-1.5,0.6c-0.2,0.1-0.3,0.3-0.5,0.3
		c-0.2,0.1-0.3,0.2-0.4,0.3c-1.6,4.1-3.6,7.9-5.9,11.4c3.4-3.6,6.4-7.6,8.7-12h-0.1V276.1z M190.1,302.1c7.1-0.9,12.9-2.6,19.5-5.9
		c1-0.4,1.9-1,2.9-1.5c0.8-0.4,1.6-0.9,2.4-1.2c5.7-3,11.7-6.2,19-10.1c2.5-1.4,5.1-2.9,7.7-4.3l3-1.7c1.1-0.6,2.2-1.1,3.2-1.8
		c0.1-0.1,0.3-0.2,0.3-0.3c1-3.4,1.6-7.2,1.8-11.1c-7.2,3.6-18,6.8-33.9,9.9c-20.3,4-40.1,2.3-57.9-5.2c-12-5-17.5-12-19.9-15.8
		c0.3,2.7,0.8,5.4,1.5,8.2c3.9,15.4,13.4,28.1,25.8,36.3l-0.1-0.1l1.7,1c1.4,0.9,3.1,1.6,5.2,2.2c3.8,1.1,7.7,1.7,11.7,1.7
		C186.1,302.5,188,302.3,190.1,302.1 M246.3,280.2c-0.8,0.5-1.6,1.1-2.4,1.7c-2.4,1.7-4.6,3-7,4.5c-1.1,0.7-2.3,1.4-3.5,2.1
		c-8.3,5.1-18.1,10.7-28.8,14c-3.1,1-5.9,1.7-8.6,2.1c-2.5,0.3-5,0.5-7.3,0.5h-0.4c-3.1,0-6.2-0.3-9.1-0.9
		c11.1,3.9,23.4,4.8,35.7,1.7c7.1-1.7,13.5-4.6,19.2-8.4c5.5-4.3,9.9-10.4,12.7-17.7C246.6,280.1,246.4,280.2,246.3,280.2"/>
	<path class="st0" d="M224.1,259.1c0-4.5,0-11.2-5.3-16.4c0.6-1,1-2.1,1.4-3.3c0.9-2.7,1-5.6,1-7.5v-12.4v-0.2
		c-0.2-4.6-0.9-9.5-4.6-13.7c-3.4-3.8-8.5-5.8-14.7-5.8H185c-1.8,0-3.7,0.7-5,2s-2.1,3.1-2.1,5l0.2,81.3c0,2.4,1.2,4.6,3.3,5.9
		c1.1,0.7,2.4,1,3.8,1h17.1c6.2,0,11.3-1.7,15.4-5.2h0.1c5.7-5.1,6.3-11,6.4-16.8v-0.1L224.1,259.1z"/>
	<path d="M219.8,259.6c0-4.5,0-10.1-4.7-14c-1-0.8-2.2-1.6-3.6-2.1c2.2-1.5,3.7-3.5,4.5-6c0.8-2.3,0.7-5.1,0.7-6.2v-12.9
		c-0.2-3.6-0.5-7.7-3.4-11c-2.5-2.8-6.5-4.3-11.3-4.3h-17.5c-0.5,0-1,0.2-1.4,0.6c-0.4,0.3-0.6,0.9-0.6,1.4l0.2,84.9
		c0,0.7,0.3,1.3,1,1.7c0.3,0.2,0.7,0.3,1.1,0.3l17.8-0.1c1.9,0,7.7,0,12.6-4.2c4.3-3.9,4.7-8.5,4.9-13.6L219.8,259.6z M207.4,281.2
		c-1.2,0.9-2.8,1.4-6.7,1.6c0,0-6.7,0-7.2,0c-0.6,0-0.9-0.3-0.9-1c0-5-0.1-32.2-0.1-32.5s0.1-0.6,0.6-0.6s3.4,0,3.4,0
		c3.6,0.2,7.2,0.4,9.7,2c1.4,0.9,2.4,2,3,3.7c0.5,1.7,0.6,3.4,0.6,5.1v12C209.8,277,209.5,279.6,207.4,281.2 M201.5,239
		c-1.5,0.4-2.2,0.5-5.3,0.6H193c-0.5,0-0.7-0.3-0.7-0.6s0-26.2,0-26.2c0-0.4,0.2-0.7,0.6-0.7h4.8h0.3c2.3,0.1,4.9,0.2,6.5,1.1
		c0.8,0.4,1.2,1,1.5,1.7c0.3,0.8,0.4,2.1,0.6,4.5v10.1c0,0.2,0,0.4,0,0.8C206.7,233,206.6,237.5,201.5,239"/>
</g>
</svg>
