<?xml version="1.0" encoding="utf-8"?>
<!-- Generator: Adobe Illustrator 24.0.1, SVG Export Plug-In . SVG Version: 6.00 Build 0)  -->
<svg version="1.1" id="Layer_1" xmlns="http://www.w3.org/2000/svg" xmlns:xlink="http://www.w3.org/1999/xlink" x="0px" y="0px"
	 viewBox="0 0 400 400" style="enable-background:new 0 0 400 400;" xml:space="preserve">
<style type="text/css">
	.st0{fill:#BB9753;}
	.st1{fill:#008348;}
	.st2{fill:#F9A980;}
	.st3{fill:#A73832;}
	.st4{fill:#FFFFFF;}
</style>
<g id="Layer_3">
	<path d="M344.7,200.7c0-38.5-15-74.7-42.3-101.9C279,75.3,248.8,60.8,216,57.4c-0.8-0.8-1.7-1.5-2.5-2c-11.5-7.5-21.1-1.9-27.8,1.3
		c-0.4,0.2-1.1,0.4-1.7,0.9c-12.5,1.5-24.7,4.6-36.1,8.9c-1.3-2-2.9-3.9-4.7-5.7c-6.9-6.9-16.2-10.8-26.2-10.8
		c-20.3,0-36.9,16.5-36.9,36.9c0,8.5,2.9,16.7,8.2,23.1c-20.1,24.7-32.2,56.3-32.2,90.8c0,38.5,15,74.7,42.3,101.9
		c13.3,13.3,28.7,23.7,45.6,30.9c-1,7.6,0.3,12.7,1.7,14.9c-2.1,1.8-3,2.9-3.4,4.9c-3.4,4.6,4.8,10.4,8.2,13
		c6.8,5.3,10.4,4.4,15.9,4.1c6.6-0.3,12.9-8,16.3-13.1c7.2-1,8.5,0.1,8.7,1c2.2-0.3,5.4-0.9,9.6-2.7c9.7-4,6.8-8.9,5.9-9.8
		c-0.3-0.2-0.4-0.6-0.7-1c22.8-0.9,44.8-7,64.3-18c0.7,0.8,1.5,1.7,2.1,2.7c2.1,3.1,3.2,13.3,3.7,18.4c0.4,5.3,1.3,8.8,3.9,17
		c2.6,8.3,3.6,2.2,3.7,0c0.1-2.2,0.6-10.3,0.2-16.1c-0.3-5.8-0.4-14.1,0.7-17.7c1.1-3.6-0.9-4.5-1.5-5.1c-0.6-0.7,0-0.9-1.5-5.4
		c-0.1-0.3-0.2-0.4-0.2-0.8c7.4-5,14.2-10.7,20.7-17.2C329.7,275.4,344.7,239.2,344.7,200.7"/>
</g>
<g id="Layer_5">
	<g>
		<path class="st0" d="M187,338.1c-1.7-1.5-4.4-3.4-4.8-3.7c-0.3-0.3-1.3,0.1-2.1,0.4c0,0,0.7,0.3,1.2,1c0.8,0.8,3,2.5,3.9,3.4
			c0.9,0.8,0.6,1.8,0.3,2.5c-0.1,0.7,1-0.1,2.3-0.9C189.2,340,188.7,339.5,187,338.1z"/>
		<path class="st0" d="M181.3,343.7c-0.9,0.3-1.9,0-2.5-0.6c-0.7-0.7-4.4-3.8-5-4.5c-0.7-0.7-0.6-1.6,0-2c-1.2,0.1-2,0.1-2.9,0.1
			c-0.8,0.1-2.1,0.1-1.1,1.1c0.9,0.9,5.9,5.6,6.8,6.5c0.9,0.9,1.8,0.9,2.7,0.7C180.2,344.9,182.3,343.4,181.3,343.7z"/>
		<path class="st0" d="M199.8,156.8c0.4-1.1,1.3-3.4,2-5.1c-1.6,0-3.8,0.2-5.1,0.2c-1.2,0-0.8,1.8-1,2.9c-0.2,1.3,2.1,0.2,1.8,1.9
			C197.4,157.4,199.4,157.9,199.8,156.8z"/>
		<path class="st0" d="M167.9,314.6c-0.3,0-1.1-0.1-1.5-0.3h-0.2l0,0l-0.8-0.1c0.4,0.3,0.7,1,0.1,1.3c-0.9,0.6-3.8,1-6.8,0.8
			c-3-0.1-3.7-1.8-3.8-2.9c0-0.7,0.1-1.3,0.1-2.5s-0.3-2.1,0.3-2.6c0.7-0.4,0.6,0.7,1,0.7c1.9,0,8.5,0.7,10.1,0.9
			c1.6,0.1,1.5-0.7,1.1-1.8c-0.1-0.3-0.4-0.2-0.2,0c-0.2,0.6-1.7,0.3-1.7,0.3s-2.9-0.2-4.8-0.3c-2-0.1-3.5-0.3-4.6-0.6
			c-1.1-0.2-2.6-0.2-2.5,0.3c0.1,0.6,0.3,7.5,0.4,8.5c0,1,0.1,1.3,0.6,1.3c1.2,0,9.8,0.1,11.8,0.1c2,0,1.8-0.2,1.9-1.3
			C168.6,315.5,168.3,314.6,167.9,314.6z"/>
		<path class="st0" d="M177.7,98.3c0.6,0.7,1.2,1.2,2,1.8c1.3-1.5,2.6-2.7,3.9-3.9c0,0,0,0,0-0.1c0.8-0.8,1.7-1.7,2.7-2.7
			c2.9-2.7,5.7-4.9,8.9-7c1.8-1.1,3.2-2.2,4.9-3.2c0-0.1,0-0.1,0-0.2c1.9-1.1,3.2-1.8,3.2-1.8s1.9-0.8,4.4-1.9
			c2.8-1,6.1-1.9,10.4-2.8c0.3-1,0.3-3.4,0.1-4.2c-0.1-3.1-3.5-6.1-3.5-6.1c0.3-0.2-0.2-1.8-0.4-3.2c-3.9,1.1-8.9,3.2-13.3,5.4
			c-0.7,0.3-0.7,0.3-2.3,1.2v-0.1c-0.8,0.3-1.7,0.9-2.3,1.2c-1.3,0.7-3.4,1.9-5.5,3.5c-3.1,2.1-6.9,4.9-10.4,8
			c-2,1.7-5.5,5.9-5.5,5.9c-0.6,0.8-1.1,1.5-1.5,2.2c0.3,0.8,0.4,1.5,0.7,2.1C174.5,93.3,175.7,96.6,177.7,98.3z"/>
	</g>
	<path class="st0" d="M193.5,151.9c-2.5-1.1-4.7-3.8-6.3-6.8c0,0,0.1-0.4-0.6-0.4s-3.1-0.2-7.3-1.7s-4.7-0.6-5.3,1.2
		c-0.6,1.8-1,5-1.1,10.4c-0.1,5.4,2.2,8.7,3.7,8.2c0.7-0.3,2.5-1.1,4.5-2.1l5.5-2.3c2.3-0.8,5-2.3,5.9-2.9l1.5,0.1
		C194.2,153.5,194.1,152.3,193.5,151.9z"/>
	<path class="st0" d="M225,143.2c-3.7-0.2-8,0.4-12.1,2.1l-2,0.6c-1.1,0.6-2.5,1.1-3.5,1.8c-5.7,3.5-5.9,6.5-4.6,7.5
		c1.1,1,3.7,1.5,7.8,4.1l1.6,1.5l0.1,0.1c6.1,4.5,7.6,2,8.6-0.1c0.9-2.1,2.9-8.4,3.5-11.7C224.7,146.9,225.2,144.9,225,143.2z"/>
	<path class="st0" d="M185.1,176.4c-0.9-2-1.1-0.4-3.7,3.5c-1.2,2-7.7,9.2-8.2,9.7c-5.7,7-16.7,15.8-16.7,15.8
		c-4.9,4.5-7.6,7.8-9.3,10.5l6.4,20.1c2.8,3.9,6.8,9.5,8.3,11.8c2.2,3.7,2.2,8.2,3.1,7.5s3-2.7,3.7-3.2c0.7-0.6,1.3-1.2,1-2.5
		c-0.3-1.2-1.7-7.8-1.2-12.4c0.4-5.3,2.9-11,4.7-14.2s6.8-13.3,8.2-16c1.2-2.7,3.5-5.8,4-8.3s2.7-8.2,3.6-10.8
		C189,186.3,187.5,181.8,185.1,176.4z"/>
	<path class="st0" d="M238.2,235.3c0-2.6-1.5-4.6-4.4-9.4c-2.9-4.7-3.5-6.7-3.9-11.6c-0.3-3.1,0-7.2,0.3-11.1l-8.4-8.4l-0.2-7.4
		l-0.3-1.6c-2.3-11.1,3-24.3,4.5-27.9c1.6-3.9,7.5-14.9,9.7-18.2c-1.1-0.6-4-2-5.7-2.9c-1.7-0.9-2.5-1.2-2.9-0.6c-0.4,0.6-1,1-1.8,2
		c-1.6,2.2-0.2,1.9,0.2,1.9c0.4,0,2.3,2.5,2.7,3c0.3,0.6,0,1-0.8,2.8c-1.1,2.3-1.7,7.7-2.5,11c-2.7,9.7-6.8,8.8-8.8,7.5
		c-1.9-1.2-2.5,0.7-4.4,3.4c-0.4,0.7-1.5,2.1-3,3.7l-1.7,2.6l-10.5,10.1c0,0-3.6,3.7-4.7,4.2c-1.5,2.5-2.7,5.5-4.5,10.8
		c-2.5,7.5-8,17.5-10.4,21.4c-6,9.7-7,18.8-6.1,24.5c0.9,5.6,1.7,5.3,2.9,5.3c1.2,0,4.2,3.8,6.1,6.1c2,2.3,2.8,1.3,3.8,0.6
		c3.2-2.5,9.7-6.7,18.9-11.1c3.9-1.8,9.1-3.9,14.1-5.4l5.1-1.6c4.8-1.3,9.1-2.1,11.3-1.9C236.1,237.3,238.4,238.2,238.2,235.3z"/>
</g>
<g id="Layer_2_2_">
	<g id="Layer_2_1_">
		<path class="st1" d="M166.4,335.3c5.4-0.2,12.9-1.9,16.2-3.4c0.4,0.1,1.1,0.6,2.3,1c0.4-3.6-1.8-11.1-3.1-14.4
			c-0.9-2.2-1.7-3.8-2.7-6.1c-3-0.6-6.8-2.2-9.4-3.2c0,2.1,0.3,7.6,0.9,11.3c-1.1,0.1-2.7,0.2-4.6,0.2
			C166.3,324.6,166.6,331.9,166.4,335.3"/>
		<path class="st1" d="M267.2,323.4c-1-1,1.2-4.1,2.2-9.8c1-5.8,1.1-15.4-3.1-21c-2-2.6-3.1-4.4-3.4-5.5
			c-13.2,9.6-28.3,16-44.4,18.7c-0.2,0.3-0.3,0.7-0.6,0.9c-2.3,3-6.8,7.4-10.3,9.1c-3.4,1.8-7.3,3.1-9.4,3.8
			c-0.4,3.6-1.1,11.5-0.1,14.2c0.3,1,4.5,3.5,5.9,6.1c0.2,0.3,0.3,0.6,0.3,0.8c22.7-0.7,44.2-6.8,62.9-17
			C267.5,323.5,267.4,323.4,267.2,323.4"/>
		<path class="st1" d="M299.5,101.6c-21.9-21.9-49.9-35.8-80.1-39.8c2.5,4.8,2.8,10.4,3,13.9c4.4-1.9,7.6-2.9,9.5-5.8
			c1.8-2.9,4.2-2.3,5.8-0.2s1.6,4.7-2.5,7.4c-4.1,2.6-7.2,3.8-8,4.2c-0.9,0.4-0.1,1.2,0.9,2.9c1,1.7,3.6,5.8,3.9,14.5
			c0,0.1,0,0.2,0,0.3c16.3,5,31.4,14,43.8,26.5c20.1,20.1,31.2,46.9,31.2,75.3c0,16.3-3.7,32.1-10.5,46.4c1,0.4,2.1,3.7,2.6,7.9
			c0.2,2.2,0.1,4.7-0.6,6.1c-0.7,1.6-5.9,9.5-8.6,11.8c-1,0.9-3.4,0.8-4.4-0.7c-1-1.5-1.1-0.7-1.9,0.1c-0.8,0.8-3.5,4.7-4.1,5.7
			c-0.7,1-2.9,2-1.5,6c1.5,4,3.1,7,2.6,9.3c-0.6,2.2-0.8,2.9,2.2,5.4c3,2.5,2.9,5.7,1.6,7.6c-0.9,1.2-2.1,4.7-2.7,8
			c35.5-25.5,58.8-67.1,58.8-114C340.7,163.3,326,128.1,299.5,101.6"/>
		<path class="st1" d="M138.7,304.1c-0.3-3.8-1-10.6,1.7-15.4c-5.4-3.7-10.4-7.9-15.2-12.6C105,255.9,94,229.1,94,200.7
			c0-30.5,12.9-57.9,33.4-77.4c0.2-0.3,0.4-0.8,0.8-1.1c-3.5,1.1-7.2,1.7-11,1.7c-9.7,0-19-3.8-26-10.7
			c-19.9,24.7-30.9,55.4-30.9,87.6c0,37.4,14.6,72.7,41,99c12.6,12.6,27.4,22.6,43.4,29.6c0.6-3,1.6-6.3,2.9-9.7
			c1.2-3.2-0.7-10.7-3.8-14.6C142.3,304.5,140.1,304.2,138.7,304.1"/>
		<path class="st1" d="M175.8,62.9c-8.8,1.6-17.5,3.9-25.7,7.2c2.7,5.1,4,11,4,16.9c0,7.9-2.5,15.4-7,21.8c7.7-4.5,16.1-8,24.7-10.5
			c0.6-0.6,1.1-1.1,1.8-1.6c-3.2-5.4-7.5-14-3.8-25.5C170.8,67.8,173.2,65.1,175.8,62.9"/>
		<path class="st2" d="M127.6,154.7c-1.5-0.4-2.6,1.2-3.2,2.6c-0.7,1.3-1.5,2.8,0.7,5.8c2.1,3,3.4,4.8,7.2,4.6
			c1.8-0.1,3.4-1.5,3.9-2.2s0.7,0.6-0.2,1.9c-0.9,1.3-1.6,4.5,0.1,6.6c1.7,2.1,5.1,3.9,9.7,1.2c4.6-2.7,6.5-5.9,7.3-7.4s0.8-2.1,0-3
			s-3.4-5.1-3.9-13.4c-0.3-5,0.6-8.3-2.5-10.1c-3.1-1.8-10.3-6-11.1-14.2c-0.3-3.1-0.1-7.9-3.2-5.4c-3.1,2.6-3.1,4.4-3.5,6.1
			c-0.3,1.9,1.2,4.5,2.5,6.1c1.3,1.8,2.9,5.7,4.1,6.7c1.2,1,2,1.8,3,1.9c1,0.1,5,0.1,6,0.4c1,0.3,1.6,1.6-0.9,1.6s-6.1,0.7-7.9,0.9
			c-1.7,0.2-3.2,0.3-3.9,3.7c-0.8,3.4-1.9,7.3-2,8.5c-0.1,1.2-0.8,1.9-0.8,2.6s1.3,3.9,4.4,0.7s4.2-6.5,4.8-8
			c0.6-1.6,1.2-1.3,0.7,1.1c-0.6,2.5-0.7,8.6,0.4,10.7c1.2,2.3,3.8,4.7,7,3c0.7-0.3,1.8-0.9,2.7-0.8c0.9,0.1-0.2,1.7-1,2.3
			c-0.8,0.7-3.4,3.5-7.8-0.6c-1.1-1-2.7-3.2-3-6c-0.1-0.9-1.3-1.2-1.9-0.4c-0.6,0.8-3.6,3.6-5.7,1.6c-2.1-2-3-3.1-1.8-7.4
			C127.7,155.7,128.1,154.9,127.6,154.7"/>
		<path class="st2" d="M129.9,148.5c-0.4,1.5-0.9,3.4-1.1,3.9c-0.2,0.7-1.2,2.1-2.1,0.2c-0.9-1.9-0.9-3.4,0.6-4.8
			c0.4-0.4,1.1-1.3,1.6-0.9C129.1,147.6,129.9,148.1,129.9,148.5"/>
		<path class="st2" d="M134.9,143.3c-0.9,0.4-2.9,0.4-3.6,2c-0.4,1-2.2-0.1-1.3-1.3c0.9-1.2,1.6-1.1,2.1-1.5
			c0.6-0.3,0.8-1.3,1.9-0.8C135,142.4,135.2,143.2,134.9,143.3"/>
		<path class="st2" d="M195.1,123.1c-0.6,1.3-2.3,2.7-6.1,2.3c-1.9-0.2-3.9-0.3-4.1,1.2c-0.2,1.1-1.1,1-2.3,1
			c-1.2-0.1-2.7-0.3-2.7,0.1c-0.1,0.4,5.4,3.8,7.3,4.6c1.8,0.9,4.6,2.8,6.7,2.6c2.9-0.3,5.4-1.8,9.7-6.3c1.8-1.8,3.2-2.8,1.6-3.6
			c-1.1-0.4-2.3-0.7-3.8-0.7C199.6,124.3,196.5,124.1,195.1,123.1"/>
		<path class="st2" d="M174.3,123.2c-1.6-0.1-1.7-1.1-0.7-2.8c1-1.7,1.9-3.2,3.2-4.2c0.2,0.7,0.7,1.7,1.3,2c-0.9,1-2,2.1-1.8,4.5
			L174.3,123.2z"/>
		<path class="st2" d="M234.7,110.5c-2.3-4.2-6.3-2.1-8.2,1c-1.9,3.1-4,6.6-4.1,11.8c-1.3-0.4-2.7,0-3.4,1.1
			c-0.3,0.6-5.3-0.1-6.8,0.3c-1.7,0.4-2.2-0.6-0.4-2.9s8-10.8,7.6-17.1c-0.1-1.9,0.1-2.2,0.4-3.7c0.3-1.8,0.6-1.8-1.8-3.1
			c-1.5-0.8-1.6-3.1-1.8-4.9c-0.3-1.9-0.7-1.9-2.8-1.5c-1.3,0.2-4-1.5-5.3-3.4c-3.1,0.3-6,2.2-8.9,4.2S186,103.3,183.4,105
			c2.5,1.3,3.2,3.9,2.3,8.5c-0.2,1,0,1.3,0.7,0.7c0.7-0.7,3.8-3.9,3.7-6.7c-0.1-2.7-1.3-4.2-1.6-4.6c-0.2-0.3,0.9-1.7,2.1,1.1
			c1.2,2.8,0.9,6.7-2.8,11.1c-3.7,4.4-6.6,4.2-8.2,5c-1.6,0.8-3.1,2-1.7,4.4s4.2,1.5,5.4,0.7c1.1-0.8,2.7-1.7,6.1-1.3
			c3.6,0.3,4.7-1.9,2.3-4.4c-0.8-0.8-2.8-2.5-0.3-2.5c1.5,0,3.2,3.2,4.2,4.1c1,0.9,3.2,1.2,6.1,1.5c3,0.2,7.6,1.3,7.6,4.2
			c0,1.8-1,2.3-2.2,0.9c-0.4-0.6-1.2,0.3-1.8,0.9c-1.9,1.9-6.8,7-10.2,7.9c-3.5,0.9-4.7-0.1-9.3-2.5c-4.6-2.5-8.8-4.9-10.1-5.7
			c-1.2-0.8-3.8-2.6-2.6,1c1.2,3.6,4.2,7.3,10.3,9.3c6,2,6.8,2.7,8.3,3.4c1.3,0.7,0.6,1.3-1.2,1.1c-1.6-0.2-3.2-1.6-1.9,1.5
			c1.3,3,3.4,6.3,9.5,5.4c6.1-0.8,6.3-2,10.2-8.5c0.7-1.1,1.3-0.3,0.9,2.6c3-1.5,4.7-1.9,6.5-2.3c1.8-0.4,6.4-2,9.5-7.7
			c1.6-2.9,2.5-3.9,2.1-6.8c-0.1-1.1,1.6-3.4,3.2-4.9C232.5,120.6,236.9,114.7,234.7,110.5z M207.9,116.1c0.6,0.1,0.6,0.1,0.4,0.1
			c-1.9,0-4.7-0.6-6.8-2c-2.1-1.5-2.7-2.1-2.5-4.1c0.2-1.2,0.3-1.9,0.3-2.5c0.1-0.3,0.1-0.6,0.1-0.9c0.2-1,0.1-1.7-0.2-1.9
			c-0.2-0.2-0.3-0.3-0.7-0.3c-0.3,0-1,0.3-1.8,0.9c-1.1-0.9-2.3-1.8-3.1-2.6c-0.7-0.6-1.1-1-1.3-1.1c-0.2-0.2-0.4-0.3-0.6-0.7
			c0-0.2,0.1-0.4,0.3-0.8c0.2-0.2,0.3-0.2,0.7-0.2h0.1h0.1c0.2,0,0.6,0,0.8-0.3c0.2-0.3,0.3-0.8,0.2-1.5c0,0,0.1-0.1,0.6-0.1
			c0.1,0,0.3,0,0.3,0c0.2,0,0.3,0,0.3,0c0.3,0,0.4,0,0.6-0.1c0.3-0.1,0.3-0.3,0.3-0.6c0.1-0.3,0.1-0.3,0.4-0.3c0.2,0,0.4,0,0.9,0.1
			c0.1,0,0.1,0,0.2,0c0.3,0,0.6-0.3,0.7-0.4l0.1-0.1c0.1-0.2,0.3-0.3,0.6-0.3c0.1,0,0.2,0,0.3,0c0.3,0.1,0.6,0.1,0.8,0.2
			c0.3,0.1,0.6,0.2,0.9,0.2c0.7,0,0.9-0.4,1-0.9c0.2-0.8,0.3-1,0.7-1c0.3,0,0.7,0.2,1.1,0.4c0.4,0.3,0.9,0.3,1.1,0.3
			c0.4,0,0.9-0.3,1-0.9c0,0,0-0.1,0.2-0.1c0.3,0,0.9,0.2,1.6,0.6l0.3,0.2c1.1,0.6,3.2,1.8,5.7,4.7c0.6,0.7,0.8,1.1,0.7,1.2
			c0,0-0.1,0-0.2,0c-0.3,0.1-1,0.2-1.1,1.1c-0.1,0.4-0.2,0.9-0.3,0.9c0,0-0.1-0.1-0.2-0.3c-0.2-0.3-0.3-0.6-0.7-0.6
			c-0.1,0-0.1,0-0.2,0c0,0-0.1-0.1-0.1-0.3c-0.1-0.2-0.2-0.6-0.7-0.6c-0.2,0-0.3,0.1-0.4,0.2c0,0,0,0-0.1,0
			c-0.1-0.2-0.2-0.6-0.7-0.6c-0.1,0-0.2,0-0.3,0h-0.1c0,0,0-0.1-0.1-0.2c-0.1-0.2-0.2-0.3-0.4-0.3s-0.3,0.1-0.4,0.1
			c-0.2,0.1-0.3,0.1-0.4,0.1c-0.1,0-0.1,0-0.1-0.1c-0.2-0.3-0.3-0.3-0.4-0.3c-0.2,0-0.3,0.1-0.6,0.2c-0.1,0.1-0.3,0.2-0.3,0.2
			s-0.1,0-0.2-0.1c-0.1-0.1-0.3-0.3-0.4-0.3c-0.3,0-0.3,0.2-0.6,0.3l-0.1,0.1c-0.1,0.2-0.2,0.2-0.3,0.2c0,0-0.1,0-0.2,0
			c-0.1-0.1-0.3-0.1-0.3-0.1c-0.3,0-0.6,0.3-0.7,0.3c-0.1,0.2-0.1,0.2-0.1,0.2s-0.1,0-0.2-0.1c-0.1-0.1-0.3-0.1-0.3-0.1
			c-0.4,0-0.7,0.3-0.8,0.7c-0.1,0.3-0.2,0.3-0.3,0.3h-0.1c-0.2,0-0.3-0.1-0.4-0.1c-0.6,0-0.7,0.6-0.8,1.1c0,0.1,0,0.2-0.1,0.3
			c-0.2,0.9-0.6,4.7-0.4,5.6c0.1,0.9,1.2,0.9,1.7,0.9c0.9,0,1.9-0.2,3.4-0.3c2.7-0.3,7.8-1.9,10.4-4c0.7-0.6,1.1-0.6,1.3-0.6
			s0.2,0,0.3,0.1c0,0.1-0.3,0.9-1,1.3c-0.1,0.1-0.1,0.1-0.2,0.2c-0.8,0.7-2.7,2.5-6.6,3.1c-3.7,0.7-7,1.3-8.3,1.3
			c-0.2,0-0.2,0-0.3,0s-0.1,0-0.2,0c-0.2,0-0.3,0.1-0.3,0.3c-0.1,0.2,0,0.4,0.3,0.7c0.3,0.3,0.9,0.4,1.3,0.4c0.2,0,0.3,0,0.4,0
			c0.1,0,0.6,0.3,0.9,0.7c0.8,0.8,2,1.8,3.6,1.8c2,0,4.8-2.1,5.7-2.8c0.3-0.3,1.2-0.8,1.8-0.9c-0.1,0.1-0.2,0.3-0.3,0.4l-0.1,0.2
			C211.7,114.1,209.8,116.1,207.9,116.1z M231.8,113.7c-1.2,0.9-2,1.2-2.1,2.8c-0.1,1.6-0.3,4.2-1,4.5c-0.8,0.3-0.7-1.5-0.9-0.9
			c-0.3,0.8-1.2,0.4-1.6-0.3c-0.1-0.3-2.9-0.3-0.7-3.5c2-2.9,3.6-4.5,5-5.1C232,110.5,234.6,111.8,231.8,113.7z"/>
		<path class="st2" d="M286.4,246.2c-0.4-1.3,0.3-3.5,3.2-1.9c2.8,1.6,4.9,2.9,2.9,8.9c-2,6.1-3.5,9.7-4.2,12.3s-3.8,5.8-2.8,1.5
			c1-4.4,1.6-9.6,1.1-12.3c-0.8-4.9,0.8-4.7,0.3-6.8C286.7,247.2,286.6,246.6,286.4,246.2"/>
		<path class="st2" d="M297,251.4c0.8,2.5,1.7,7.9,0.3,10.2c-1.3,2.2-5.5,8.3-7,9.9c-1.6,1.6-2.8,0.9-1.8-0.8c1-1.7,2.3-3.9,2.3-4.7
			c0-0.8-0.1-1.7,1.2-4.2c1.3-2.5,3.7-11.1,3.9-11.8C296.2,249.3,296.8,250.8,297,251.4"/>
		<path class="st2" d="M268.2,272c-0.7-2-1-4.9-2.1-6.6c0.9-2.5,3.9-8.9,8.8-11.1c0.6-0.2,0.9-0.8,0.7-1.2c-0.2-0.4,0.7-0.8,1.1,0.8
			c0.4,1.6,1.2,6,1.2,6c0.2,1-0.2,1.8-0.4,3.1c-0.2,1.3-0.8,4.4-0.4,5.9c0.3,1.6,0.9,2.7,3.9,2c1.6-0.3,1.5-0.8,1.9-2.1
			c0.4-1.3,1.7-5.1,2.1-7.3c0.4-2.1,0.1-7.3-0.3-8.6c-0.4-1.3,0.2-5.9-0.2-6.8c-0.3-0.9-0.6-2.2-3.4-3.1c-2.8-0.9-3.6-1.1-5.4,0.8
			c-1.9,1.9-2.5,2.7-3.5,3.6c-0.9,0.9-3.1,0.1-1.2-1.7c1.9-1.8,3.7-3.6,4.2-4.1l-0.6-1.5h-1c-3,3-7,4.8-9.7,5.4
			c-1,0.2-2.9,0.3-1.6,2.1c0.3,0.4,0.4,1.7,1.2,1.2c0.8-0.4,2-2.5,3.1-1.6c1.1,0.9-0.2,3-1.6,4c-1.3,1-2.8,2-3.8,2.5
			c-1,0.6-1.6,1.1-1.5,2.9s0.2,5-0.8,7.5c-1,2.5-0.4,3.1,0.4,4.7c0.9,1.7,2.3,3.1,2.8,5.8c0.4,2.7,0.7,3.4,2.5,3.1
			c1.8-0.2,2.5-1,3.1-2.1L268.2,272z"/>
		<path class="st1" d="M203.5,78.5c1.6,0.2,3.2,0.1,3.6-1c0.3-1.1,0.1-1.8-0.4-1.9c-0.4-0.2-0.8-0.2-0.4-1.1c0.2-1,1-0.9,0.9-2.5
			c-0.1-1.6-1.2-1.7-2.3-1.2c-1.1,0.3-1.5,0.9-2.5,2.1c-1,1.3-0.6-0.9-0.3-1.2s0.6-2.9-0.8-3.4c-0.8,0.3-1.6,0.8-2.3,1.1
			c-0.2,0.4-0.3,1.1-0.7,1.7c-0.6,1.5-1.2,0.3-1.8-0.3l0,0c-1.5,0.8-2.8,1.6-3.8,2.2c-0.1,0.1-0.2,0.2-0.3,0.2
			c0.1,0.9,1.1,2,1.8,2.5c0.8,0.4,0.3,1.5-0.6,1.5c-0.9,0-2-0.6-3.1,0.8c-1.1,1.3-0.3,2.6,0.7,2.6c1.1,0,1.9,0.3,2.3,1.7
			c0.3,1.2,0.7,1.8,2.1,1.9c1.5,0.1,2.3-1,2.7-1.7c0.3-0.7,0.9-1.7,1.6-1.3c0.9,0.3,0.8,1.2,0.4,2.3c1.1-0.6,2.1-1.1,3.2-1.8
			c-0.2-1-0.8-1.8-1.1-2.2C201.8,78.6,202,78.4,203.5,78.5"/>
		<path class="st1" d="M215.9,62.3c-0.4,0.1-1.1,0.3-1.7,0.3c0.3,1.2,0.8,2.9,0.4,3.2c-0.3,0.3-1.7,0.4-2.6,0.8
			c-1,0.3-3.4,2.5-2.1,4.1c1.2,1.7,1.7,2.6,1.8,3.4c0.2,0.9,2.2,1.8,3.6,0.2c1.3-1.7,2.5-3.5,2.8-2.3c0.3,1,0.2,3.4,0,4.7
			c0.3-0.1,0.6-0.1,0.9-0.2C219.7,70.2,218.1,65.8,215.9,62.3"/>
		<path class="st1" d="M185.3,92.4c-0.8-0.6-1-1.6-0.1-1.8c1-0.3,2.2-0.4,4.6-1.6c2.3-1,1.1-2.7,0.1-3.2c-1.1-0.4-1.1-1.5-1.1-2.5
			c0.1-1.1-0.2-2.6-2.2-1.8c-2,0.8-1.3,2.8-1.9,3.5c-0.6,0.7-1,0.4-0.9-0.6c0.1-1-0.8-1.7-1.2-1.9c-0.3-0.2-1.2-0.3-1.9-0.3
			c-2.1,1.9-4,3.9-5.5,5.9c0.3,0.7,1.1,1.5,1.6,1.6c0.6,0.2,1.3,0.6,1.3,1.7c0,1-2.1,1-3.6,1.1c1,2.7,2,4.6,3.4,6.1
			c0.3-0.1,0.8-0.2,1.2-0.4c1.8-0.8,2.3-3.4,2.5-4.1c0.3-0.8,1-0.6,1.6,0.3c0.3,0.7,0.4,1.3,0.4,2c1-1,1.9-1.9,2.9-2.8
			C186.2,93,185.8,92.7,185.3,92.4"/>
		<path class="st1" d="M214.9,158.9c0.3-0.1-0.6-3.9,0.2-4.1c0.7-0.2,1.1,2.1,2.6,1.9c1.6-0.3,1.9-1.8,1.8-3.6
			c-0.2-1.8,0.8-0.8,1.6-2s-0.9-2.9-2.8-1.8c-1.9,1.1-1.6-0.3-0.6-1c1-0.7,0.3-2.8-1.8-2.1c-1.6,0.4-2.3-0.4-3-0.9
			c-0.6,0.2-1.1,0.4-1.7,0.7c-0.1,0.3,0,1,0.1,1.6c0.2,0.7,0.4,2.5-0.7,1.8c-1.1-0.7-2.5-1.1-2.8,0.2c-0.3,1.2,0.3,1.3,0.3,2.1
			s-2.1,1-1.1,2.5c1,1.7,2.3,0.8,3.2,0.1c1-0.6,1.8,0.1,1.6,1c-0.3,0.7-0.8,2.8-0.9,4.2c0.4,0.3,0.9,0.6,1.3,1
			C212.8,160,213.8,159.1,214.9,158.9"/>
		<path class="st1" d="M184.5,155c0.9-0.2,2.5,1.6,3.9,0.4c1.5-1-0.6-2-0.3-2.8c0.2-0.8,1-2.5-0.1-3.2c-1-0.8-2-0.1-3.1,1.1
			c-1.1,1.1-0.7-1.1-0.1-2c0.8-1.2,0-2-1.2-2.3c-1.2-0.2-1.7,1.6-2.5,0.8c-1.3-1.2-3.4-0.8-2.9,1c0.4,1.8,1.1,2.3,0,2.5
			c-1.1,0.2-2-2.5-3.2-0.3c-1.2,2.2,0.8,2.9,0.6,4.6c-0.2,1.7,0.4,3.5,1.6,3.6c1,0.2,2-1,2.6-1.7s1.9-1.1,1.8,0.1
			c-0.1,0.9-0.2,2.7-0.2,3.8c2-1,4.2-2,5.4-2.5c0.1,0,0.1,0,0.2-0.1c-0.6-0.2-1.3-0.6-2.1-1.1C183.6,156.2,183.6,155.3,184.5,155"/>
		<path class="st1" d="M159.9,205.7c2.5-0.8,2.7,1.2,2.3,2.9s-0.3,5.3-0.2,7l4.2,0.2c-0.2-1.1,0-4.4,0.1-6.3c0.1-1.9,2-4.8,2.7-1.9
			s3.6,3,5.6,1.8c2-1.2,3.5-3.9,5.6-7.7c2.1-3.8-0.7-4.8-2.3-4.6s-3.4,0.4,0.4-2.7c3.5-2.9-2.5-4.4-5.1-4.9
			c-4.5,4.7-9.9,10.1-14.9,14.2c-0.6,0.6-1.2,1.1-1.8,1.6C157,205.8,158.1,206.3,159.9,205.7"/>
		<path class="st1" d="M155.5,233.8c2.1-0.7,3.5,3.9,6.6,1.2c3.1-2.7,0.9-4.9,0.8-7.2s2.5-3.1,1.7-5.9c-1.1-4.2-5.1-0.2-7.5,2.1
			c-2.5,2.3-2.5,0.4-0.1-3.4c2.5-3.8-1.6-5-4-4c-2.2,0.9-4.1,0-5.4-1.1c-1,1.6-1.7,2.9-2.3,4.4c-2.1,4.4-0.7,4.5,0.9,4.5
			c1.6,0,4.9,6.6,5.4,7.8c0.2,0.3,1.2,2.1,2.8,4.2C153.9,235.4,154.1,234.3,155.5,233.8"/>
		<path class="st1" d="M216.4,190c-2-0.4-4.7-0.8-4.9,3.4c-0.1,1.6,1.5,2.8,2.9,3.4c1.5,0.6,1.2,1.6-0.3,1c-1.6-0.6-2.8-0.9-3.9,2.3
			c-1.1,3.2,0.9,3.7,1.9,3.9s1.8,0.4,1.6,1.8c-0.2,1.3-0.9,5.3,1.7,5.6c2.5,0.3,4.8-2.8,5.6-4.4s1.7-3.1,1.9-1.3
			c0.2,1.8-0.1,2.7-1,4.7c-0.9,2-0.9,2.9,0.4,2.8c1.3-0.1,3.6,0,4.2-1.6s1.7-4.6,1.8-6.7c0.1-1.3,1.2-1.5,2.1-1.3
			c0.3-2.2,0.6-4.5,0.9-6.4c-4.4,0.7-8.2-4.7-9.4-9.3C220.3,189.2,218.1,190.4,216.4,190"/>
		<path class="st1" d="M195.6,189.2c-0.8,1.3-3,5.1-2,6.4s2.1-1.2,3-0.3s2.9,1.9,2.9,1.2c0-0.7,0.2-2,0.6-3.8
			c0.3-1.8,1.1-2.8,1.9-1.3s1.9,2.7,4.7,2c2.8-0.7,2.5-3.6,1.9-5.7c-0.6-2.1,1.5-3.1,2.5-3.7c1-0.6,3.6-2.6,1.7-4.4
			c-1.9-1.8-3.6,0.8-5.3,1.1c-1.7,0.3-1-1.1,2.5-3.8c3-2.3,0.4-4.7-1.3-5.4c-4.8,4.8-13.3,12.6-15.2,14.4c-0.7,0.7-1.2,1.3-1.8,2.3
			C195.9,186.2,196.3,187.8,195.6,189.2"/>
		<path class="st1" d="M223.1,234c1.5,1.3,4.9,3.2,7.4,1c2.5-2.2-0.6-4.7-0.9-6.5c-0.3-1.8,1.8-2.9,0.7-5.8c-1.9-5-4.8,1-6.5,2.7
			s-1.3-1.1,0.1-2.7c0.8-0.8,4.2-2.9,2.2-5.3c-2-2.3-4.9-1-6.4,0c-1.5,1-2.5,2.2-4.8,1.6c-2.2-0.7-4.1-0.9-5.4,2.3
			c-1.3,3.2,1.2,2.3,3.2,4.7c2.1,2.3,0.8,2.5-0.9,1.9c-1.7-0.6-2.5-2.7-4.9-2.3c-2.5,0.3-2.5,4.2-1.7,5.3c0.8,1,2.3,1.6,1.2,3.5
			c-1.1,1.9,0.6,4.1,2.5,5c2,0.9,5-2.7,6.1-4.1c1.1-1.5,2.2-1.1,2,0c-0.2,1-0.7,3.5-0.8,5.6c1.8-0.6,3.4-1.1,5-1.5
			c0-1.1-0.3-3.1-0.8-4.8C220.2,232,221.6,232.7,223.1,234"/>
		<path class="st1" d="M194.2,245.8c-2.7,0.8-3.1-0.4-4.9-1.1s-1.9,0.9-0.7,2.8c1.2,1.9,2.6,3.7,1.1,3.7s-2.6,0.2-2.8,1.3
			c-0.2,1.1-2.6-0.2-3.1-2.5c-0.6-2.3-1.1-6.8-2.3-4.6c-1.2,2.2-2.3,5.9-5.4,4.2c-3.1-1.7-1-3.9-2.6-5.4c-1.6-1.6-3-3.6-1.5-6.4
			s2.9-0.4,4.4-0.4s1.7-1.3,0.3-2.3c-1.3-1-3-5.8,3.1-5.4c2.3,0.1,4.9-0.7,6.8-2.1c2-1.5,7.3-0.7,5.1,3c-2.1,3.7-1.5,4.5-0.2,3.1
			c1.2-1.3,2.8-3.8,5.1-3.1c2.3,0.7,1.3,2.5-0.1,4.5c-1.5,2-0.6,3.4,0.6,4.1C198.3,239.9,200.4,244.1,194.2,245.8"/>
		<path class="st1" d="M205.5,219.6c-2,0.1-4.5-0.4-4.5-0.4c-0.2,2.1-2.3,5.1-4.4,8.3c-0.2,0.3-1.5,0.3-2-0.1
			c-0.6-0.4-2.1-1.2-0.9-2.5c1.2-1.3,3.2-4.1,2.9-5.4c-0.3-1.2-1.2-2.3-2.6-0.7c-1.3,1.7-3.5,5.1-5.8,5.3s-4.7-2-3.6-4.1
			c1.1-2.1,1.5-3.2-0.1-5.1c-1.6-1.9-1-4.4,2.3-5.8c1-0.4,2.8,0,3.9,1c1.2,1,1.9,0,0.2-1c-1.7-1-3-2.2-3.2-4.5
			c-0.2-2.1,1.1-4.4,3.9-3.1c2.9,1.2,4.7,0.2,5.9-0.8c1.2-1,6.5-2.2,5.7,2.3c-0.6,3.4-2.1,3.5-2.5,5.3c-0.4,1.8,0.9,0.7,1.7-0.7
			c0.8-1.3,2.5-6.8,6.1-2.7c0.9,1,0.6,2.7-0.6,4.6c-1.1,1.9-0.2,3,0.4,3.9C209.6,214.3,211.1,219.3,205.5,219.6"/>
		<path class="st0" d="M198.2,70.9c0.2-0.6,0.3-1.1,0.6-1.7c-0.8,0.3-1.7,0.9-2.3,1.2C196.9,71.4,197.6,72.4,198.2,70.9"/>
	</g>
</g>
<g id="Layer_6">
	<g>
		<path class="st3" d="M107.7,80.4c0.8,1.1,1.6,0.9,1.9,0.1c0.7-1.7,2-7,2-11.1c0-9.4,1.2-13.1,3.6-17.4
			c-10.8,0.6-20.6,6.1-26.5,14.5C97.8,68.9,104.7,76.3,107.7,80.4z"/>
		<path class="st3" d="M106.8,85.7c1.1-1.5-0.2-2.3-0.8-3.1c-2.9-4.1-9.6-11.5-18.7-13.9c-3.2,5.4-5.1,11.4-5.1,18.1
			c0,3,0.3,5.8,1,8.4C100.3,96.7,105.8,87.1,106.8,85.7z"/>
		<path class="st3" d="M118.9,51.7c-2.5,3.9-3.9,6.9-4.9,17.2c-1,10.2-1.9,17.3-9.3,23.5c-5.7,4.6-16.9,5.9-20.5,5.7
			c1.7,4.9,4.4,9.3,7.9,13c10.6-3.6,18.3-8.2,28.5-17.7s15.3-19.2,16.9-22.8c1-2.3,2.9-5.4,1.6-0.2c-1.3,5.1-6.1,16.1-16.1,25.5
			c-9.8,9.4-18.8,14.2-29.2,16.9c6.1,5.6,14.4,9.1,23.5,9.1c0.3,0,0.4,0,0.8,0c2-12.6,5.1-16.8,11.3-22.1c6-5.4,14.6-8.2,21.9-5.1
			c0.6-2.3,0.8-5,0.9-7.9C152.2,67.8,137.5,52.6,118.9,51.7z"/>
		<path class="st3" d="M133.2,100.5c-0.9,0.6-1.6,1-0.4,2c2,2,5,5.8,7.2,11c4.8-4,8.4-9.4,10.4-15.4
			C148.6,95.7,142.7,94.6,133.2,100.5z"/>
		<path class="st3" d="M128.4,104.4c-5.3,4.7-7.3,11.7-8.4,17.2c6.3-0.4,12.2-2.7,17.1-6c-2-4.9-3.7-8.5-5.6-11
			C130.4,103.3,130.3,102.8,128.4,104.4z"/>
		<path class="st3" d="M279.1,312.2c2-6.5,5.3-6.4,4.2-8.9s-2.8-4.4-4.1-5.8c-1.3-1.5-0.3-4.9-0.3-6.4c-0.1-2.7-2.2-3.1-2.5-6.1
			s-0.4-5.4,1.8-8.5c2.2-3-0.8-2.9-1.8-4.8c-1-1.9-1.6-4.5-0.7-8.3c0.4-2,0.2-2.5-0.3-2.8c-0.6-0.2-2.9-0.7-2.9-0.7l-3.5,6.8
			c0.6,1.3,0.8,3.4,0.8,4.7l-0.9,5.7c-0.8,1.3-2.1,3.5-2.1,5.4c0,1.9-1.9,3.9-1.7,4.8c0.2,0.9,2.7,3.2,4.1,5.7
			c1.5,2.5,3.2,6.1,3.2,12.3s-2,14.5-2.2,15.5c-0.2,1.1-0.8,2,0.9,3.6c1.7,1.6,4.4,4.5,5.4,11.1c1,6.6,1.7,10.1,2.1,10.4
			c0.4,0.3,0.3,0.9,0.3,2.1c0,1.2,1.1,8.3,1.9,9.6s0.7-7.5,0.6-10.2c-0.1-2.5,0.1-14.8,0.6-16.7c0.4-1.8,0.9-3.8-0.7-6
			C279.8,322.5,277.1,318.6,279.1,312.2z"/>
	</g>
</g>
<g id="Layer_4">
	<g>
		<path class="st4" d="M157.5,127.4c-2.9,0.6-2.8,1.1,0.3,0.8c1,0,15-2.1,16.8-2.5c1.8-0.3,2.2,0.9,2.7,0.6c0.6-0.2-0.2-0.2-0.6-2.5
			l-2.6,0.3C171,124.9,160.4,126.8,157.5,127.4z"/>
		<path class="st4" d="M274.1,127.1c-12-12-26.4-20.7-42-25.6c-0.1,1.6-0.2,3-0.2,3.6c3.1,1.6,6.6,4.9,5.3,11.2
			c-0.6,2.6-2.7,5-2.9,6c-0.3,1.7-3.9,4.6-4.9,6.8s-1.2,4-1,5c1.8,1.7,5.8,3.9,8,4.7c1.7,0.6,1.7,1,1,2c-0.2,0.2-0.6,0.4-0.6,0.7
			c-2.7,3.7-7,13-8.9,18.8c-2,5.8-6.6,19.7-3.2,28.7c3.2,9.1,9.6,3.4,11.1-0.1c1.5-3.5,3.7-9.4,4.4-11c0.7-1.6,1-2.5,2.2,1.2
			s3,12.5,3,13.3s-1.2,3-2.5,6.5c-1.3,3.5-2.1,5.9-0.8,8c1.3,2.1,6.6,11.1,8.3,15c1,2.3,1.9,2.8,4.6,2.1c2.7-0.7,9.2-2.9,11.1-3.8
			c1.9-0.9,1-2.5,0.4-4.4c-0.9-2.9-4.2-19-4.2-21.1s0.6-4.9-2.2-1.8c-1,1.1-2.3,0-2-1.6c0.3-1.6,3.7-23.4,3.9-25.9
			c-1.9-4.1-7.5-17.1-8.9-19.6c-1.6-2.3-2.1-2.5-4.5-1.2s-7.5,3.1-9.5-1.3c-0.2-0.4-0.4-1.2-0.3-1.8c0.6,0.3,1,0.9,1.7,1.7
			c1.2,1.5,4.5,0.6,6.5-0.4c2-1,4.6-1.3,6.6,1.1c2,2.5,5,7,6.5,11.2c1.5,4.2,3,7.6,3.5,8.3c0.4,0.7-1.6,13-2.1,17.8
			c-0.6,4.9-1,7-1.1,7.8s3.1-2.8,3.2,1.5c0.1,3.4,1.7,14.2,3.5,22.2c0.4,2,1,3.9,1.5,5.4c1.3,0.2,2.5,2.9,3.2,7
			c0.8,4.1,2.5,6.7,2.5,8.7c0.1,2,0.7,2.3,1.3,2.7c0.7,0.3,0.4,1.3-1.6,3.7c0.4,0.3,1.1,1,1.6,1.5c0.6-0.6,2.1-2.3,2.1-2.3
			s6.1,2.5,7.5,2.9c1.3,0.4,2.9-2.8,6.8-1.1c1.1,0.4,2.3,2,3.2,3.5c6.1-13.3,9.7-28.3,9.7-43.9C304.6,173,293.7,146.7,274.1,127.1z"
			/>
		<path class="st4" d="M264,280.3c-1.6-0.8-2.6,0.3-3.4-5.8c-0.2-1.8-1.7-4.1-2.8-5.3c-1.1-1.1-1.2-3.2-0.7-5c0.9-2.8,1.1-5.4,1-7.5
			c-0.1-2.2,0.3-5,3.5-6.4c-1.1-1.2-1.7-2.8-2-3.9c-4.6-1.6-5.5-1.7-6.4-3.9c-1.6-3.7-2.5-9.1-3-12.1c-0.2-1.5-0.3-2.8-0.3-4
			c-1.5-2.8-4.7-8.9-7.3-13.5c-1-1.8-1.8-3.2-2.3-4.2c-2.2-3.9,0-8.9,1.1-12c1.1-3,2-5.7,1-8.7c-1-3-1-3.7-1.2-4.9
			c-0.2-1.2-1.2-2.8-2.5,1.5c-1.3,4.2-3.9,10.4-5.4,16.9c-0.9,3.7-1.3,7.6-1.1,11.5c0.2,2.9,0.8,5.8,2,8.4c2.9,6,6.4,11.6,5.9,14.9
			c-0.4,3.4-1.1,3.5-1.2,4c-0.6,6.5-3.4,18.9-4.8,22.5c-1.5,3.6-7.2,16.4-8.3,21.9c-1,4.1-3.5,13.2-5.7,18.4
			c16.7-3.2,32-10.3,44.8-20.5C265.1,281.7,265,280.8,264,280.3z"/>
		<path class="st4" d="M140.3,134.1c1.2,1.7,2.8,3.1,4.9,4.1c5.4,2.8,6.6,4.7,6.6,9.6c0,4.8,0.9,14.6,2.5,16.2c1-1,2.1-2.5,2.3-2.9
			c1.6,2.9,4.7,8.3,9.7,11.6c0.1,0,0.1,0.1,0.1,0.2c0,0.1-0.1,0.1-0.1,0.2c-0.4,0.9-1.3,0.6-1.9,0.4c-1.2-0.3-5.4-4.8-6.8-7.3
			s-1.7-2.2-2.2-0.4c-0.6,1.8-2.7,5.7-4.1,7.5c-1.5,1.9-5.3,6.8-6.3,7.9c-1,1.1,0,1.6,0.9,2.5c0.9,0.9,5.4,6.5,6.5,7.6
			c1,1.2,2.1,3.5,4.8,1c2.7-2.5,5.9-6.8,7.4-11.5c1.3-4.1,1.6-6.5,2.5-6.7c0.1,0.1,0.2,0.1,0.3,0.2c1.7,0.4,12.5,2.1,12.7,4.4
			c2.2-2.2,5.8-7.8,6.5-9.7c0.7-1.9,4.6-7.9,7.5-11.2c0-1.3,0-2.1,0.1-2.5c-0.8,0.7-2,2.3-3.8,3.1c-1.8,0.8-8,3.5-12.5,5.7
			c-1.6,0.8-4.4,1.7-5.4-6.5c-1.1-8.2,0-12.4,0.8-14.2c0.8-1.9,2.2-3.6,5-2.8c2.8,0.8,7.3,2.5,8.5,2.5c0.2-0.9,1-2.5-2-2.9
			c-2.1-0.2-7.7-1.8-11-6.1c-1.2-1.8-2.1-3.9-2.2-6.7c-6.4,1-21,2.9-24.1,3.7c-3.2,0.8-6,1.5-7-5.9c-0.4-3.1-1.2-7.5,1-5.9
			c1.8-1.3,4.2-2.9,8.6-2.2c0.8,0.1,1.8,0.8,2.1,1.5c0.2,1.1-0.2,2.8-0.8,4.6c-1,3-2.8,5.1,3.2,3.8c6.4-1.5,14.4-2.7,16.5-3.1
			c0.3-2.1,2-5.5,4.1-7.9c2.1-2.5,2.5-4.5,2.6-5.3s-0.6-1-1.7,0c-1.2,1.1-4.9,3.4-8.3,2.5c-1.3-0.3-3-2.9-3.9-4.4
			c0.8-1.6,2.6-4.1,4.8-6.8c-11.8,3.8-22.9,9.7-32.9,17.5c-0.1,1.2,0.1,4,0.9,7.3C137.2,128.7,138.2,131.6,140.3,134.1z"/>
		<path class="st4" d="M148,286.3c4.6-1.8,8.2-1.8,11.7,3c1,1.3,1.8,5.3,10.4,1.8c-4.6-5.4-7.4-11.8-9.7-20.6
			c-3.9-13.7-12.9-29.3-9.6-36.4c-1.9-1.8-4.1-8.7-6.5-7.9c-1.6,0.4-3.8,0.6-2-4.7c0.8-2.3,2.1-5.3,4.7-8.6
			c3.1-4.1,7.8-9.2,15.6-15.2c0.7-0.6,0.8-1,0.3-1.5c-0.8-0.8-1.6-1.7-2.3-2.1c-0.8-0.4-1.6-0.2-2.2,0.4c-0.7,0.7-1.8,1.5-2.5,1.9
			c-0.7,0.4-6-4.8-8.8-8.6c-2.8-3.8-5.7-5-6.6-5.4c1.1-1.2,3.7-3.9,2.7-3.6c-1.7,0.6-4.7,1-7.5-2.2c-3.7-3.9-2.2-5.9-3-6.5
			s-4.8,0.3-7.8-4.4c-3-4.7-4.2-6.7-1.8-10.1c1.2-1.7,1.7-2.5,1.3-4.6c-0.3-2.1,0-3.5,2.8-6.1c2.8-2.7,4.5-5.1,5.7-4.9
			c1,0.2-1.8-3.4-3.6-6c-0.4-0.7-0.8-1.3-1.1-1.8c-0.4-1.1-1.1-2.9-1.2-4.9c-19.6,19.7-30.4,45.7-30.4,73.4s10.8,54,30.5,73.6
			c4.7,4.7,9.6,8.7,14.8,12.4C144.1,284.2,146.7,285.2,148,286.3z"/>
		<path class="st4" d="M259.8,243.3c3.6-0.1,9.6-1.7,14-5.7c-1.2-1.5-3.4-8.4-3.9-11.3c-0.8-3.1-0.8-6.4-4-4.6
			c-2,1.1-9.1,4.2-12,4.7c-3,0.4-2.2,1.2-1.7,3.5s2.2,8.9,3.1,11.2C256.2,243.4,257.4,243.4,259.8,243.3z"/>
		<path class="st4" d="M211.1,162.5c-1.5-1-6.8-4.4-7.6-4.9c-0.9-0.7-1.2-0.7-1.6-0.1c-0.2,0.4-1,1.8-2.8,1.8c-1.8,0-3.2-0.6-4.4,1
			c-1.1,1.6-7.3,8.9-8.6,13.6c1.3,2.8,3.1,7.8,4.5,11.3c4.4-3.7,18.2-17.2,20.8-19.8C212.5,164.4,212.6,163.5,211.1,162.5z"/>
		<path class="st4" d="M177.6,178.9c-1,0.2-5.1-1.5-9.1-2.2c-1.2-0.1-1.5-0.1-1.7,0.3c-0.9,3.5-2.5,9.5-5.4,14.1
			c1.1,1.8,2,3.4,3.4,3.9c3.1-2.2,8.9-7.7,10.7-9.7c1.7-2,3.8-5,3.8-5.7C179.4,178.9,178.6,178.7,177.6,178.9z"/>
		<path class="st4" d="M235.9,70.8c-1.3-1.5-2.1-1.1-3.4,0.3c-3,3.6-8.9,6.7-19.1,9.3c-10.2,2.6-19.8,9.7-24,13.2
			c-4.1,3.5-14.5,12-19.6,14c-1.3,0.6-4.1,2.5-0.6,2.9c2.7,0.3,4.6-1.2,10.4-5.4c5.8-4.2,10.3-7.3,14.8-11.6
			c4.1-4,11.6-7.8,19.7-10.1s18.6-5.7,21.6-8.9C237.2,72.9,237.3,72.1,235.9,70.8z"/>
		<path class="st4" d="M184.5,109.2c0.6-0.3-0.1-2.7-2-2.3c-0.6,0.2,0.1-1.3-1-0.7c-0.9,0.4-1.2,1-2.2,4.2c-1,3.2-0.9,5.1-0.1,5.9
			c0.6,0.6,1.5,0.6,1.9,0.6c0.3,0,0.7,0.1,0.6-0.9C181.5,115.1,181.5,111,184.5,109.2z"/>
		<path class="st4" d="M149.5,120.8c0-1.8-0.9-1.8-2.5-1.8c-1.9,0-3.9,0.7-5.4,1.3c0.2,0.7,0.1,3.5,0.4,5.3c1.1,5.7,3.1,4.9,4.5,4.7
			c1.3-0.2,3.8-1.2,2.8-1.2c-1,0-1-0.7-0.9-2.3C148.6,125,149.4,122.5,149.5,120.8z"/>
		<path class="st4" d="M183.3,309c1.9-2.2,1.8-7.7,0.8-12c-0.9-4.2-7.5-5.9-13.4-3.5c-5.9,2.5-9.4,1.5-10.8,0.6c0,0-0.8-0.6-1.3-0.9
			c-0.6-0.3-0.6,1-1.2,2.3s-0.8,5,0.2,7.2c2.6,0,6.1,1.1,8.3,2.1c2.1,0.9,9.6,4.4,12.9,5.4C180.3,310.8,181.7,311,183.3,309z"/>
		<path class="st4" d="M196.5,334.1c-0.2-0.8-0.6-5.5-0.6-6.8s0.3-4.7,0.4-5.8c0.1-1.1,0.4-2.1-1.5-2c-1.8,0.2-6.1-0.3-6.8-2.5
			c-0.9-2.7-3.5-3.2-4.9-3.2c-2.6,0,0,2.8,0.8,4.9c0.9,2.2,4.1,14.8,2.7,14.9c-1.5,0.1,0,1.3,1.2,2.2c2.3,1.7,6,0.6,7,0.1
			C195.9,335.5,196.7,335,196.5,334.1z"/>
		<path class="st4" d="M146.1,291.3c0.7-0.8,0.6-1.5,0.1-2.2c-0.4-0.8-0.8-1.3-1.3-1.6c-1.3-0.4-2.5,0.2-3.6,2.8
			c-1.1,2.3-1.3,10.1-1,12.5c0.9-0.2,2.6,0.1,3.4,0.3C143.4,298.8,144.8,292.7,146.1,291.3z"/>
		<path class="st4" d="M166.9,367c-3.5,0.3-6-0.2-9.9-1.9c-3.8-1.7-9.1-6.5-11.8-9.6c-0.9-1-1.7,0.2-0.9,1.3c3.4,4.8,8.6,8.2,12,9.9
			c3.4,1.8,8.5,1.8,10.7,1.5C169.1,367.9,169.7,366.7,166.9,367z"/>
		<path class="st4" d="M203.1,347.7c-2.2,1.1-6.5,3.1-10.4,4.1c0.4,2,0.6,2.9,0.6,3.5c2.5,0,7.2-1.8,11.1-4.1c0.9-0.6,1.2-1.2,0.9-2
			C204.8,348.5,204.4,347.1,203.1,347.7z"/>
		<path class="st4" d="M179.9,337.3c-0.7,0-3.8,0.7-3.2,1.2c0.3,0.3,1.7,1.8,2.5,2.7c0.9,0,2.9-0.6,3.2-0.8c0.4-0.2,0.6-0.4,0.2-0.8
			C182.2,339.1,180.7,337.7,179.9,337.3z"/>
		<path class="st4" d="M203.9,272.1c-1,0.1-8.3,0.1-13.4-0.6c-9.1-1.1-18.1-6.3-21-9.7c-0.4-0.6-3.1-0.3-0.9,1.5
			c2.2,1.8,7.9,7,16.2,8.6c1.9,0.3,4.9,0.9,5.4,7.8c0.4,6.8-0.2,11.3-0.2,12c0,0.7-0.4,0.9-1,0.1c-0.6-0.8-2.5-3.4-3.5-3.9
			s-1.7-0.4-2.5,0.2c-0.9,0.7-2.2,2-2.8,2.7l2.5,1.5c-0.9-0.7-0.8-1-0.3-1.7c0.4-0.7,0.9-1.1,1.3-1.3c0.4-0.2,1.1-0.3,1.9,0.8
			c0.8,1.1,5,8.2,5.9,10.1s2,0.7,1.6-0.4c-0.4-1.1-1.3-3-1.7-3.6c1.2-3.8,2.5-9.6,2.5-13.3c0-3.7-0.9-7.5-1.6-8.9
			c3,0.1,9.6,0,12.2-0.8C207,272.2,204.9,272,203.9,272.1z"/>
		<path class="st4" d="M150.1,321c-0.3,0.8-1.5,3.9-1.8,6.1c-0.3,2.3-0.9,5.8,0,10.8s1.3,6.6,1.6,7.5l2.7-0.9
			c-1.5-0.9-3.1-5-3.5-13.3c-0.1-2.8,1-7.5,1.9-9.7C151.9,319.3,150.4,320.2,150.1,321z"/>
		<polygon class="st4" points="299.9,144.2 304.1,141.1 297.5,131 300.9,128.6 308.3,139.5 312.6,136.4 304.9,125.7 308.3,123.3 
			316.3,134.6 320.7,131.6 308.7,114.7 289,128.8 		"/>
		<polygon class="st4" points="311.7,169 318.2,166 313.7,156.3 328.8,150 326.1,144 304.8,153.3 		"/>
		<polygon class="st4" points="315.6,179.2 316.3,185.1 330.6,183.5 331.2,189.7 337.6,189.2 335.8,168.4 329.3,168.9 329.9,177.5 
					"/>
		<polygon class="st4" points="316.3,199.6 316.3,206.6 337.4,206.5 337.3,199.5 		"/>
		<path class="st4" d="M326.3,216.7c-3.6-0.7-7.7-0.1-10.6,2.1c-2.6,2-3.9,3.9-4.6,7.6c-0.4,2.3-0.1,5.4,0.7,8l5.6-1.8
			c-0.6-1.2-0.8-3.2-0.2-5.3c1.1-3.8,4.2-5.5,8-4.9c3.9,0.6,6.3,4.2,5.6,8.6c-0.3,1.8-1.1,3.2-3.1,4.5l3.5,4.1
			c2.8-1.8,4.9-5.1,5.4-7.5c0.8-3.9-0.2-6.8-2-10.1C332.5,218.9,329.4,217.2,326.3,216.7z"/>
		<path class="st4" d="M322.3,246.1c-2.9-0.8-6.9,2.5-8.9,4.4c-1.1,1.1-5,5-6.8,4.4c-1.7-0.6-1.1-3-0.6-4.7c0.8-2.3,2-4.4,3.9-5.6
			l-3.5-1.6c-1.7,1.5-3.6,3.7-4.4,6c-0.9,2.6-1.2,5.8-0.9,7.7c0.4,2.5,1.3,4.1,4.2,3.9c2.2-0.2,7.8-3.9,11.1-6.8
			c1.7-1.6,3-1.8,3.8-1.2c1.1,0.7,1.1,2.6,0.7,3.9c-0.6,1.7-1.3,4.2-2.7,5.3l4.7,3.2c1.9-1.9,3-4.9,3.5-7.6
			C327.8,250.6,324.2,246.5,322.3,246.1z"/>
		<path class="st4" d="M275.8,118.3c1.9,1.3,4.8,2.2,7.5,2.7l0.6-5.8c-1.3,0-3.2-0.7-4.8-1.9c-3-2.6-3.2-6.7-1.2-9.4
			c2.5-3.2,6.6-3.9,10.3-1.6c1.5,1,2,2.5,2.3,4.8l5.4-0.9c-0.3-3.2-2.2-7-4-8.6c-2.8-2.5-6.1-3.1-9.7-2.6c-3.6,0.4-6.9,2.8-8.9,5.5
			c-2,2.9-3.2,6.9-2.5,10.5C271.5,114.3,272.7,116.2,275.8,118.3z"/>
		<path class="st4" d="M80.3,227.6c0.2-1.6,0.1-4.6,1.8-4.8c1.7-0.3,2.8,1.2,3.1,2.9c0.4,2.5,1.1,4.2,0.2,6.4l4.5-0.4
			c0.8-2.1,0.4-4.8,0-7.3c-0.6-2.7-1.5-4.7-3.5-6.5c-1.9-1.8-3.4-2.2-6.3-1.6c-1.8,0.3-4.8,3.5-4.9,9.7c0,1.1-0.3,3.5-1.3,3.5
			c-1.3,0.1-2.3-1.6-2.6-2.8c-0.3-1.8,0.1-5.5,0.8-7h-4.7c-0.7,2.7-1,6.4-0.3,9.2c1.2,6.1,4.9,8,7.9,7.7
			C78.2,236.1,79.8,232.8,80.3,227.6z"/>
		<polygon class="st4" points="71,202.1 87.5,201.9 87.5,196.7 71,196.9 70.8,189.8 65.5,190 65.7,209.7 71.1,209.6 		"/>
		<polygon class="st4" points="101,149.8 88.2,142.6 88.3,142.4 105.2,142.1 109.2,136 88.3,123.9 85.1,128.7 99.5,137.6 
			79.9,138.2 77.2,143.4 97.8,155.4 		"/>
		<path class="st4" d="M80.2,181.7c7.2,0,12.9-5.8,12.9-12.9c0-7.2-5.8-12.9-12.9-12.9c-7.2,0-12.9,5.8-12.9,12.9
			C67.4,175.9,73.1,181.7,80.2,181.7z M80.2,162c3.7,0,6.7,3,6.7,6.7s-3,6.7-6.7,6.7s-6.7-3-6.7-6.7S76.5,162,80.2,162z"/>
		<path class="st4" d="M101.4,253.6c0-7.2-5.8-12.9-12.9-12.9c-7.2,0-12.9,5.8-12.9,12.9c0,7.2,5.8,12.9,12.9,12.9
			S101.4,260.6,101.4,253.6z M88.5,260.2c-3.7,0-6.7-3-6.7-6.7s3-6.7,6.7-6.7s6.7,3,6.7,6.7S92.2,260.2,88.5,260.2z"/>
		<path class="st4" d="M104,268.2c-1.9,1.8-2.9,5.9-1.1,8.7c-2-1-6.1-1.3-8,0.3c-4.7,4,1,9.8,5.6,14.4l6.5,6.4L124,284l-6.9-8
			C114.8,272.8,108,264.6,104,268.2z M104.7,290.7c-1.8-2-6.8-6-4.7-8c2-1.9,7.2,4.2,7.7,5L104.7,290.7z M112.6,283.5l-0.4-0.6
			c-1.5-1.8-6.1-6.8-4.2-8.6c1.8-1.8,6.4,4,7.6,5.6l0.6,0.7L112.6,283.5z"/>
		<path class="st4" d="M161.2,312.1c-1.8,0-3.5-0.8-4.4-0.2c-0.8,0.4-0.1,1.8,1,2.1c0.9,0.3,5.9,0,6.8,0l1.6,0.2
			c0-2.1-0.7-2-1.1-2.3C164.7,311.7,162.9,312.1,161.2,312.1z"/>
	</g>
</g>
</svg>
