<?xml version="1.0" encoding="utf-8"?>
<!-- Generator: Adobe Illustrator 21.0.0, SVG Export Plug-In . SVG Version: 6.00 Build 0)  -->
<svg version="1.1" id="Layer_2" xmlns="http://www.w3.org/2000/svg" xmlns:xlink="http://www.w3.org/1999/xlink" x="0px" y="0px"
	 viewBox="0 0 400 400" style="enable-background:new 0 0 400 400;" xml:space="preserve">
<style type="text/css">
	.st0{fill:#1D1160;}
	.st1{fill:#00788C;}
	.st2{fill:#FFFFFF;}
	.st3{fill:#A1A1A4;}
</style>
<g id="Layer_2_1_">
	<path class="st0" d="M111.8,192.5H87.1v26.7l-14.8,7.3l14.8,7.7V258l16.4,10.1c6-0.8,13.7-1.8,22.7-2.7l63.3,36.5L201,355
		c0.1-0.1,11.6-53.1,11.6-53.1l63.2-36.5c8.9,0.9,16.6,1.8,22.7,2.7l16.3-10.1v-23.8l14.8-7.6l-14.8-7.5v-26.7h-24.6
		c0,0,3.8-3.7,8.7-12c2-3.5,4-7.8,6.3-12.9c18-5.4,31.3-17,36.9-28.1c15.4-28.2,27-62.6,27-62.6s-6.6,3.2-14.7,7.2
		c6.5-19.8,10.4-36.7,10.4-36.7s-71,46.9-126.2,91.1l-4.8-2.9c0-0.5,0.2-4.5,0.2-4.8c0,0,0.6-4.7-7.7-7.5c-0.6-0.2-1-0.4-1.5-0.5
		c4-3,10.2-7.6,14.8-10.7c7.2-5,6.4-10.4,6.4-10.4l-26.2,19.5c-20.3-6.5-37.2,0-37.2,0l-26.2-19.5c0,0-0.8,5.4,6.4,10.4
		c4.5,3.1,10.8,7.7,14.8,10.7c-0.5,0.2-0.9,0.4-1.5,0.5c-8.3,2.8-7.7,7.5-7.7,7.5c0,0.4,0.1,4.3,0.2,4.8l-4.8,2.9
		c-55.6-44-126.5-91-126.5-91S41.2,64.1,47.7,84C39.1,79.8,33,76.8,33,76.8s11.6,34.5,27,62.6c5.7,11.2,18.9,22.7,36.9,28.1
		c0,0,3,6.9,5.6,12C105.7,185.7,111.8,192.5,111.8,192.5"/>
	<path class="st1" d="M230.8,152.4c-0.3,0.7-0.6,1.6-0.7,2.3c24.8-16.2,68.2-44.5,116.9-76.2c0,0,0.1,1,4.3-11.4
		C299.8,98.1,254.4,133.3,230.8,152.4"/>
	<path class="st1" d="M171.2,152.4c-23.6-19.1-69.1-54.3-120.5-85.3C55,79.7,55,78.6,55,78.6c48.7,31.6,92,59.9,116.9,76.2
		C171.8,154,171.5,153.2,171.2,152.4"/>
	<path class="st1" d="M201,177.5c-4.2-1.7-14.9-7-21.4-20.9c5.3,4.5,12,6,17.4,0.7c-6.5-2.9-7.4-14.6-8.7-17.6
		c-2.6-6.3-6.6-9.4-9.9-10.7c1.6-0.6,3-1,4.5-1.5c3,1.7,8.2,5.5,9.9,13.2c0,0,0.6-8.8-3.7-14.8c8.4-2,16.9-1.8,23.8,0
		c-4.3,6.1-3.7,14.8-3.7,14.8c1.7-7.7,6.7-11.5,9.9-13.2c1.4,0.5,2.9,0.9,4.5,1.5c-3.2,1.3-7.3,4.5-9.9,10.7
		c-1.3,3-2.1,14.8-8.7,17.6C206.5,166.3,204.7,174.6,201,177.5 M126.1,193.9c0,0-12.2-8.8-19.1-24.7l4.9,1.5
		c15.9,4.2,46.3,8.4,46.3,8.4c-14.7,0.4-27,1.5-34.1,2.2c-1.5-1.8-3.1-4.1-3.8-5.9c0,0,0.6,5.5,1.8,9
		C123.7,189.7,126.1,193.9,126.1,193.9"/>
	<path class="st1" d="M279.8,184.5L279.8,184.5c1.3-3.5,1.8-9,1.8-9c-0.6,1.8-2.3,4.1-3.8,5.9c-7.1-0.8-19.5-1.9-34.1-2.3
		c0,0,30.4-4.1,46.3-8.4l4.9-1.5c-6.9,16-19.1,24.6-19.1,24.7C275.9,193.9,278.3,189.7,279.8,184.5"/>
	<path class="st1" d="M163.1,269.4l-31-17.9c-2.2,0.2-4.4,0.5-6.5,0.6l43,24.8C166.5,274.7,164.7,272.1,163.1,269.4"/>
	<path class="st1" d="M238.9,269.4l31-17.9c2.2,0.2,4.4,0.5,6.5,0.6l-43,24.8C235.5,274.7,237.3,272.1,238.9,269.4"/>
	<path class="st1" d="M187.3,273.6c-13.6-3-19.4-9.7-19.4-9.7c2.8,5.7,7,10.6,12.3,14.2C180.1,278,185.9,276.4,187.3,273.6"/>
	<path class="st1" d="M178.9,258.9c-0.9-0.9-1.9-1.9-3-3c-4.3,1.5-6.8,3.2-8.1,4.3c3,2.9,8.8,6.7,19.2,8.9
		C185.7,265.8,182.5,262.5,178.9,258.9"/>
	<path class="st1" d="M200.7,291.2c-4.5,0.1-7.7,1.8-8.9,2.2c-1.1-2.1-2.5-4.3-3.7-6.3c3.9,0.5,7.3-0.3,7.3-0.3
		c-1.7-0.6-5.8-1.9-11.3-5.6l0,0c0.5-0.2,0.9-0.5,1.5-0.6l0,0c1.5-0.7,3-1.7,4.1-2.9c1.4-1.4,2.3-3.2,2.3-5.3
		c0-6.8-4.6-9.1-9.7-14.2c-1-1-2.1-2-3.2-3.1c4.7-1.3,11.2-2.2,19.7-2.4l2,28.9h0.3l2.1-28.9c8.7,0.2,15,1.1,19.7,2.4
		c-1.1,1.1-2.2,2.1-3.2,3.1c-5.2,5.1-9.7,7.4-9.7,14.2c0,2.2,0.9,4,2.3,5.3c1.2,1.2,2.6,2.1,4.1,2.9l0,0c0.5,0.3,1,0.5,1.5,0.6l0,0
		c-5.5,3.7-9.8,5.1-11.3,5.6c0,0,3.4,0.7,7.3,0.3c-1.3,1.9-2.6,4.1-3.7,6.3c-1.1-0.4-4.3-2.1-8.9-2.2H200.7L200.7,291.2z"/>
	<path class="st1" d="M221.8,278c5.2-3.6,9.4-8.5,12.3-14.2c0,0-5.6,6.7-19.4,9.7C216.1,276.4,221.8,278,221.8,278"/>
	<path class="st1" d="M215,269.3c10.3-2.1,16.1-6,19.2-8.9c-1.3-1.2-3.8-2.9-8.1-4.3c-0.9,1-1.9,2-3,3
		C219.5,262.5,216.3,265.8,215,269.3"/>
	<path class="st2" d="M191.7,158.1c0,0-5-3.3-5.8-10.3C185.9,147.8,179.4,158.7,191.7,158.1"/>
	<path class="st2" d="M210.6,158.1c0,0,5-3.3,5.8-10.3C216.5,147.8,222.9,158.7,210.6,158.1"/>
	<path class="st2" d="M206.9,301.8c-0.9-0.9-2.2-2-6.2-2c-3.8,0-5.1,0.9-6.2,1.8L201,327L206.9,301.8z"/>
	<polygon class="st2" points="249.6,189.8 249.6,199.1 246.5,199.1 246.5,189.8 243.9,189.8 243.9,187.1 252.2,187.1 252.2,189.8 	
		"/>
	<polygon class="st2" points="234.9,189.8 234.9,199.1 231.8,199.1 231.8,189.8 229.2,189.8 229.2,187.1 237.6,187.1 237.6,189.8 	
		"/>
	<path class="st2" d="M190.9,194.8h1.1v-6.5l-1.3-1.3h-7.9v12h3v-4.2h2.2l1.8,4.2h3L190.9,194.8z M189,192.2h-3.3v-2.4h3.3V192.2z"
		/>
	<polygon class="st2" points="267.7,189.8 267.7,187.1 258.8,187.1 258.8,199.1 267.7,199.1 267.7,196.4 261.9,196.4 261.9,194.5 
		267.7,194.5 267.7,191.8 261.9,191.8 261.9,189.8 	"/>
	<polygon class="st2" points="202.7,196.4 202.7,187.1 199.5,187.1 199.5,199.1 207.1,199.1 207.1,196.4 	"/>
	<path class="st2" d="M220.8,187.1h-7.9v10.7l1.4,1.4h7.9v-10.7L220.8,187.1z M219.3,196.4h-3.4v-6.6h3.4V196.4z"/>
	<path class="st2" d="M175.6,199.1v-10.7l-1.3-1.4h-8.1v12h3v-3.9h3.4v3.9L175.6,199.1L175.6,199.1z M169.2,189.8h3.4v2.8h-3.4
		V189.8z"/>
	<polygon class="st2" points="156.6,187.1 156.6,192.5 153.2,192.5 153.2,187.1 150.2,187.1 150.2,199.1 153.2,199.1 153.2,195.2 
		156.6,195.2 156.6,199.1 159.6,199.1 159.6,187.1 	"/>
	<path class="st2" d="M336.6,102c5.8-13.7,10.2-23.4,10.2-23.4c-48.7,31.6-92,59.9-116.9,76.2c-0.9,2.7-2,5.1-3.2,7.3l98-53.4
		l-76.5,55.2l3.5-0.6l40.4-3.9c0,0,27.3-2.7,42.5-23.1c7.2-11,19.4-43.1,19.4-43.1L336.6,102z"/>
	<path class="st2" d="M102.5,229.8l9.4-4.1v21.4c2.7-0.4,5.4-0.7,8.3-1v-46.9h-8.3c0-0.1,0,16.9,0,16.9l-9.4,4v-20.8h-8.3v24.3
		l-6.8,3.3l6.8,3.4V250c2.7-0.5,5.5-0.9,8.3-1.4V229.8z"/>
	<path class="st2" d="M167.2,229.7c2-0.1,4.1-0.1,6.2-0.2c1.6,4,3.1,8.5,4.6,12.4c2.8-0.1,5.5-0.2,8.3-0.2c-1.6-4-3-8.5-4.6-12.4
		c1,0,2.1,0,3.1-0.1V210l-3.7-3.6h-25.4l3.1,3.8v32.6c2.8-0.2,5.5-0.3,8.3-0.5L167.2,229.7L167.2,229.7L167.2,229.7z M167.2,214h9.4
		c0,2.3,0,5.3,0,7.4c-3.1,0-6.3,0.1-9.4,0.2V214z"/>
	<path class="st2" d="M199.5,214h9.5v27.6c2.9,0,5.8,0.1,8.7,0.1v-31.5l-3.8-3.8h-26l3.1,3.8v31.5c2.9,0,5.6-0.1,8.5-0.1V214
		L199.5,214z"/>
	<path class="st2" d="M248.8,235c-5.3-0.3-10.7-0.6-16-0.7c0-1.9,0-4,0-5.9c5.3,0.2,10.7,0.4,16,0.6v-8.3c-5.3-0.2-10.7-0.3-16-0.4
		c0-1.6,0-4.3,0-6.3h16v-7.7h-27.9l3.1,3.7v31.8c8.5,0.3,16.8,0.6,24.8,1.1L248.8,235L248.8,235z"/>
	<path class="st2" d="M269.7,214h7.2v-7.7h-23.4v7.7h7.3v29.9c3,0.3,6.1,0.5,9,0.7L269.7,214L269.7,214z"/>
	<path class="st2" d="M152.7,210.2l-3.8-3.8h-25.5l3,3.6v31l3.3,4c7.3-0.7,15-1.4,23-1.8V210.2z M144.4,235.4
		c-3.2,0.2-6.4,0.4-9.5,0.6v-22h9.5V235.4z"/>
	<path class="st2" d="M306.9,230.1c2.6-1.1,5.2-2.3,7.7-3.5c-8.3-3.9-16.6-7.3-24.8-10.5v-9.4h8.8v3.4h8.4v-10.9h-28.6l3.1,3.7v19.4
		l17.1,7.4v10.9c0,0-4-0.5-8.8-1.1V236l-8.3-1v11.1c9,1,17.6,2.3,25.4,3.7C306.9,243.7,306.9,234.4,306.9,230.1"/>
	<polygon class="st2" points="140.4,195.4 140.4,196.4 137.7,196.4 137.7,189.8 140.4,189.8 140.4,190.8 143.5,190.8 143.5,187.1 
		134.8,187.1 134.8,197.8 136.2,199.1 143.5,199.1 143.5,195.4 	"/>
	<path class="st2" d="M65.4,102c-5.8-13.7-10.2-23.4-10.2-23.4c48.7,31.6,92,59.9,116.9,76.2c0.9,2.7,2,5.1,3.2,7.3l-98-53.5
		l76.5,55.2l-3.5-0.6l-40.4-3.9c0,0-27.3-2.7-42.5-23.1C60.2,125.2,48,93.1,48,93.1L65.4,102z"/>
	<path class="st3" d="M367.1,92.5c-7.7,20.7-18.1,42.1-23.2,51c-8.7,14.8-26,23.7-36.1,27c0,0-4.9,11.9-10.1,18.4h20.7v28.2
		l19.7,9.4l-19.7,10v23.6l-19.1,11.7c0,0-15.2-1.8-22.7-2.7l-60.6,35c-12.2,54.9-15,70.8-15,70.8s-2.9-15-15-70.8l-60.6-34.9
		c-7.4,0.7-22.7,2.7-22.7,2.7l-19.1-11.7v-23.6l-19.7-10l19.6-9.4V189h20.7c-5-6.3-10.1-18.4-10.1-18.4c-6.1-2-11.9-4.8-17.1-8.1
		c-8.2-5.3-14.8-11.8-19.1-18.9c-8.2-14.6-18-36.4-23.2-51c-3.4-9-7.7-22.5-7.7-22.5s11.2,5.3,14.8,7.1c-5.4-16.1-10-37.7-10-37.7
		s77.5,51,132,94.6l0.8-0.6c0-0.9,0-1.8,0-2.8c0-0.6,0-1.7,0.5-3c0.6-1.8,2-4.1,5.2-6c-4-3-11.2-7.9-11.8-8.6
		c-5.3-4.6-6.2-9.7-5.7-12.3l0.9-5.8l29.5,21.9c16-4.6,27.4-2.3,35.8,0L248.5,95l0.9,5.8c0.4,2.5-0.5,7.7-5.7,12.3
		c-0.6,0.6-7.8,5.6-11.8,8.6c3.1,1.9,4.5,4.1,5.2,6c0.5,1.3,0.5,2.4,0.5,3c0,0.9,0,1.8,0,2.8l0.8,0.6
		C294,89.5,370.3,39.5,370.3,39.5s-3.8,17.7-10,37.7c3-1.5,14.8-7.1,14.8-7.1C371.6,80.8,367.1,92.5,367.1,92.5 M111.8,192.5H87.1
		v26.7l-14.8,7.3l14.8,7.7V258l16.4,10.1c6-0.8,13.7-1.8,22.7-2.7l63.3,36.5L201,355c0.1-0.1,11.6-53.1,11.6-53.1l63.2-36.5
		c8.9,0.9,16.6,1.8,22.7,2.7l16.3-10.1v-23.8l14.8-7.6l-14.8-7.5v-26.7h-24.6c0,0,3.8-3.7,8.7-12c2-3.5,4-7.8,6.3-12.9
		c18-5.4,31.3-17,36.9-28.1c15.4-28.2,27-62.6,27-62.6s-6.6,3.2-14.7,7.2c6.5-19.8,10.4-36.7,10.4-36.7s-71,46.9-126.2,91.1
		l-4.8-2.9c0-0.5,0.2-4.5,0.2-4.8c0,0,0.6-4.7-7.7-7.5c-0.6-0.2-1-0.4-1.5-0.5c4-3,10.2-7.6,14.8-10.7c7.2-5,6.4-10.4,6.4-10.4
		l-26.2,19.5c-20.3-6.5-37.2,0-37.2,0l-26.2-19.5c0,0-0.8,5.4,6.4,10.4c4.5,3.1,10.8,7.7,14.8,10.7c-0.5,0.2-0.9,0.4-1.5,0.5
		c-8.3,2.8-7.7,7.5-7.7,7.5c0,0.4,0.1,4.3,0.2,4.8l-4.8,2.9c-55.6-44-126.5-91-126.5-91S41.2,64.1,47.7,84
		C39.1,79.8,33,76.8,33,76.8s11.6,34.5,27,62.6c5.7,11.2,18.9,22.7,36.9,28.1c0,0,3,6.9,5.6,12C105.7,185.7,111.8,192.5,111.8,192.5
		"/>
</g>
</svg>
