<?xml version="1.0" encoding="utf-8"?>
<!-- Generator: Adobe Illustrator 23.0.0, SVG Export Plug-In . SVG Version: 6.00 Build 0)  -->
<svg version="1.1" id="Layer_1" xmlns="http://www.w3.org/2000/svg" xmlns:xlink="http://www.w3.org/1999/xlink" x="0px" y="0px"
	 viewBox="0 0 400 400" style="enable-background:new 0 0 400 400;" xml:space="preserve">
<style type="text/css">
	.st0{fill:#FFFFFF;}
	.st1{fill:#061922;}
	.st2{fill:#BBC4CA;}
	.st3{fill:#0064B1;}
</style>
<g>
	<g>
		<path class="st0" d="M63.8,249.9c-2.4-3.6-10.4-17.1-10.4-38.9l0,0c0-8.2,1.1-17.5,4.1-27.9l0,0c0-0.1,0-0.1,0-0.2l0,0l1.3-5
			l0.3,0.3c0.2-0.6,0.4-1.2,0.6-1.8l0,0c1-3.1,2.1-6.4,2.4-7.1l0,0c0.2-0.7,1.1-4.4,1.9-7l0,0c0.2-0.8,0.4-1.4,0.6-2l0,0l0-0.4
			c0.2-1.9,0.5-3.8,0.9-5.6l0,0c0.1-1,0.3-1.9,0.4-2.7l0,0l0.1-0.3l0.1-0.3c0.1-0.2,0.2-0.4,0.2-0.5l0,0
			c3.7-15.2,10.7-24.2,14.6-28.3l0,0l0-0.1l0-0.1c0.8-0.7,2.9-2.7,5.4-4.3l0,0c1.1-1.5,4.8-6.3,8.2-10.1l0,0
			c1.2-1.3,2.3-2.4,3.3-3.4l0,0c0.6-1.3,1.9-4,4.4-7.2l0,0c3.4-4.2,8.8-9.2,17.2-12.2l0,0c6.4-4.4,13.2-8.2,20.3-11.6l0,0
			c1.4-1.4,6.5-6.5,14.5-11.6l0,0c9.3-5.9,22.4-11.9,38-11.9l0,0c0.6,0,1.2,0,1.8,0l0,0l5.7,0.2l-7,9.4c3.7-0.3,7.5-0.4,11.3-0.4
			l0,0c20.1,0,39.4,3.9,56.9,11l0,0l0.1,0l0.1,0c0.7,0.3,1.9,0.9,3.1,1.7l0,0c1.1,0.7,2.1,1.4,3.1,2.4l0,0c1.2,0.1,3.8,0.6,6.6,1.8
			l0,0l0.1,0l0.1,0c18.9,9.9,35.4,23.8,48.3,40.4l0,0l0.1,0.1l0.1,0.2c0.2,0.3,0.7,1.4,1.1,3.5l0,0c0.2,0.1,0.5,0.3,0.9,0.6l0,0
			c0.7,0.5,1.5,1,2.2,1.8l0,0l0.2,0.2l0.1,0.2c15.8,23,25.1,50.7,25.1,80.5l0,0c0,28.2-8.3,54.6-22.7,76.9l0,0l-0.1,0.1l-0.1,0.1
			c-0.2,0.3-0.3,0.4-0.5,0.6l0,0c-0.2,0.2-0.4,0.4-0.7,0.6l0,0c-0.4,0.3-1,0.7-1.7,1.2l0,0c-0.1,0.3-0.1,0.6-0.2,1.1l0,0
			c-0.2,0.9-0.5,2-1.2,3.1l0,0l0,0.1l-0.1,0.1c-26.9,36.8-71,60.8-120.9,60.8l0,0C139.1,348.1,83.7,307.1,63.8,249.9L63.8,249.9z"/>
	</g>
	<path class="st1" d="M325,124.8c-0.9-0.9-2.9-2.1-2.9-2.1c-0.7-0.3-0.9-1-0.9-1c-0.4-2.5-0.9-3.4-0.9-3.4
		c-12.6-16.3-28.8-29.8-47.4-39.6c-3.3-1.5-6.3-1.6-6.3-1.6c-0.7,0-1-0.5-1-0.5c-1.1-1.5-4.4-3.2-5.6-3.8c-17.2-7-36-10.8-55.8-10.8
		c-6,0-11.9,0.4-17.7,1.1l7.6-10.2c-30.5-0.9-52.3,22.9-52.3,22.9l0,0c-7.3,3.4-14.3,7.4-20.9,11.9l0,0
		c-15.9,5.7-20.5,18.5-20.5,18.5c-4,3.4-12,14-12,14c-2.3,1.3-4.7,3.5-5.4,4.2c-3.7,3.8-10.4,12.4-13.9,27.2
		c-0.1,0.2-0.2,0.5-0.3,0.7c-0.1,0.8-0.3,1.8-0.4,2.7c-0.3,1.8-0.7,3.6-0.9,5.5l0.2-0.2c-0.1,0.4-0.1,0.6-0.1,0.6
		c-0.4,0.3-2.7,9.4-2.7,9.4c-0.4,1.2-4.5,13.6-4.5,13.6l0,0c0,0,0,0.1,0,0.1c-10.9,38.2,3.6,61.3,6.1,64.8
		c19.3,56.1,73.7,96.6,137.8,96.6c48.9,0,92.2-23.5,118.5-59.6l0,0c0.7-1.2,1.1-3.6,1.1-3.6c0-0.8,0.6-1.1,0.6-1.1
		c2-1.1,2.7-1.8,2.8-2c14.1-21.8,22.2-47.6,22.2-75.3C349.6,174.4,340.5,147.3,325,124.8z"/>
	<path class="st0" d="M143.3,97.4c0.4-0.4,0.7-0.8,1-1.1c0.5-0.5,0.7-0.6,0.7-0.6c0.1-0.1,0.1-0.1,0.1-0.1
		c0.1-7.3,1.8-13.1,1.8-13.1c13.2-18.5,35-23.3,35-23.3c2.7-0.8,1,0.4,1,0.4c-13.7,15.4-12.3,28.1-12.3,28.1l13.1,47.8
		c0,0-10.6-3.7-18.8-20.5c-3.8,33.5,27.8,60.7,27.8,60.7c1.4,1.2-0.8-0.1-0.8-0.1c-7.9-3.9-17-12.3-19.5-14.6
		c0.7,2.6,16,79.9,16.1,80.1c0.1,0.4,0.3,1.1,0.4,1.6l5.3-13.2l4.4,39c-20,18.6-41.3,11.3-42.7,10.8c0.5,0.8,0.9,1.4,0.9,1.4
		s17.3,34,87.9,30.4c0,0,1.7,0,1.4,0.2c0,0.1-0.1,0.1-0.4,0.2c-1.3,0.5-3.4,0.8-3.4,0.8c-85.2,22.8-129.3-49.8-131.2-53.1
		c-0.5-0.7-4.7-6.6-7-12.4c-0.1-0.2-0.2-0.7,0.2-0.3c0,0,9,9.4,34.6,11.8c0.2,0,0.3,0,0.3,0c-19.8-22-28.2-38-29.4-40.5c0,0,0,0,0,0
		c0,0-2.4-3.6-5.2-13.7c0,0,0.1-0.5,0.3,0c1,2,7.5,11.7,15.5,13.8h0c-6.8-10.9-11-28.1-11.5-30.7c9.2,12.9,25.5,13.8,25.5,13.8
		c0,0,0-0.1-0.1-0.1c0,0.1,0.1,0.1,0.1,0.1c-26.8-26.8-21-55.9-10.2-76.9C130.8,111.6,139,102,143.3,97.4z"/>
	<g>
		<g>
			<path class="st2" d="M223.6,274.5L206,293c0,0,0,0,0,0l0,0l21.7-16.7l-11.2-38.8l4.9-46.6l-8.6,44.5L223.6,274.5L223.6,274.5z"/>
		</g>
		<g>
			<path class="st2" d="M227.5,160.4c-1.5,8-4,16.1-8.4,19.8l0,0c0.3-0.2,0.7-0.4,1.2-0.6l0,0c1.3-0.8,3-2,4.8-3.8l0,0
				c3.5-3.6,7-9.5,7-18.8l0,0c0-4.2-0.7-9-2.4-14.6l0,0C229.4,145.5,228.9,152.9,227.5,160.4L227.5,160.4z"/>
		</g>
		<g>
			<path class="st2" d="M227.2,101.6l0.3-0.1L227.2,101.6L227.2,101.6z M227.3,100.9c6.1-9.3,16.2-10.1,20.5-10.1l0,0
				c-3.7-1.1-7.1-1.5-10.2-1.5l0,0c-6.5,0-11.3,1.8-13.3,2.7l0,0c-0.3,0.1-0.5,0.2-0.7,0.3l0,0C225.2,94.5,226.8,99.2,227.3,100.9
				L227.3,100.9z"/>
		</g>
		<g>
			<path class="st2" d="M204.3,172.8L204.3,172.8L204.3,172.8L204.3,172.8z M219.6,120.3c0.2,0,0.3,0.1,0.3,0.3l0,0
				c0,0.9,0,1.7,0,2.6l0,0c0,19.9-5.3,41.8-7.3,49.4l0,0c7.6-17.5,9.7-33.8,9.7-46.3l0,0c0-7.3-0.7-13.4-1.4-17.6l0,0
				c-0.4-2.2-0.7-3.9-1-5l0,0c-1.9,15-7.6,21.8-7.7,21.9l0,0c-0.1,0.1-0.2,0.1-0.3,0.1l0,0c-0.1,0-0.2-0.1-0.2-0.2l0,0
				c-9.4-17.3-23.3-27.9-29.6-32.1l0,0c-1.1-0.7-2-1.3-2.5-1.6l0,0c17.9,38.8,23.1,68.8,24.4,78.7l0,0c0-1.1,0.1-2.3,0.1-3.5l0,0
				c0-17.7-4.5-39.1-6.8-48.7l0,0c-0.8-3.2-1.3-5.1-1.3-5.1l0,0c0-0.1,0-0.3,0.1-0.3l0,0c0.1-0.1,0.2-0.1,0.4,0l0,0
				c8,6.2,13.7,24,14.7,27.3l0,0c1.5-1.9,3.5-6.5,5.1-10.8l0,0c1.7-4.6,3.1-8.8,3.1-8.8l0,0C219.3,120.4,219.4,120.3,219.6,120.3
				L219.6,120.3C219.5,120.3,219.5,120.3,219.6,120.3L219.6,120.3z M211.9,125.4l0.3-0.1L211.9,125.4L211.9,125.4z"/>
		</g>
		<g>
			<path class="st2" d="M69.2,200.9c0,18.5,3.2,37.8,19.1,62.5l0,0l0,0c15,31.6,42.7,48.6,55.6,55.2l0,0c4.3,2.2,6.9,3.2,7,3.2l0,0
				c20.5,9.7,39.8,13.2,57.1,13.2l0,0c36.2,0,63.6-15.6,75.1-23.4l0,0c3.8-2.6,5.9-4.3,5.9-4.3l0,0l0.2,0.2l-0.2-0.2
				c0.8-0.6,1.3-1.1,1.8-1.5l0,0c-0.2,0.1-0.5,0.3-0.7,0.4l0,0c-0.8,0.5-1.6,1-1.6,1l0,0c-28.1,16.5-54,21.5-75.2,21.5l0,0
				c-33.1,0-54.6-12.4-54.6-12.4l0,0c-70.3-36.8-71.3-100.7-71.3-100.7l0,0c0-0.1,0.1-0.3,0.2-0.3l0,0c0.1,0,0.3,0,0.3,0.2l0,0
				c9.1,17.6,20.1,23.6,24.9,25.5l0,0c0.7,0.3,1.3,0.5,1.7,0.6l0,0C94,215.7,88.2,194,88.2,177.7l0,0c0-21.6,10.2-33.9,10.3-33.9
				l0,0c0.1-0.1,0.2-0.1,0.4-0.1l0,0c0.1,0.1,0.2,0.2,0.2,0.3l0,0c-1.5,7.6-2,14.4-2,20.2l0,0c0,14.3,3.3,23.1,5,26.7l0,0
				c0,0.1,0.1,0.2,0.1,0.3l0,0c-0.6-5.2-0.9-10.2-0.9-15l0,0c0-48.2,28.2-77.8,34.2-83.6l0,0c-4.5,1.9-9.9,6.7-14.3,11.2l0,0
				c-4.9,5-8.6,9.6-8.6,9.6l0,0c-0.1,0.1-0.2,0.1-0.3,0.1l0,0c-0.1,0-0.2-0.2-0.2-0.3l0,0c0-3.8,2.2-8.6,3.4-11l0,0
				c-3.6,3.3-6.6,8.5-8.8,13l0,0c-2.4,5-3.7,9.2-3.7,9.2l0,0l-0.1,0.1c-11.2,12.6-16.6,26.2-18.6,32.1l0,0c-0.7,2-1,3.1-1,3.1l0,0
				c-0.3,1-0.4,1.5-0.5,1.8l0,0c-0.1,0.1-0.1,0.2-0.4,0.3l0,0c-0.2,0-0.3-0.2-0.3-0.2l0,0c0-0.1,0-0.1,0-0.2l0,0c0-0.1,0-0.3,0-0.4
				l0,0c0-0.6,0.1-1.4,0.1-1.4l0,0c0.2-9.1,4-19.3,5.5-23.1l0,0c-10.7,11.5-13.3,27.1-13.3,39.6l0,0c0,5.9,0.6,11.1,1.2,14.8l0,0
				c0.6,3.7,1.2,5.9,1.2,5.9l0,0l0,0.1c0,7.3,1.5,16.4,2.9,23.7l0,0c1.4,7.2,2.9,12.6,2.9,12.6l0,0c0.5,1.4,0.7,2,0.7,2.4l0,0
				c0,0.1,0,0.1,0,0.2l0,0c0,0.1-0.2,0.2-0.3,0.2l0,0c-0.2,0-0.3-0.1-0.3-0.2l0,0c-0.1-0.1-0.1-0.2-0.2-0.3l0,0
				c-0.1-0.2-0.3-0.5-0.4-0.7l0,0c-0.3-0.5-0.5-1-0.5-1l0,0c-7.5-11.5-11.1-30.4-12-35.1l0,0C69.2,199.4,69.2,200.1,69.2,200.9
				L69.2,200.9z"/>
		</g>
	</g>
	<g>
		<g>
			<path class="st3" d="M234,110.7l-0.2-0.1l0.1-0.2c3.4-9.2,19.6-17.3,22.7-18.9l0,0c-7.5-4.2-14.7-5.5-20.7-5.5l0,0
				c-4.5,0-8.3,0.7-11,1.5l0,0c-2.7,0.7-4.2,1.4-4.2,1.4v0l-0.2,0.1l-0.1-0.2c-2.8-3.5-6.4-6.9-9.3-9.5l0,0
				c-2.8-2.5-4.9-4.1-5.1-4.3l0,0c-0.4-0.3-0.7-0.4-0.7-0.8l0,0c0-0.2,0.2-0.4,0.3-0.4l0,0c0.1-0.1,0.3-0.1,0.4-0.1l0,0
				c0.3-0.1,0.7-0.1,1-0.1l0,0c0.4,0,0.7,0,0.8,0l0,0c64.4,0,98.6,46,98.6,46l0,0c0.4,0.5,0.7,1,0.7,1.5l0,0c-0.1,1.4-1.6,2-3,2.5
				l0,0c-1.4,0.4-2.9,0.6-2.9,0.6l0,0c-6.2,0.9-12,1.2-17.3,1.2l0,0C250.2,125.4,234,110.7,234,110.7L234,110.7z"/>
		</g>
		<g>
			<path class="st3" d="M212.1,296.6c-0.1,0-0.2-0.1-0.2-0.2l0,0c0-0.1,0-0.2,0.1-0.3l0,0l21.6-17.4l-11-40.6l0-0.1l3-27.2
				c0-0.1,0.1-0.2,0.1-0.2l0,0c0.1-0.1,0.2-0.1,0.3,0l0,0c4.9,1.5,7.2,8.2,8.4,14.4l0,0c0.8,4.5,1.1,8.7,1.1,10.8l0,0
				c5.7-12.4,7.6-22.4,7.6-30.1l0,0c0-10.9-3.8-17.4-5.6-19.9l0,0c-0.6-0.8-1-1.2-1-1.2l0,0l0,0c-0.1-0.1-0.1-0.3,0-0.4l0,0
				c0.1-0.1,0.3-0.1,0.4,0l0,0c25.7,24.4,30.9,58.5,30.9,82l0,0c0,15.9-2.4,26.9-2.4,27l0,0l0,0c-0.8,2.5-3.4,3.1-3.5,3.2l0,0
				c-10.5,2.3-19.7,3.1-27.3,3.1l0,0C220.5,299.3,212.1,296.6,212.1,296.6L212.1,296.6z"/>
		</g>
		<g>
			<path class="st3" d="M272.5,293.7c-0.4-0.3-0.7-0.9-0.6-1.6l0,0c0-0.3,0-0.7,0.2-1.2l0,0c0,0,0.8-3.2,1.7-8.8l0,0
				c0.8-5.5,1.7-13.4,1.7-22.6l0,0c0-24.5-5.9-58.7-33.2-85.2l0,0c-0.1-0.1-0.5-0.3-0.7-0.6l0,0c-0.1-0.1-0.2-0.2-0.2-0.4l0,0
				c0-0.1,0.1-0.3,0.2-0.4l0,0c0.1-0.1,0.2-0.1,0.4-0.1l0,0c0.3,0,0.6,0.1,1.2,0.2l0,0c0,0,7.3,2.2,12.4,7.9l0,0
				c0-0.4-0.1-0.8-0.2-1.3l0,0c-0.2-1.5-0.6-3.5-1.3-5.9l0,0c-1.4-4.8-3.9-10.9-8.5-16.2l0,0c0,0-0.6-0.7-1-1.1l0,0
				c-0.1-0.2-0.2-0.2-0.2-0.5l0,0c0-0.1,0-0.2,0.1-0.2l0,0c0.1-0.1,0.2-0.1,0.2-0.1l0,0c0.2,0,0.3,0.1,0.5,0.2l0,0
				c0.2,0.1,0.5,0.3,0.9,0.6l0,0c1.6,0.8,70.2,34,72.6,100.9l0,0c0,0,0,0.4,0,1l0,0c0,1.6-0.3,4.9-2.4,6.8l0,0
				c-0.7,0.8-16.9,21-40.8,28.8l0,0c0,0-0.7,0.3-1.5,0.3l0,0C273.4,294.1,272.9,294,272.5,293.7L272.5,293.7z"/>
		</g>
		<g>
			<path class="st3" d="M324.1,246.5c-0.2-0.5-0.3-1.1-0.3-2l0,0l0,0c-1.6-64.4-72.2-105-89.9-114.1l0,0c-2.5-1.3-3.9-2-3.9-2l0,0
				l-1.2-0.6l1.4,0c0.1,0,0.1,0,0.2,0l0,0c9.3,0,14.9,5.6,16.6,7.5l0,0v0l0,0c0-1.7-0.3-3.5-0.7-4.8l0,0c-0.3-1.4-0.7-2.3-0.7-2.3
				l0,0l-0.2-0.6l0.6,0.2c7.4,2.8,16.9,3.8,26.3,3.7l0,0c9,0,17.9-0.9,24.5-1.7l0,0c6.6-0.9,10.9-1.7,10.9-1.7l0,0l0,0l0,0
				c0.3,0,0.7,0,1,0l0,0c3.8,0,5,2.1,5.1,2.5l0,0c8.8,9.8,19.8,32.7,21.6,60.1l0,0c0.2,3.4,0.3,6.8,0.3,10l0,0
				c0,24.1-5.8,41.6-9.2,45.7l0,0c-0.5,0.6-0.9,1-1.5,1l0,0C324.6,247.3,324.3,247,324.1,246.5L324.1,246.5z"/>
		</g>
	</g>
	<path class="st1" d="M173.7,65.9c0-0.1,0.1-0.1,0.1-0.2l0,0l0,0c-0.8,0.2-14.9,4.4-19,25.8c0,0,0,0.4,0.2,0
		c1.3-2.1,5.7-8.7,9.7-6.8c0,0,0-0.2,0.1-0.4C164.9,82.6,166.3,75.1,173.7,65.9z"/>
	<g>
		<path class="st1" d="M162.9,259.9c-3-6.1-22.6-48.8-22.6-48.8c-6.1,1.9-13.6-3-13.6-3c0,0,0,0,0,0c9.6,25.5,32.2,47.9,35.9,51.9
			c0,0,0,0,0.1,0.1c0.6,0.7,0.6,0.4,0.6,0.4C163.1,260.4,163,260.2,162.9,259.9z"/>
	</g>
	<g>
		<path class="st1" d="M143.5,120.9c-17.6,40.3,22.1,56.9,22.6,57.1l0,0l-2.1-9.3l-1.2-5.3c-1-0.3-1.9-0.7-2.8-1.1
			c-0.3-0.1-0.6-0.3-0.9-0.4c-0.4-0.2-0.7-0.4-1.1-0.5c-17.3-9.2-15.7-31.3-14.6-38.5c0-0.1,0-0.1,0-0.2c0-0.2,0.1-0.4,0.1-0.6
			c0.1-0.7,0.2-1.1,0.2-1.4c0-0.1,0-0.2,0-0.2c0,0,0,0,0,0C143.8,120.1,143.6,120.7,143.5,120.9z"/>
	</g>
	<path class="st2" d="M169.6,234.4l-2.9-50.7l17,56.5C183.8,240.2,178.2,226.9,169.6,234.4z"/>
	<g>
		<path class="st2" d="M170.7,88.7l3.8,30.3c0,0,1.8,8.3-9.5-4.1c8.2,16.8,18.8,20.5,18.8,20.5l-13-47.4
			C170.7,88.1,170.6,88.2,170.7,88.7z"/>
	</g>
	<path class="st2" d="M152.6,144c-1.1-2.5-1.5-4.8-1.5-6.8c0-7.4,5.4-11.5,5.4-11.5l0.2-0.1c0,0.1-0.3-4.7,0.2-12.3
		c-4.4,6.4-13.6,21.6-2.5,33.5c-0.2-0.2-0.3-0.5-0.5-0.7C153.3,145.2,152.9,144.6,152.6,144z"/>
	<path class="st1" d="M164.1,150.2c-1.9-3.3-6.7-13.8-7.4-24.4c0-0.1,0-0.1,0-0.2l-0.2,0.1c0,0-5.4,4.2-5.4,11.5
		c0,2,0.4,4.3,1.5,6.8c0.3,0.6,0.7,1.3,1.3,2.1c0.1,0.2,0.3,0.4,0.5,0.7c0.2,0.3,0.4,0.5,0.7,0.8c1.9,2,5,4.1,10.2,4.3
		C165.2,151.9,164.7,151.3,164.1,150.2z"/>
	<g>
		<g>
			<path class="st2" d="M188,270.3L188,270.3C188,270.3,188,270.3,188,270.3C188,270.3,188,270.3,188,270.3
				C188,270.3,188,270.3,188,270.3C188,270.3,188,270.3,188,270.3z"/>
			<path class="st2" d="M179.5,246.4c1.8,0,3.1,1.6,4.2,3.9c1.1,2.3,2,5.2,2.7,8.2c0.9,3.7,1.4,7.4,1.7,9.6c0,1,0,1.8,0,2.2
				c0,0,0,0,0,0c0.4-2.4,4-26.1-8.1-29.5c0,0-8.4-2.1-7.8,15.3c0.1-0.4,0.1-0.7,0.1-1.1C175,248.9,177.3,246.4,179.5,246.4z"/>
			<path class="st1" d="M188,270.3C188,270.3,188,270.3,188,270.3C188,270.3,188,270.3,188,270.3C188,270.3,188,270.3,188,270.3z"/>
			<path class="st1" d="M188.1,268c0-0.7-0.8-5.9-1.7-9.6c-0.7-3-1.6-5.9-2.7-8.2c-1.1-2.2-2.4-3.8-4.2-3.9c-2.2,0-4.5,2.5-7.3,8.7
				c-0.2,0.4-0.1,0.5-0.1,1.1l4.1,9.1c0,0,2.4-24.4,11.7,4.9c0,0.1,0,0.1,0,0.1l0,0c0,0,0,0,0-0.1c0,0,0,0,0,0c0,0,0,0,0,0
				c0,0,0,0,0,0C188.1,269.8,188.2,269.3,188.1,268z"/>
		</g>
	</g>
</g>
</svg>
