<?xml version="1.0" encoding="utf-8"?>
<!-- Generator: Adobe Illustrator 24.0.1, SVG Export Plug-In . SVG Version: 6.00 Build 0)  -->
<svg version="1.1" id="Layer_1" xmlns="http://www.w3.org/2000/svg" xmlns:xlink="http://www.w3.org/1999/xlink" x="0px" y="0px"
	 viewBox="0 0 400 400" style="enable-background:new 0 0 400 400;" xml:space="preserve">
<style type="text/css">
	.st0{fill:#B3B2B1;}
	.st1{fill:#1D428A;}
	.st2{fill:#C8102E;}
	.st3{fill:#FFFFFF;}
</style>
<g>
	<path class="st0" d="M350,200.1c0,82.9-67.2,150.1-150.1,150.1S49.8,283,49.8,200.1C49.7,117.2,116.9,50,199.9,50
		C282.8,50,350,117.2,350,200.1"/>
	<g>
		<path class="st1" d="M345.7,200.1c0,80.5-65.3,145.8-145.8,145.8S54.1,280.6,54.1,200.1S119.4,54.3,199.9,54.3
			S345.7,119.6,345.7,200.1"/>
		<g>
			<path class="st2" d="M324.2,200.1c0,68.6-55.6,124.4-124.4,124.4c-68.6,0-124.4-55.6-124.4-124.4c0-68.6,55.6-124.4,124.4-124.4
				S324.2,131.5,324.2,200.1"/>
			<path class="st3" d="M199.9,75.7c-68.5,0-124.4,55.8-124.4,124.4s55.8,124.4,124.4,124.4s124.4-55.8,124.4-124.4
				C324.2,131.6,268.4,75.7,199.9,75.7 M82.7,203.8h22.9v-7.3H82.7c0.1-2.7,0.2-5.5,0.5-8.2c8.1-40.9,57.3-72.3,116.6-72.3
				c59.3,0,108.5,31.5,116.6,72.3c0.3,2.7,0.4,5.5,0.5,8.2h-23v7.3h22.9c-0.1,2.7-0.2,5.5-0.5,8.2c-8.1,40.8-57.4,72.3-116.6,72.3
				S91.3,252.8,83.2,212C83,209.3,82.9,206.5,82.7,203.8 M199.9,82.9c49.6,0,92.2,31,109.2,74.7c-20.8-28.5-61.9-48-109.2-48
				s-88.4,19.4-109.2,48C107.7,114,150.2,82.9,199.9,82.9 M199.9,317.4c-49.6,0-92.2-31-109.2-74.7c20.8,28.5,61.9,48,109.2,48
				s88.4-19.4,109.2-48C292,286.2,249.5,317.4,199.9,317.4"/>
			<g>
				<g>
					<rect x="147.3" y="203.4" class="st3" width="8.7" height="39.5"/>
					<path class="st3" d="M181,203.4h-0.3c-2.4,0-11.5-0.1-13.2,0h-0.4c-2.6,0-4.4,1.2-4.8,3.6c-0.1,0.4-0.1,0.6-0.1,0.6
						c0,0.1-0.6,7.5,0.1,9.6c1.2,3.4,4,4.7,6.4,5.4c0.1,0,0.2,0.1,0.3,0.1c0.2,0,0.3,0.1,0.5,0.2c0.3,0.1,0.5,0.3,0.6,0.4v14.2h-7.2
						v5.3h9.6l0,0c3.4-0.1,5.6-1.6,6.4-4.1c0.2-1.9,0.3-15.2,0.1-17.9c-0.1-1-0.5-1.9-1.5-2.6c-0.4-0.3-0.8-0.6-1.4-0.9
						c-0.5-0.3-1.1-0.5-1.6-0.8c-2-1-4.4-2.1-4.4-4.8v-2.2h6.9c1.4,0,2.5-0.7,3.3-2c0.5-1,0.7-2,0.7-2c0.1-0.6,0-1.2,0-1.6
						L181,203.4z"/>
					<path class="st3" d="M221.3,203.4c-1.9,0-4.1,0.1-5.7,0.5c-4.3,1-6.4,3.9-6.4,8.8v23.5c0,6,4.3,7.2,10.8,7.2
						c7.8,0,12.3-2.7,12.3-7.6v-24.5C232.2,203.4,227.2,203.4,221.3,203.4 M218.3,212.3c0-1,0.1-1.8,0.3-2.4l0.2-0.1
						c0.4-0.1,0.8-0.1,1.2-0.1h0.2c2.9,0,3.1,0.9,3.1,6.3v16.5c0,0.5,0,0.9,0,1.4s-0.1,0.9-0.2,1.3l-0.2,0.2c-0.5,0.1-1,0.1-1.5,0.1
						c-1.1,0-1.8-0.2-2.3-0.7c-0.7-0.7-0.7-1.9-0.7-3.4v-16.7C218.3,214.7,218.3,212.9,218.3,212.3"/>
					<path class="st3" d="M252.6,220.1c-4.2-15.3-11-16.9-13.7-16.9c-0.7,0-1.1,0.1-1.2,0.1l-0.2,0.1v39.5h8.9V227l6.2,15.9h9.1
						v-39.5h-9.1L252.6,220.1L252.6,220.1z"/>
					<path class="st3" d="M136.6,203.4h-22.2h-0.3v0.3c0,0-0.2,4.7,5,5.8v33.5h9.2v-16.8h7.6c4.1,0,6.4-2.6,6.4-7.3v-1.4
						C142.2,206.2,141.8,204,136.6,203.4 M133.1,220.9h-5v-11.5c0,0,2.6-0.1,3.1,0c1,0.1,1.8,0.5,1.8,1.7
						C133.1,211.5,133.1,220.9,133.1,220.9"/>
					<path class="st3" d="M206.4,203.5h-20.5v6.2h5.9V243h9.1v-33.4c0.1,0,0.2,0,0.3,0c1.6,0,2.9-0.5,3.9-1.4
						c1.6-1.7,1.5-4.4,1.5-4.5L206.4,203.5z"/>
					<path class="st3" d="M285.6,203.4h-0.3c-2.4,0-11.5-0.1-13.2,0h-0.4c-2.6,0-4.4,1.2-4.8,3.6c-0.1,0.4-0.1,0.6-0.1,0.6
						c0,0.1-0.6,7.5,0.1,9.6c1.2,3.4,4,4.7,6.4,5.4c0.1,0,0.2,0.1,0.3,0.1c0.2,0,0.3,0.1,0.5,0.2c0.3,0.1,0.5,0.3,0.6,0.4v14.2h-7.2
						v5.3h9.6l0,0c3.4-0.1,5.6-1.6,6.4-4.1c0.2-1.9,0.3-15.2,0.1-17.9c-0.1-1-0.5-1.9-1.5-2.6c-0.4-0.3-0.8-0.6-1.4-0.9
						c-0.5-0.3-1.1-0.5-1.6-0.8c-2-1-4.4-2.1-4.4-4.8v-2.2h6.9c1.4,0,2.5-0.7,3.3-2c0.5-1,0.7-2,0.7-2c0.1-0.6,0-1.2,0-1.6
						L285.6,203.4z"/>
				</g>
				<g>
					<path class="st3" d="M204.9,178.9h1.5c1.4,0,4,0.5,4,3.2c0,1.2,0.1,5.2,0.2,6.7v0.6c0,0.2,0.1,2.1,0.2,2.5
						c0.6,2.3,2.4,3.7,5.2,4h2.5v-14c0-1.2-0.6-2.8-1.6-4.1l-0.2-0.2c1.4-1.6,1.9-3.2,1.9-5.6v-1.4c0-10.9-0.4-13.1-5.5-13.6H196
						v38.5h8.7v-16.6L204.9,178.9L204.9,178.9z M204.9,162.9h1.5h0.2c2.3,0,3.2,0,3.1,4.1c0,3.3,0,3.5-0.1,5v0.3
						c0,0.5-0.2,1-0.5,1.3c-0.2,0.2-0.4,0.3-0.7,0.3h-3.6v-11H204.9z"/>
					<polygon class="st3" points="259.4,156.8 250.8,156.8 250.8,195.3 259.4,195.3 					"/>
					<path class="st3" d="M177.1,195.4h8.8v-32.5c0.1,0,0.2,0,0.3,0c1.6,0,2.8-0.5,3.8-1.4c1.6-1.7,1.5-4.2,1.5-4.4v-0.3h-20.1v6.1
						h5.7V195.4z"/>
					<path class="st3" d="M269.7,195.4h8.8v-32.5c0.1,0,0.2,0,0.3,0c1.6,0,2.8-0.5,3.8-1.4c1.6-1.7,1.5-4.2,1.5-4.4v-0.3H264v6.1
						h5.7L269.7,195.4L269.7,195.4z"/>
					<polygon class="st3" points="166.7,189.2 157.5,189.2 157.5,179.8 163.8,179.8 163.8,171.4 157.5,171.4 157.5,162.8 
						166.7,162.8 166.7,156.8 149,156.8 148.8,195.3 166.7,195.3 					"/>
					<path class="st3" d="M137.8,156.8h-22v0.2c0,0.1-0.3,2.3,1.1,4c0.9,1.1,2.2,1.6,4.1,1.8v32.4h16.4c3.8,0,6.2-3.2,6.2-7.9v-17.9
						C143.6,159.6,143.6,157,137.8,156.8 M134.7,189.2h-4.9v-26.3c3.1-0.1,3.7,0.1,3.8,0.2c1.1,0.4,1.1,2.5,1.1,2.6
						C134.9,168.7,134.7,186.8,134.7,189.2"/>
					<path class="st3" d="M235.2,156.8c-1.9,0-4,0.1-5.7,0.5c-4.3,1-6.3,3.9-6.3,8.6v23c0,5.9,4.3,7.1,10.7,7.1
						c7.7,0,12.2-2.7,12.2-7.4v-24C246.2,156.8,241.1,156.8,235.2,156.8 M232.3,165.5c0-1,0.1-1.8,0.3-2.4l0.2-0.1
						c0.4-0.1,0.8-0.1,1.2-0.1h0.2c2.9,0,3.1,0.9,3.1,6.2v16.2c0,0.5,0,0.9,0,1.4s-0.1,0.9-0.2,1.3l-0.2,0.1c-0.5,0.1-1,0.1-1.5,0.1
						c-1.1,0-1.8-0.2-2.3-0.7c-0.7-0.7-0.7-1.9-0.7-3.3V168C232.3,168,232.3,166.1,232.3,165.5"/>
				</g>
			</g>
		</g>
	</g>
</g>
</svg>
