<?xml version="1.0" encoding="utf-8"?>
<!-- Generator: Adobe Illustrator 21.0.0, SVG Export Plug-In . SVG Version: 6.00 Build 0)  -->
<svg version="1.1" id="Layer_2" xmlns="http://www.w3.org/2000/svg" xmlns:xlink="http://www.w3.org/1999/xlink" x="0px" y="0px"
	 viewBox="0 0 400 400" style="enable-background:new 0 0 400 400;" xml:space="preserve">
<style type="text/css">
	.st0{fill:#961A31;}
	.st1{fill:#F9A11E;}
	.st2{fill:#FFFFFF;}
</style>
<g id="Layer_2_1_">
	<path d="M347.1,124c-11.8-13-37.9-23.6-71.5-30c0.2-3.9,2.5-5.5,6.7-8.4c2.1-1.5,4.6-3.3,7.2-5.6c10.9-10.3-1.9-26-2.4-26.8l-7-8.6
		l1.7,10.9c1.1,7.4-1.6,10.1-9.8,15.8c-1,0.7-2,1.5-2.7,2.3c0.4-5,0.6-10.6-1.1-17.6s-5.1-9.9-5.1-9.9l-0.9,10.1
		c0,0.1-0.7,7.9-11.2,17.4c0.9-1,1.8-2,2.5-3.2c5.1-7.4,3.6-16,2-25.8l-0.4-2c-1.8-10.2,1-16.6,2.8-17.8c1.8-2.1,5.1-5.6,5.1-5.6
		s-1.8-0.8-6.9-0.2c-6.5,0.9-17.6,4.8-17.3,13.8c0.1,3.9,1.4,7.7,2.5,11c1.2,3.5,2.3,6.9,1.3,8.6c-0.8,1.4-3.3,2.4-7.1,3.2
		c-15.4,2.8-27.2,10-33.3,20.4c-2,3.4-3.3,7.1-4,10.9c-38.3,0.1-74.6,4.9-102.7,13.6c-31.5,9.8-48.9,23.1-50.2,38.4
		c-0.7,8.1,2.9,19.7,23.2,31l-0.1,0.2l5.8,2.8l0,0l3.1,1.5l0,0c9.3,4.2,20.3,7.8,32.4,10.7c-4.4,2.4-8.4,5.3-11.9,8.5
		c-19.6,16.1-30.9,40-30.9,65.4c0,22.6,8.8,43.9,24.8,59.9s37.3,24.8,59.9,24.8c40.1,0,74.9-28.4,82.9-67.5
		c6.9-20.5,6-42.4,5.8-50.7c-0.7-18.8,8.6-29.2,14.4-33.9c26.8-3.3,50.4-9.2,68.1-17.1l0,0l2.9-1.4l0,0l6.1-2.9l-0.2-0.2
		c14.2-7.9,22.1-17.2,23-27.1C355,136.5,352.5,130.1,347.1,124 M319.5,140.5c2.4,2.7,2.2,4.4,2.2,4.9c-0.3,3.1-4.1,6.7-10.5,10.1
		l0,0c-13.5,7.1-36.6,12.5-64.2,15.2c1.2-0.7,2.5-1.5,4-2l0.5-0.2c7.9-3.3,16.9-6.9,17.3-20c0.1-2,0.2-8.5,1.3-10.8
		c1.5-3,5.3-7.4,8.6-8.6c0.1,0-5.6-1.1-5.6-1.1c-0.3,0-0.6,0-0.8-0.1c1.9-1.4,3.3-3,4.2-4.7C298.9,127.9,314,134.3,319.5,140.5
		 M77.7,143.7c0.9-10.8,39.9-25.1,102.8-27.3c-5.9,4.4-12.7,12-14.5,24.4l-0.7,4.6c-0.4,2.9-0.9,5.8-2,8.7
		c-2.4,6.3-9.3,11.6-16.5,15.6c-25.4-3.2-46.5-8.6-58.9-15.2l0,0C81.2,150.8,77.4,146.9,77.7,143.7"/>
	<path class="st0" d="M69.9,265.2c2.2,11.2,8.6,24.5,21.3,33.4c3.8,2.7,8,4.8,12.5,6.5c-2.7-4.6-6-9.4-9.2-14.1
		c-6-8.9-12.4-18.2-16.3-28.1c-4.1-10.3-5.2-21-3.4-31.8c-3.3,8.7-5,18.2-5,28.2C69.6,261.2,69.7,263.1,69.9,265.2"/>
	<path class="st0" d="M83.6,260.6c3.7,9.4,9.9,18.3,15.7,27.1c4.6,6.7,9,13.3,12.4,19.9c3.7,0.8,7.6,1.4,11.5,1.7
		c-4.1-5.8-7.6-12.4-10.6-19.9c-11.7-29.2-10-65.4,4.6-86.3c7.5-10.8,16.5-18.1,28.2-24.5c9.9-5.5,16.2-7.1,22.6-10.9
		c6.9-4.1,10.6-11,6-26.4c-1.3-4.6-1.6-8.1-1.3-10.9c-1.6,3.1-2.8,6.6-3.3,10.7l0,0c-0.7,4.4-1,9.2-2.9,14
		c-6.1,16-35.6,24.8-39.5,26c-11.2,3.3-20.2,8.6-27.2,14.8C79.3,214,75.7,241,83.6,260.6"/>
	<path class="st0" d="M206.8,116.2c0.3,1,0.6,2,0.7,2.9c0.7,5.6-0.9,10.1-7.8,11.2c-7.1,1.1-9.5-5-10-10c-0.1-1.8,0.1-3.2,0.2-4.1
		c-1.2,0-2.3,0-3.5,0.1c-2.2,1.3-5.2,3.3-8,6.1c-1.4,3.1-3.1,7.2-0.5,17c4.6,17.3,2.6,27.7-11.2,33.7c-17.7,7.6-29,12.1-44.2,31.1
		c-7.3,9.1-11.2,24.1-11.8,39.2c-0.7,14.7,2.4,30.4,7.5,43.2c3.4,8.6,7.5,16.1,12.3,22.4c4.7-0.2,9.6-0.8,14.3-1.9
		c-5.3-6.1-8.3-13.7-8.8-22.1c-1.8-28.1,13.3-39.8,36.5-58.5l10.4-8.7c41.5-35.2,29.4-71,33.9-101.6
		C213.6,116.4,210.2,116.3,206.8,116.2"/>
	<path class="st0" d="M223.4,116.8c-1.3,6.1-1.9,12.5-2.2,19.1c-1.7,26.7-0.8,56.8-34.6,86.7l-10.2,8.3
		c-22.6,18.1-35.5,29.4-34.6,54c0.3,8.1,3.7,15.2,9.5,20.8c6.3-1.9,12.6-4.6,18.6-8c29.4-16.6,47.8-41.6,54.9-73.4
		c4.5-20.2,4.4-36.6,4.3-49.8c0-6.7,0.8-19.8,0.8-19.8c0.9-8.3,2.2-19.8,11.8-35.1c0.3-0.5,0.7-1,0.9-1.5
		C236.5,117.6,230.1,117.1,223.4,116.8"/>
	<path class="st0" d="M233.3,202.5L233.3,202.5L233.3,202.5c-0.9,4.8-1.2,10.2-1.8,15.5c-0.3,2-0.6,4-0.8,6
		c-0.1,0.6-0.2,1.1-0.4,1.6c-7.4,33.7-26.6,59.8-57.4,77.3c-5.3,3-10.7,5.5-16.1,7.4c9,6,19.6,7.8,26.9,6.8
		c27.7-4.2,41.2-22.2,47.7-41.6c6.7-19.8,6-41,5.7-49.7c-1.1-29.3,21.5-40.1,21.5-40.1C241,184.7,235.2,192.4,233.3,202.5"/>
	<path class="st0" d="M214.8,310.4c-11.3,9.5-23.5,11.5-29.1,12.4c-10.9,1.7-23.8-0.9-35.2-9.9c-0.2-0.2-0.4-0.3-0.6-0.5
		c-4.9,1.3-9.8,2.1-14.7,2.6c11.2,12,25.8,18.8,45.7,20.2c0.1,0,0.2,0,0.3,0l0,0c13.4-5.3,25.1-13.9,34-25.1
		C215,310.3,215,310.3,214.8,310.4"/>
	<path class="st0" d="M111.8,330.5c0.2-6.1-1.5-12.3-4.4-18.3c-6.8-2-13.4-4.8-19.8-8.7c-3.6-2.2-6.9-5.5-9.7-8.6l0,0
		C85.3,310,97.2,322.4,111.8,330.5L111.8,330.5z"/>
	<path class="st0" d="M168.2,339c-11.1-2.5-20.5-6.5-28.7-12.7c-4.3-3.3-8.1-6.9-11.6-11c-4.5-0.1-8.9-0.5-13.3-1.3
		c2.4,6.3,3.7,12.7,2.9,19.4l0,0c10.3,4.7,21.8,7.3,33.9,7.3c5.9,0,11.5-0.7,17-1.8C168.3,339,168.3,339,168.2,339"/>
	<path class="st0" d="M263.1,138.3c-1.9,6.3-8.2,5.6-9.9,2.1c-2.9-5.4-1.8-9.6,1.2-12.5c3-2.9,7.9-4.4,12.6-6.5h0.1
		c-5.5-0.9-11.3-1.8-17.6-2.5c-0.1,0.1-0.2,0.2-0.3,0.3c-0.6,0.7-1.1,1.2-1.7,1.9c-9.9,14.8-11.1,25.8-12.1,34.2l-0.3,2.6
		c-0.6,4.5-0.6,10-0.5,16.5c0,0.9,0,1.8,0,2.7c-0.1,2.2-0.2,4.5-0.3,6.7c0.1,0,0.1,0,0.1,0c0.1-0.9,0.1-1.2,0.1-0.7
		c2.8-8.8,7.9-14.3,15.2-17.2c7.8-3.2,15.5-6,15.9-17.4c0.2-4.7,0.5-9.5,1.6-11.9c2-4.4,5.5-5.6,5.5-5.6
		C269.1,130.7,265,132.3,263.1,138.3"/>
	<path class="st1" d="M272.6,93.4c0.6-7.6,7.7-9,14.7-15.6c8.9-8.5-2.7-22.6-2.7-22.6c1.5,9.5-3,13.1-11,18.8
		c-2.5,1.8-4.4,4.3-4.6,7.4c-0.3,3.5-0.6,7.3-1.3,11.2C269.3,92.9,270.9,93.2,272.6,93.4"/>
	<path class="st1" d="M248,80.2c-2.1,1.6-4.2,3.3-6,4.9c-1.3,1.3-2.6,2.5-3.8,3.8c7.8,0.7,15.4,1.6,22.8,2.6
		c4.6-8.6,7-18.2,4.2-34.8C265.1,56.8,264.4,68,248,80.2"/>
	<path class="st1" d="M204.2,87.3c8.9,0.1,17.8,0.5,26.3,1c0.3-0.3,0.6-0.6,0.8-0.8c5.8-6.1,14.7-11.4,19.4-18.3
		c4.7-7,2.9-15.4,1.1-25.7c-3.1-17.7,4.5-21,4.5-21s-15,2-14.7,10.7C242,44.8,254,55.7,236,59c-19.8,3.6-32.1,14.3-34.8,28.3
		C202.2,87.3,203.1,87.3,204.2,87.3"/>
	<path class="st2" d="M204.1,92c-82.8-0.8-151.9,20.5-154.3,47.8c-0.9,10.9,8.8,20.9,26.1,29.3c10.7,5.1,24.4,9.6,40.1,13
		c3.2-1.4,6.4-2.7,9.9-3.7c2.7-0.8,7.8-2.5,13.4-4.9c-23.2-3.3-41.9-8.6-53.6-14.9c-8.6-4.6-13.1-9.8-12.6-15.2
		c1.6-18.2,59.6-32.5,129.5-31.8s125.3,16.1,123.7,34.3c-0.5,4.9-5,9.7-13,13.8c-14.6,7.7-40.4,13.6-71.8,16.4c-1.1,1.5-2,3.2-2.8,5
		c14.2-5.4,30.7,2.6,30.7,2.6s1.1,0.5,1.9,0.9c20.8-3.7,38.7-9,52.1-15.3c15.8-7.5,25.5-16.6,26.3-26.5
		C352.2,115.5,286.9,92.8,204.1,92"/>
</g>
</svg>
