<?xml version="1.0" encoding="utf-8"?>
<!-- Generator: Adobe Illustrator 24.3.0, SVG Export Plug-In . SVG Version: 6.00 Build 0)  -->
<svg version="1.1" id="Layer_2_1_" xmlns="http://www.w3.org/2000/svg" xmlns:xlink="http://www.w3.org/1999/xlink" x="0px" y="0px"
	 viewBox="0 0 400 400" style="enable-background:new 0 0 400 400;" xml:space="preserve">
<style type="text/css">
	.st0{clip-path:url(#SVGID_2_);fill:#BC2126;}
</style>
<g>
	<defs>
		<rect id="SVGID_1_" x="50" y="50.6" width="300" height="298.8"/>
	</defs>
	<clipPath id="SVGID_2_">
		<use xlink:href="#SVGID_1_"  style="overflow:visible;"/>
	</clipPath>
	<path class="st0" d="M250.5,339.2c0.2,0.3,0.4,0.7,0.5,0.6c0.8,0,2.3-0.3,2.3-0.3l1.5-0.7l4.4-1.7c0,0,10.9-5.2,11-5.2
		c0,0,1.9-1,1.9-1l1-0.4l1.2-0.8l1.9-1.2l2.3-1.3l3-1.9l5.2-3.6l2.5-2l3.6-2.6l3.3-2.4l1.6-1.1l2.2-2l2.3-2.3l3.6-3.9l4.2-4.1
		l4.9-5.6l2.7-3.6l0.9-1.3l2.9-3.6l5.6-8.1l1.6-2.7l3.8-7.5l2.2-4.1l3.6-7.4l2-4.5l2.1-6.9c0,0,2.5-9.1,3.9-13.9
		c0.2-0.5,0.2-1-0.1-1.5c-0.8-1.1-1.4-2.5-2.1-3.7c-0.4-0.6-0.9-1.3-1.3-1.8c-0.4-0.5-1.3-1.8-1.7-2.2c-0.4-0.5-0.9-0.9-1.4-1.2
		c-1.2-1.1-2.2-2.2-3.2-2.9c-0.5-0.3-0.9-0.6-1.3-0.9c-3.1-2.4-6.2-4.2-9.7-5.8c-1.5-0.6-3-1.2-4.5-1.7c-1.1-0.4-2.8-0.8-3.9-1
		c-0.6-0.1-1.2-0.1-1.7,0.2c-0.5,0.3-0.5,1.1-0.6,1.8c-0.2,1.9-0.3,4-0.4,5.9c-0.2,2-0.3,3.9-0.5,5.9c-0.2,1.8-0.3,3.6-0.4,5.3
		c-0.3,2.4-0.6,4.7-1.1,7c-0.8,4.4-1.8,8.7-2.7,13c-0.2,1.2-0.4,2.4-0.9,3.6c-0.8,1.8-1.4,3.7-1.7,5.7c-0.8,4.1-2.3,8-3.7,11.9
		c-1.1,3.2-2.3,6.4-4.1,9.3c-0.1,0.2-0.2,0.4-0.3,0.6c-0.9,2-1.7,4-2.6,6c-0.6,1.3-1.4,2.5-2,3.7c-0.7,1.6-1.6,3.1-2.5,4.6
		c-1.5,2.4-3.1,4.6-4.4,7.1c-0.9,1.7-2,3.3-3.1,4.9c-0.3,0.4-0.6,0.8-0.8,1.2c-0.9,1.3-1.7,2.7-2.7,4c-1.9,2.4-3.9,4.8-5.9,7.2
		c-1.2,1.5-2.6,2.8-4,4.2c-1.2,1.3-2.4,2.6-3.6,3.8c-0.2,0.3-0.6,0.5-0.9,0.7c-0.7,0.6-1.5,1.2-2.2,1.9c-1.6,1.6-3.2,3.1-5,4.3
		c-0.8,0.5-1.6,1.1-2.3,1.7C255.1,336.6,252.9,337.9,250.5,339.2"/>
	<path class="st0" d="M348,222.3c0.1,0,0.1-0.1,0.1-0.3c0-0.4,0.1-1,0.1-1l1.1-9.5l0.6-8.9l0-8.8l0-1.4l-1-10c0,0-1.2-9-2.2-13.7
		c-0.3-1.6-1.4-2.5-2.7-3.1c-0.5-0.2-0.9-0.5-1.4-0.6c-1-0.3-2.1-0.8-3-1c-2.3-0.6-4.4-1.3-6.7-1.7c-2.7-0.5-5.4-0.7-8.2-1
		c-2.3-0.2-4.5-0.3-6.8-0.3c-1.8,0-2.9,0-4.7,0c-1,0-2,0-2.4,0.6c-0.4,0.6-0.1,1.7,0,2.7c0.3,2.2,0.7,3.3,1.1,5.5
		c1.1,6.4,2.2,12.8,2.5,19.4c0.1,2.9,0.3,5.9,0.4,8.8c0,0.8,0,1.4,0,2.2c0,0.5,0.1,1.1,0.4,1.4c0.3,0.4,0.7,0.5,1.1,0.6
		c0.6,0.2,1.1,0.2,1.6,0.4c0.6,0.2,1.6,0.4,2.3,0.6c2.6,0.8,5.4,1.8,7.9,2.8c1.8,0.7,3.5,1.8,5.2,2.7c0.2,0.1,0.4,0.2,0.6,0.4
		c1,0.7,2,1.5,3,2.2c2.3,1.7,4.8,3.4,6.6,5.8c0.3,0.4,0.8,0.9,1.2,1.3c0.7,0.6,1.9,2.9,2.8,3.9C347.8,222.3,348,222.3,348,222.3"/>
	<path class="st0" d="M281.1,115.6c0.9,0,1.7-0.1,2.4-0.2c0.5,0,1-0.1,1.2-0.6c0.2-0.5-0.2-1.1-0.3-1.3c-0.2-0.4-1.9-3.5-1.9-3.5
		l-1.7-2.6l-7-10.2l-1.5-1.7l-1.4-1.8l-2.3-2.6l-5.7-6.2l-2.5-2.4l-8.8-8.2l-7.2-5.6l-2.6-1.4l-8.5-5.2l-5.9-3.2l-1.1-0.5l-4.8-1.8
		l-7.2-2.7l-0.6-0.1l-2.3-0.6l-0.6-0.1l-2-0.5l-4.3-0.8l-2-0.1l-3.8-0.7l-4.6-0.3l-1.6-0.2l-2.9,0l-4.8,0.1l-4.7,0.5l-3.7,0.1
		l-3.2,0.4l-3.3,0.7l-2.5,0.8l-4.1,0.8l-0.9,0l-3.8,1.4l-2.3,0.6l-1.4,0.8l-3.3,0.9l-1.6,0.9l-2,0.8l-4.9,2.1l-6.3,2.4l-2.1,1
		l-4.4,2.4l-3.8,2.5l-3.6,1.9l-1.3,0.8l-3.9,2.1l-0.6,0.4l-4.5,3.5l-3.7,2.5l-0.7,0.5l-4.2,3.3l-1.5,1.3c0,0-2.2,1.9-2.3,2.2
		l1.6-0.5c0,0,2.9-1.1,2.9-1c0.1,0,0.6,0.1,0.6,0.1l4.1-1.7h0.6l4.5-1.8c0,0,2.4-0.8,2.4-0.7c0,0.1,2.4-0.9,2.4-0.9l3.4-1.2l8.1-3.1
		l0.7,0l4.2-1.5l3.3-1.3l0.5,0.3c0,0,6.3,0.2,6.4,0.2l4,0.3l0.1,0.1l8.2,0.7l0.1-0.1l11.3,0.6l0.1,0.3l4,3.4l0.3,0l4.1,4l0.4-0.2
		L184,84l0.3-0.2l14.2,0.8l0.1,0.3l6.3,3.6l0.3,0l11.1,5.4l0.1,0.6l6.3-2.5l9.3,3.1l1.6,2.6l3.4,0.2l3.3,3.7l0.3,0l2.6,3l0,0.2h0.4
		l7.3,1.7l2.7,4.2l6.8,2.4c0,0,7.3,1.9,11,2.3C274.6,116,278.5,115.8,281.1,115.6"/>
	<path class="st0" d="M344.1,158.5c-0.2-1.1-1-3.2-1-3.2l-0.4-1.2l-0.4-1.4l-1.2-3.6l-1.1-3.1l-3.5-7.7l-1.6-3.8l-2-4.4l-2.4-3.9
		l-0.5-1.1l-1.6-3.2l-1.5-2.4l-0.6-0.8l-10.1-13.7c0,0-1-1.2-1.5-1.7c-0.2-0.3-0.3-0.5-0.6-0.5c0,0,0,0-0.1,0c0,0-3.1,5.1-4.4,6.5
		c-1.3,1.4-3.9,3.8-3.9,3.8s-2.2,1.8-2.6,2.1c-0.4,0.3-2.1,1.4-2.1,1.4l-2.3,1.3c0,0-1.7,0.8-2,0.9c-0.3,0.1-0.6,0.2-0.8,0.5
		c-0.2,0.2-0.2,0.4-0.2,0.8c0.1,0.3,0.2,0.6,0.3,0.9c0.9,1.9,1.8,3.9,2.8,5.9c1.6,2.8,2.5,5.9,3.8,8.8c0.4,1,0.8,2,1.2,3
		c0.9,2.6,1.7,5.3,2.5,7.9c0.3,1.2,0.7,2.3,1.1,3.5c0.3,1.2,0.6,2.3,0.9,3.5c0.2,0.8,0.7,1.1,1.5,1.1c0.8,0,1.5,0,2.3-0.1
		c2.7-0.1,5.4-0.2,8.1-0.2c0.8,0,6.2,0.5,6.2,0.5s1.9,0.2,2.9,0.4c2.1,0.4,4.1,0.8,6.2,1.3c1.7,0.4,3.5,1,5.1,1.7
		c0.8,0.4,1.6,0.6,2.5,0.8c0.3,0.1,0.7,0.1,0.7,0.1C344.1,158.9,344.2,158.6,344.1,158.5"/>
	<path class="st0" d="M308.7,98c-0.1-0.4-0.8-1.5-0.8-1.5l-0.5-0.9l-1.5-1.7l-1-1.4l-1.8-1.8c0,0-0.4-0.3-0.6-0.5
		c-3.2-2.6-9.7-7.8-9.7-7.9c0,0-1.8-1.4-1.8-1.4l-3.3-2.9l-16.8-10.1l-13.2-6.3c0,0-7-2.8-7-2.7c0,0-2.6-0.9-2.6-0.9
		c0,0-8.6-3-8.6-3l-6.1-1.5l-5.9-1.3l-0.9-0.1l-0.5,0.5l0.2,0.3c0,0,0.6,0.3,0.9,0.4c1.8,0.7,3.7,1.4,5.5,2.1
		c1.2,0.5,2.3,1.1,3.6,1.5c0.9,0.3,1.6,0.6,2.4,1c2.8,1.6,5.6,3.3,8.4,4.9c1.7,1,3.2,2.2,4.6,3.5c1.1,1,2.2,2,3.5,2.7
		c0.6,0.3,1.1,0.8,1.6,1.3c0.3,0.2,0.6,0.5,0.9,0.7c1.6,1.3,3.4,2.5,4.9,4.1c1.5,1.7,3.2,3.3,4.8,4.9c1.5,1.5,3.1,3,4.4,4.8
		c1.1,1.4,2.2,2.8,3.5,4.1c2.4,2.4,4.3,5.3,6.5,7.8c0.3,0.3,0.4,0.7,0.7,1.1c1.4,2.2,2.7,4.6,4.4,6.7c1.2,1.4,2.3,3,3.1,4.7
		c0.5,1,1.2,2,1.9,2.9c0.4,0.5,1,0.8,1.3,0.8c0.3,0,0.9-0.3,0.9-0.3l1.2-0.5c0,0,1.6-0.7,2.1-0.9c0.5-0.3,1.6-0.8,1.9-1.2
		c0.4-0.3,2-1.4,2.9-2.3c0.9-0.8,2.7-2.9,2.7-2.9l1.3-1.7l2.2-3.7C308.4,99.3,308.8,98.4,308.7,98"/>
	<path class="st0" d="M301.7,153.9c-0.9-2.8-1.6-5.4-2.6-8.2c-0.8-2.3-1.4-4.6-2.5-6.7c-0.6-1.3-0.9-2.7-1.4-4.1
		c-0.3-0.7-0.6-1.3-0.8-2c-1.2-3.5-2.9-6.4-4.6-9.7c-0.1-0.2-0.2-0.3-0.3-0.6c-0.2-0.3-0.3-0.6-0.7-0.8c-0.4-0.2-0.8-0.1-1.5,0
		c-1.4,0.2-3.2,0.3-4,0.3c-0.7,0-3.5,0.2-5.7,0.4l-0.5-0.2h-1.4h-1.3l-7.3-0.9c-2.6-0.4-8.7-1.9-8.7-1.9l-4.4-1.5l-5.5-1.9l-0.4,0.2
		l-8.5-0.7l-0.3,0.2l-4.8-3.7l-0.5,0l-3-2.7l-0.1-0.6l-3.3-0.5l-0.3,0.1l-2.7-0.9l-0.3-0.3l-6.3,0.5l-5.7-2.3l-19.7,1l-0.3-0.2
		l-3.7,0.3l-0.4,0.3l-9.7,0.7l-0.3-0.2l-13.8,8l-0.2,0.6l-0.6,0.6l-0.3-0.2l-6.9-0.6l-0.4,0.2l-12.3,0.1l-0.3-0.1l-3.5-0.1l-1.1-0.6
		l-12.9,10l0,0.3l-4.5,3.6l-5.1-2.4l-0.3,0.1l-1.9-0.6c0,0-9.3,2.3-9.2,2.4c0.1,0-8.6-1.4-8.6-1.4l-0.6-0.5l-1.6,1.7l-3.5,1.7
		l-0.1,0.3l-6.9,5.3l-9.8,7.1l-11,8.2l-5,3.6l-0.3,2.1l-2.1,4.8l-0.9,4.2l-1.4,8.4l-0.8,3.7l-0.3,4.4l-1.2,9.1l-0.5,20l0.5,1.2
		l0.3,5.5c0,0,0.1,1,0.3,1c0,0,0,0,0,0l24.5-25.3l8-3.3l6.7-0.3l4.1-4.7l0.4-0.9l0.5,0.2l11-1.2l0.5-0.3h4.1l0.6,0.2l1.3-1.8
		l4.9-3.1l5.3-3.6l14.8,0.2l0.1,0.3l5.8,0.6l4.5-0.9l8.3-8.5l0.2,0l6.6-6.3l9.9-1.3l0.4-0.3l0.4,0.4l5.1,2.4l0.4-0.3l4.5-0.6
		l0.2-0.3l4.3-0.7l0.4-0.2l4.7,4l0.3-0.3l9.6-0.2l0.8-0.6l7.7,0.4l0.4,0.1l1.2-0.3l0.2-0.3l3.1-1.4l0.4,0l3.5-1.6l0.3-0.3l3.8-1.4
		l0.3-0.4l10.5-4l0.1-0.2l1.9-0.6l0.4-0.4l0.5,0.6l3.1,1.5l0.9,0l3.4,1.9l0.2-0.3l1-0.5l0.1,0l1.7-0.8l0.1-0.1l2.4-0.6l6.3,1.6
		l1.3-0.3l1.1,0.8l4.6,0.7l4.5,1.7c0,0,2.6-0.2,2.6-0.2c0,0,0.8,0.6,0.8,0.6l0.7-0.4c0,0,8.9-1.1,13.3-1.5c2.9-0.2,5.8-0.5,8.7-0.8
		c1.6-0.2,3.2-0.3,4.9-0.5C301.6,155.3,302,154.9,301.7,153.9"/>
	<path class="st0" d="M308.2,199.4c0-0.6-0.1-1-0.1-1.6c-0.1-1.7-0.2-3.4-0.3-5.1c0-0.6-0.1-1.2-0.1-1.7c-0.1-2.1-0.2-4.2-0.4-6.4
		c-0.3-2.7-0.7-5.4-1.1-8c-0.3-2.1-0.7-4.2-1.1-6.2c-0.4-2.2-0.7-4.1-1.2-6.3c-0.5-2.2-0.9-2.5-3.2-2.2c-0.2,0-0.4,0-0.6,0.1
		c-0.8,0.2-2,0.3-2.8,0.4c-4.4,0.6-8.4,0.8-12.8,1.3l-12.5,4.4l-18-0.5l-2-0.6v0.3l-5.3,3.9l-0.7,0.1l-4.2,3.9l-0.2,0.6l-10.8,1.4
		l-9.9,7.6l-1,0l-5.3,3.1l-2.1,0.2l-2.1,1.7l-0.5-0.4l-10.1-0.7l-1.7,2l0,0.3l-8.7,9.5l-0.1,0.5L189,201L178,213.6l-3.1,0.1
		l-0.2,0.3l-9.1,1.6l-0.7,0c0,0-0.2,0.4-0.2,0.4c-0.1,0-15,8.3-15,8.3l-6.7-0.8l-1.4,0.5l-6.7-0.4l-6.6,7.2l-4,0.8l-2.3-0.1l-2.3,1
		l-1.4-0.2l0.1,0.3L110,239l-0.8,0.1l-12.9,10l0.1,0.6l-8,19.3l0.3,0.8l-13.2,1.2l-4.3,3.7l-0.4,1.4l5.9,8.1l4.3,6.6l3.7,4.8
		l6.1,6.6c0,0,0,0.5,0.2,0.5c0.1,0.1,0.8,0.1,0.8,0.1c0,0,3.6,1.2,3.7,1.2c0,0,4.5,1.4,4.5,1.4s0.1,0.2,0.1,0.2c0,0,0.4-0.1,0.4-0.1
		l7.4,2.9l0.6,0l0.4,0.5h0.7c0.1,0,1.8,1.2,1.8,1.2l3.1-1.7l0.2,0l1.4-0.9l11.3,2.8l8.3-4.2l18.4-1.8l7.5-12.1
		c1.2-1.2,3.4-3.4,3.4-3.4l0.3,0c0,0,2.6-2.4,2.6-2.4c0-0.1,0-0.3,0-0.3l4.7-4.3l2.2-2.3c0,0,0.5-0.3,0.5-0.3c0.1,0,2.5-2.6,2.5-2.6
		l2.1-2.1l0.5-0.1l-0.5-1.9l2.1-7.8l4.1-1.2l0.2-0.2l1.2-0.3l0-0.7l5.5-9l0.5-0.2l2.3-4.4l3.8-2.1l0.5-0.6l0.7,0.1
		c0,0,2.2-1.3,2.3-1.3h0.2l4.1-1.8l0.3-0.5l13.5-6.2l0.8-0.1l0.2-0.7l0.5-0.4l1.4-4.7l4.3-1.8l4.9-0.6l4.5-3.1l6.4,0.3l0.6,0.5
		l0.3-0.4l8.9-4l0-1.2l2.2-4.1l4.4-1.2l0.2-0.3l6-1.3l2.3-2.7l0.3-0.1c0,0,1.4-1.3,1.4-1.4c0,0,4.1,0.6,4.1,0.6l0.2,0.2l2.3,0.3
		l1.4,0.2c0,0,6.1-2.8,8.6-3.8c1.1-0.4,2.1-0.7,3.1-1c1.4-0.5,2.8-1,4.2-1.5c0.7-0.2,1.4-0.4,2.1-0.6l2.8-0.5l3.3-0.6l2-0.1
		c0,0,1-0.1,1.3-0.2c0.3-0.1,0.9-0.1,1.4-0.4c0.4-0.4,0.4-0.8,0.5-1.2C308.2,200.1,308.2,199.9,308.2,199.4"/>
	<path class="st0" d="M308.1,211.2c0-0.5,0.1-1.3-0.3-1.7c-0.4-0.4-0.9-0.5-1.2-0.5c-0.3,0-1.9,0.2-1.9,0.2l-2.6,0.4
		c-0.3,0-0.6,0.1-0.9,0.2c-1.6,0.4-3.1,0.7-4.7,1.1c-1.7,0.5-3.5,1-5.1,1.7c-1.7,0.8-3.7,1.4-5.4,2.2c-0.6,0.3-6.4,3.1-9,4.4
		l-3.4,3.6l-0.1,0.8l-0.4-0.2l-2.1,0.1l-0.1,0.2l-6.9,2.3l0,0.8l-0.7,0.7l0,0.4l-3.2,5.7l-0.4,0l-0.1,0.6c0,0-0.6,1.1-1.4,2.3
		l-14.5,9.3l-0.3,0l-2.2,1.8l-1.5,6.1l-1.4,1.4l-5.7,20.9l0.8,2.4l-8.4,4h-1.4l-1.6,7.3l-0.3,0.2l-2.1,6.6l0.1,0.4l-0.8,5.7
		l-0.3,0.4l0.3,0.5l-8.1,12.8l-0.6,0.2l-2,3.1l-0.1,0.6c0,0-6.9,9.7-6.9,9.7c0,0-7.3,4.3-7.3,4.3l0.4,0.6c0,0.1-0.4,2.9-0.4,2.9
		l0.6,1.1l-1,0.3l-5.3,3.1l-0.5-0.1l-7.7,4.6l-0.9,1.4c0,0.1,3,0.4,3,0.4l5,0.4l3.4,0.2l4,0.1l1.8,0.1l3,0.1l3-0.1l10.8-1.3l6.4-1.1
		l4.8-1.3l5.3-1.5l6.7-2.7l0.5-0.3l1.9-1.1c0,0,5.4-2.9,7.9-4.7c4.2-3.2,8.4-6.3,12.2-9.9c1.3-1.2,2.6-2.5,3.9-3.8
		c1.2-1.2,2.4-2.4,3.7-3.6c0.2-0.2,0.5-0.4,0.6-0.7c0.4-1,1.2-1.7,1.9-2.4c0.5-0.5,1-1,1.4-1.7c0.8-1.3,2.1-2.2,3.1-3.3
		c0.9-0.8,1.7-1.8,2.4-2.8c1.3-1.8,2.5-3.7,3.7-5.5c1.6-2.5,3.4-4.8,4.8-7.4c1.5-2.8,2.9-5.5,4.5-8.2c1.3-2.3,2.7-4.6,3.7-7.1
		c1.7-4.1,3.4-8.1,5-12.2c1.7-4.4,3-8.8,4.2-13.3c0.9-3.4,1.4-6.8,2.6-10.1c0.2-0.4,0.2-0.9,0.3-1.3c0.5-2.8,0.9-5.5,1.4-8.2
		c0.4-2.6,0.8-5.2,1.1-7.8c0.3-1.8,0.6-3.5,0.7-5.3c0.2-2.5,0.3-4.9,0.4-7.4c0-0.3,0-0.8,0-0.8S308,211.7,308.1,211.2"/>
</g>
</svg>
