<?xml version="1.0" encoding="utf-8"?>
<!-- Generator: Adobe Illustrator 21.0.0, SVG Export Plug-In . SVG Version: 6.00 Build 0)  -->
<svg version="1.1" id="Layer_2" xmlns="http://www.w3.org/2000/svg" xmlns:xlink="http://www.w3.org/1999/xlink" x="0px" y="0px"
	 viewBox="0 0 400 400" style="enable-background:new 0 0 400 400;" xml:space="preserve">
<style type="text/css">
	.st0{fill:#CD1F43;}
	.st1{fill:#FFFFFF;}
</style>
<g id="Layer_2_1_">
	<path d="M353.1,117.7c-1.2-21.5-10.9-40.8-16.6-52.3l-0.7-1.4l-2.5-5l0.5,5.6c0.7,7.7,2.4,34.1-5.5,49.1
		c-9.8,20.2-38.4,18.3-47.8,17.6l-0.7-0.1c-15.5-1-65.8-2.9-81.2-2.8c-20.4,0.1-42.9,1.7-61,3.1c-8.8,0.7-16.5,1.2-21.6,1.4
		c-0.4,0-1,0.1-1.9,0.2c-25.3,2.3-41.4-5.1-47.6-22.2c-3.8-10.5-3.7-31.2-3.7-41.2v-2.9v-4.2l-2,3.7c-4.8,8.8-13.6,25.2-16.6,52.4
		c-1.6,32.1,15,43.5,27.7,49.4c13.2,6.1,26.7,7,31.2,7.3h0.3h-0.1c1,0.2,2,0.2,3,0.3c1.4,0.1,2.9,0.2,4.3,0.4
		c-2.4,0.4-5.5,1-8.3,1.5c-2.9,0.5-5.7,1-7.2,1.3c-3,0.6-15.7,3.6-22.7,6c-5.9,2-12.1,4.9-12.2,5l-1.1,0.5l0.8,1
		c0.1,0.1,2.2,3,4.4,5.2c4.5,4.4,17,12.3,32.1,10.5c12-1.5,18.5-4.3,21-5.6c0.8,2.6,2.7,8.6,4.5,13.3c5.5,13.5,17.8,39.3,22.5,48.2
		c3.8,7.3,7.5,13.7,9.9,17.9l0.9,1.6c-0.8,2.8-2.8,4.5-4.2,5.8c-0.4,0.3-0.7,0.6-1,1l-0.3,0.3v0.4c-0.1,2.5-0.7,24.9,14.5,41.3
		l0.2,0.2l0.3,0.1c7.6,2.9,17.5,5.9,33.4,5.9c16.3,0,29.9-3.9,34.8-6.3l0.2-0.1l0.2-0.2c10.6-12.5,15.5-31.5,15.6-38.3V292l-0.3-0.3
		c-0.3-0.3-0.5-0.5-0.9-0.8c-1.6-1.6-3.7-3.5-4.8-8.2c1.3-2.2,3.8-7.5,5.9-11.9c1.1-2.4,2.2-4.5,2.7-5.5
		c4.5-8.7,17.6-36.9,22.8-50.2c3.3-8.4,5.1-12.6,6-14.4c2.3,1.2,8.5,4,20.2,5.2c15.2,1.6,29.7-8.7,33.7-14.2c0.7-1,1.8-2.2,1.8-2.2
		l1-1l-1.3-0.6c-0.1,0-0.6-0.3-2.9-1l-8.4-2.9l-8.4-2.9c-2.2-0.8-12.5-3-20.1-4.7l-5.7-1.2l1.8-0.3
		C309.6,171.6,355.7,163.5,353.1,117.7"/>
	<path class="st0" d="M48.3,108.5c2.5-13.1,6.7-25.3,12.5-37.1l0.1-0.2H61h0.1v0.3v-0.3h0.3v0.3c-0.2,3.5-0.3,7.1-0.3,10.8
		c0,8.7,0.6,17.5,2.5,25.4l0.2,0.8l-0.6-0.5c-2.5-2.2-5-4.8-7.6-7.1c-2.3,2.6-4.5,5.4-6.8,7.9l-0.6,0.6L48.3,108.5z"/>
	<path class="st0" d="M348.6,103.1l-0.3,0.1L348.6,103.1c-3.4-11.1-6.3-22.2-11.9-32.4l-0.4,0.1c0.2,3.5,0.3,7,0.3,10.5
		c0,8.5-0.7,16.8-2.1,24.9l-0.1,0.4l0.4-0.2c2.7-1.3,5.3-3,8-4.2l6.7,4.8L348.6,103.1z"/>
	<path class="st0" d="M240.4,221.5l-0.5,0.3c-3.8,1.6-7.6,3.3-11.7,4.2c-2.7,0.7-5.4,1-8,1c-8.3,0-16.2-3.5-21.1-10.9l-0.2-0.3
		l-0.2,0.2c-1,0.9-1.6,1.9-2.6,2.9c-5.2,6-12.8,8.3-20.5,8.3c-6,0-12.1-1.4-17.2-3.5l-0.5-0.3l0.2,0.5c3.9,10.4,6.3,21.9,6.3,33.4
		c0,5.2-0.5,10.4-1.6,15.5c-0.7,3.5-1.9,7.3-2.9,10.8l-0.2,0.5l0.5-0.3c11-5.9,24.5-8.8,38-8.8c12.7,0,25.4,2.7,36,8
		c1.7,0.7,3.4,1.9,4.9,2.4l0.4,0.2l-0.2-0.4c-3.1-9.1-4.9-18.8-4.9-29c0-0.2,0-0.3,0-0.4c0-0.7,0-1.3,0-1.9c0-11.1,2.3-22,5.6-31.8
		L240.4,221.5z"/>
	<path class="st0" d="M132.4,232.2c-1.2-1.5-2.2-3-2.5-4.9l-0.1-0.6l0.5,0.3c2,1.3,4.2,1.8,6.4,1.8c4.6,0,9.4-2.2,13.1-4.8l0.2-0.1
		l0.2,0.2l0.1,0.1l-0.2,0.2l0.2-0.2l0.1,0.1v0.1c-0.5,4.7-2.2,10.1-7.2,11.9c-0.8,0.2-1.5,0.3-2.2,0.3
		C137.6,236.5,134.8,234.6,132.4,232.2"/>
	<path class="st0" d="M249.7,230.4c-1-1.6-1.6-3.3-2-5.3l-0.1-0.6l0.5,0.4c2.5,2,5.6,2.8,8.8,2.8c3.7,0,7.6-1.2,10.6-3.1l0.6-0.3
		l-0.3,0.7c-1.5,4.2-5.2,8.7-9.7,9.6c-0.4,0.1-0.8,0.1-1.1,0.1C254.1,234.5,251.4,233,249.7,230.4"/>
	<path class="st0" d="M255.4,236.6c0.6,0.1,1.2,0.2,1.7,0.2c1.7,0,3.4-0.4,5-1l0.5-0.2l-0.2,0.5c-6.2,15.5-13.7,30.5-21.4,45.3
		l-0.3,0.5l-0.2-0.5c-1.6-4.2-2-8.8-2-13.4c0-3.4,0.3-6.8,0.4-10.3c1.1-9.9,3.5-19.6,6.5-28.8l0.2-0.5l0.3,0.5
		C248,232.4,251.5,236,255.4,236.6"/>
	<path class="st0" d="M157.7,281.5c-9.3-14.3-16.4-29.3-23.3-44.6l-0.3-0.7l0.6,0.3c1.8,1,4.3,1.8,6.7,1.8c1.6,0,3.1-0.3,4.4-1.2
		c3-2.1,4.8-5.4,6-8.7l0.2-0.5l0.3,0.5c5.1,10.4,7.6,23,7.6,35.5c0,5.9-0.5,11.8-1.6,17.4v0.1l-0.1,0.1l-0.3,0.3L157.7,281.5z"/>
	<path class="st0" d="M165.9,329.2L165.9,329.2L165.9,329.2c-9.6-10.5-13.1-23.9-13.7-38.2v-0.1l0.1-0.1
		c12.5-9.1,29.2-13.9,45.8-13.9c10.8,0,21.5,2.1,30.9,6.4c6,2.7,11.8,5.6,17,9.9l-0.2,0.2l0.2-0.2l0.1,0.1v0.2
		c-1.6,13.3-6.4,25.3-14.8,35.6v0.1h-0.1c-10,3.9-21.9,6.1-33.7,6.1C186.4,335.1,175.3,333.2,165.9,329.2"/>
	<path class="st0" d="M333.2,188.9c0,0-5.9-2.2-7.4-2.9c-16.1-6.1-36.9-9.8-54.5-10.2c-1.7-19.6-4-31.9-7.8-43l-0.1-0.2h-0.2
		c-9.1-0.5-49.4-2.2-65-2.2s-55.1,2.4-64.2,2.9h0l-0.1,0.2c-3.6,10.6-7.8,23.7-9.8,43.2c-17.8,1.1-41.8,6.2-57.9,12.3
		c-1.1,0.4-2,0.9-2.6,1.1c-0.3,0.2-0.5,0.3-0.7,0.3c0,0-0.1,0-0.1,0.1l-0.5-0.5l0.2,0.9c0,0.1,0,0.1,0.1,0.1
		c2.5,2.8,11.6,13.7,28.5,14.1c0.3,0,0.6,0,0.9,0c5.5,0,14.9-1,21.1-3.8c1.6-0.7,4.5-1.9,5.3-2.2c0.3,0.6,1.2,2.2,1.6,3.5
		c1.8,5,4,12.3,5.5,15.4c2.3,4.7,6.1,8.5,12.4,8.6c0.1,0,0.2,0,0.3,0c5.6,0,9.4-4.5,10.1-5.5l0.3-0.3h-0.4c-15.6-0.8-22-9.1-23-21.5
		v-0.2H125c-1.8-0.3-3-0.6-3.7-1s-1-0.9-1.3-1.8c-0.1-0.4-0.2-0.9-0.2-1.3c0-1.6,0.6-3.2,1.7-5.1c1.2-1.6,3-3.2,6.5-3.2
		c1.5,0,3.2,0.3,5.4,1c4.8,1.6,8.7,4.7,11.4,7c3.2,2.9,12.6,12.6,18.3,16.1c3.4,2,8.5,3.9,13.7,3.9c4.2,0,8.4-1.2,11.8-4.5
		c7.3-7.1,8.1-13.2,9.1-17l0.1-0.3h-0.3c-12.5-0.3-24.4-1.6-35.3-3.1c-1.3-0.2-1.6-0.7-1.6-1.1c0-0.5,0.6-1.2,1.6-1.2
		c0.2,0,0.4,0,0.6,0.1c0,0,20.7,2.8,35,2.9h0.3v-0.3c0.1-1.7,0.2-4.7,0.3-8v-0.3h-0.3c-8.6-0.2-22.9-1.1-36.5-3.8
		c-1.2-0.3-1.6-1-1.6-1.6s0.4-1,1.2-1.1c0.2,0,0.4,0,0.6,0.1c2,0.5,24.2,3.6,36.2,3.6h0.1h0.3v-0.3c0.1-2.6,0.1-6.2,0.1-9.7v-0.3
		H198c-0.3,0-0.5,0-0.8,0c-7.8,0-19.1-0.8-35.1-3.2c-1.3-0.2-1.8-0.9-1.8-1.3c0-0.5,0.4-1,1.5-1c0.1,0,0.2,0,0.3,0
		c0,0,19.6,2.9,34.9,2.9c0.3,0,0.7,0,1,0h0.3V166c0-2.3,0-5.1,0-7.9V158c0-1.5,0.7-2.1,1.1-2.1c0.4,0,1,0.5,1,1.9
		c0,1,0.1,4.1,0.1,7.8v0.2v0.3h0.3c14.8-0.4,27.8-2.2,33.9-3.3c0.3-0.1,0.7-0.1,1-0.1c1.2,0,1.6,0.5,1.6,1s-0.4,1-1,1.1
		c-2,0.3-19.1,3.6-35.4,4.1h-0.3v0.3c0,2.9,0.1,6.6,0.2,9.7v0.3h0.3c11-0.4,23.6-0.8,34.5-3.2c0.5-0.1,1-0.2,1.3-0.2
		c1.3,0,1.7,0.5,1.7,1s-0.6,1.2-2.2,1.5c-10.6,1.8-26,3.6-35.4,3.7h-0.3v0.3c0.1,2.7,0.1,5.9,0.3,8v0.3h0.3
		c17.5-0.4,34-2.9,36.9-3.4c0.2,0,0.4-0.1,0.6-0.1c1.1,0,1.6,0.6,1.6,1.1s-0.5,1.2-1.8,1.4c-3.1,0.4-23.6,3-36.7,3.4h-0.3l0.1,0.3
		c1.3,4.4,1.6,10.9,8,16.4c3.1,2.7,7.4,3.9,11.8,3.9c4.3,0,8.7-1.2,12.5-3.3c5.8-3.4,14.9-13.3,18.1-16.2c2.7-2.3,8.8-8,17-8
		c0.1,0,0.3,0,0.3,0c4.2,0.1,6.2,1.2,7.4,2.4c1,1.2,1.2,2.5,1.5,3.3c0.2,0.5,0.3,1.2,0.3,1.9c0,1-0.3,2.1-1.3,2.7
		c-1.5,0.9-2.8,0.7-4.3,1.4l-0.1,0.1v0.2c-1,6.8-3.2,14.6-8.6,18.7c-2.9,2.2-6.7,3.5-9.6,4.2c-3,0.7-5.3,0.8-5.3,0.8h-0.5l0.3,0.3
		c0,0,1.3,1.4,1.7,1.8c1,0.9,3.6,2.2,7.2,2.2c0.3,0,0.8,0,1.1-0.1c3.9-0.3,8.3-3.3,10.2-5.2c2.9-3.7,5.5-11.5,7.4-16.4
		c0.7-1.8,2.2-4.8,2.9-6.4c1.6,0.8,2.5,1.2,5.5,2.5c6.3,2.5,14.3,3.6,19.6,3.6c0.3,0,0.6,0,0.9,0c8.7-0.3,18.7-5.5,24.7-11.1
		c1-1,3-3.4,3-3.4l0.2-0.3L333.2,188.9z"/>
	<path d="M207.7,296.6c-1,1.6-1.3,3.4-1.3,5.2c0,2.9,1.1,6,2.8,8.1c0.1,0.2,0.3,0.2,0.4,0.2c0.2,0,0.4-0.1,0.5-0.3v-0.2
		c0-1.7-1.1-3.3-1.1-5.2c0-0.4,0.1-1,0.3-1.4l0.2-0.5l0.3,0.4c1.7,2.9,4.5,4.6,7.4,5.5c1.1,0.3,2.2,0.4,3.4,0.4
		c3.8,0,7.4-1.7,9.9-4.8c1.2-1.6,2.1-3.8,2.1-5.9c0-1-0.2-1.9-0.7-2.9c-1.8-3.5-5.5-5.5-9.2-6.1c-0.6-0.1-1.3-0.1-1.9-0.1
		C215.3,289.3,210.4,291.7,207.7,296.6"/>
	<path d="M186.8,311.3c0.3,0,0.7-0.3,1-0.8c1.4-2.2,2.3-5.1,2.3-7.9c0-1.8-0.4-3.6-1.4-5.2l0.2-0.1l-0.2,0.1
		c-1.5-2.9-4.5-5.1-7.4-6.1c-1.6-0.5-3.4-0.8-5.1-0.8c-4.1,0-8.1,1.6-10.6,4.9c-1,1.3-1.5,2.9-1.5,4.6c0,0.9,0.2,1.7,0.4,2.5
		c1.4,3.7,4.9,6.7,8.7,7.4c0.9,0.2,1.7,0.3,2.5,0.3c4.4,0,8.3-2.2,11.1-6l0.3-0.3l0.2,0.4c0.1,0.3,0.2,0.7,0.2,1
		c0,0.8-0.2,1.6-0.3,2.2c-0.1,1.1-1,2-1,2.8c0,0.3,0.1,0.5,0.3,0.8C186.6,311.3,186.7,311.3,186.8,311.3"/>
	<path d="M166.9,325.9c9.6-4.1,21.1-6.4,32.5-6.4c8.7,0,17.2,1.3,24.8,4.2c1.9,0.9,4,1.5,5.9,2.1c0.5-0.6,0.7-0.8,1-1.3
		c-9.3-4.6-20.4-6.7-31.5-6.7c-11.9,0-23.7,2.4-33.7,6.9C166.3,325.2,166.5,325.5,166.9,325.9"/>
	<path d="M175.2,254.8c5.7,7.2,14.4,10.3,23.1,10.4c3.2,0,6.5-0.4,9.6-1.2c14.6-4.1,23.4-20,26.5-34c-0.4-0.4-0.8-0.5-1.4-0.7
		c-1.8,8.2-5.4,16.3-10.5,23.1c-6.2,7.5-15.3,11.3-24.4,11.3c-3.2,0-6.4-0.5-9.4-1.5c-13.4-4.2-20.3-18.9-21.6-32.2
		c-0.5,0-1,0-1.4,0.3C166.8,239.6,169.5,247.8,175.2,254.8"/>
	<path class="st1" d="M66.4,117c7.7,14.8,23.2,19.6,38.9,18.9c8.8-0.1,17.3-1,26-1.6v0.6c-4.4,12.5-7.3,25.2-9.1,38.2
		c-22.8,0.9-46.2-1-63-16.2c-11.4-11.6-14.4-27.5-11.9-43.3c2.7-3.2,5.5-6,8.4-9.2C59.4,108.4,65.4,111.5,66.4,117"/>
	<path class="st1" d="M349.9,110.3c0.6,2.2,0.7,4.4,0.9,6.8c1.1,17.6-6.5,33.7-21.5,42.6C313,169.6,294,173,274,173.5
		c-0.3-1.8-0.6-4.1-0.8-6.1c-1.6-11.5-3.7-23.2-7-34.3c21.5-0.3,47.7,5.5,61.9-14.4c1.9-2.8,3.8-5.3,5.5-8.2
		c3.2-1.4,6.2-3.5,9.3-5.1C345.3,106.8,347.3,108.8,349.9,110.3"/>
	<path class="st1" d="M268.2,199.1c0.1,6.7-2.1,13.7-8,16.9c-2.9,1.6-6.1,2.2-9.3,2c-0.1-0.6-0.3-1.3-0.1-2.1
		c4.9,0.2,9.6-1.6,12.3-5.7c1.8-3,2.5-6.3,2.5-10C266.3,199.7,267.2,199.3,268.2,199.1"/>
	<path class="st1" d="M146.8,217.4c-0.9,0.2-1.3,0.3-2.9,0c-7.9,0-16.2-6.3-15.7-17c1-0.3,2-0.3,2.9,0.1c0,6.1,2.4,14.4,15.4,14.4
		C147.4,216.2,146.5,216.4,146.8,217.4"/>
</g>
</svg>
