<?xml version="1.0" encoding="utf-8"?>
<!-- Generator: Adobe Illustrator 24.0.1, SVG Export Plug-In . SVG Version: 6.00 Build 0)  -->
<svg version="1.1" id="Layer_1" xmlns="http://www.w3.org/2000/svg" xmlns:xlink="http://www.w3.org/1999/xlink" x="0px" y="0px"
	 viewBox="0 0 400 400" style="enable-background:new 0 0 400 400;" xml:space="preserve">
<style type="text/css">
	.st0{fill:#1D428A;}
	.st1{fill:#FDB927;}
</style>
<g>
	<path class="st0" d="M350,199.9c0,82.8-67.1,149.9-149.9,149.9s-150-67.1-150-149.9S117.2,50,200.1,50S350,117.1,350,199.9"/>
	<path class="st1" d="M298.2,101.8c-26.2-26.2-61.1-40.6-98.1-40.6s-71.8,14.4-98.1,40.6c-26.2,26.2-40.6,61.1-40.6,98.1
		s14.4,71.8,40.6,98.1c26.2,26.2,61.1,40.6,98.1,40.6s71.8-14.4,98.1-40.6c26.2-26.2,40.6-61.1,40.6-98.1S324.3,128.1,298.2,101.8
		 M107.2,107.1c24.8-24.8,57.7-38.5,92.8-38.5c35,0,68,13.7,92.8,38.5s38.5,57.7,38.5,92.8c0,18.9-3.9,37.1-11.4,53.8
		c-15.9-5.4-31.5-11.4-46.9-18.3c-2-0.9-4-1.8-6.1-2.7l-6-2.8l-3-1.4l-3-1.4l-6-3c-1.9-1-3.9-2-5.9-3.1l-2.9-1.5
		c-1-0.5-1.9-1.1-2.9-1.6l-5.8-3.2l-5.7-3.4c-15.2-8.9-29.9-18.9-43.7-29.8c-6.9-5.5-13.6-11.3-20-17.3c-3.2-3.1-6.3-6.2-9.3-9.3
		c-0.8-0.8-1.5-1.6-2.2-2.4c-0.8-0.8-1.4-1.6-2.2-2.5c-0.8-0.9-1.4-1.6-2.1-2.5l-0.1-0.1c-0.3-9.6-0.4-15.4-0.4-15.4l-6.5-1.5v8.8
		h-5.6V130l-7,1.6l0.1,3.4l-3.3,1.8c0.1,2.8,0.2,6.3,0.2,10.7c-2.7,4.6-31.7,54.9-53.5,70.3C69.5,212,69,206,69,199.9
		C68.9,164.9,82.5,131.9,107.2,107.1 M279.6,264.3l-13.6,0.5l-11-28.6l2.1,1.1l6.1,3c2,1,4,1.9,6.1,2.9c0.6,0.3,1.2,0.6,1.7,0.8
		L279.6,264.3z M276.3,246.4c5.5,2.5,11,4.9,16.4,7.1l4.5,10.1l-13.6,0.5L276.3,246.4z M262,264.9l-13.8,0.5l-14.4-40.8
		c0.9,0.5,1.8,1.1,2.7,1.5l3,1.6c1.9,1.1,3.9,2.2,5.9,3.3l4.5,2.4L262,264.9z M244.1,265.5l-12.3,0.4l-18-53.6
		c2.8,1.8,5.5,3.6,8.3,5.3l5.8,3.6l0.8,0.5L244.1,265.5z M227.7,266l-12.9,0.5l-21.4-68.4c4.9,3.7,9.9,7.2,15,10.7L227.7,266z
		 M210.6,266.6l-12.4,0.4l-25.3-85.4c1.8,1.5,3.6,3.1,5.4,4.6c3.2,2.7,6.4,5.3,9.7,7.8L210.6,266.6z M194.2,267.2l-13.8,0.5
		l-30.2-108.1c2.7,2.9,5.4,5.8,8.2,8.6c2.9,2.9,6,5.8,8.9,8.6L194.2,267.2z M176.4,267.8l-11.9,0.4l-16.6-63.5
		c-0.5-16.4-1-31.5-1.3-43.7L176.4,267.8z M160.5,268.2l-10.3,0.4c-0.7-15.1-1.3-31-1.7-46.4L160.5,268.2z M306,277.4
		c-0.9,1.3-1.8,2.4-2.7,3.6l-152.5-3l-0.1-1.4L306,277.4z M301.5,263.5l-3.5-7.8c5.8,2.3,11.6,4.5,17.5,6.7
		c-0.1,0.2-0.3,0.5-0.4,0.7L301.5,263.5z M139.3,167.6v8.1h-6.2v7.5h6.2v8.1h-6.2v7.5h6.2v15.1h-6.2v7.5h6.2V237h-6.2v7.5h6.2V269
		l-5.7,0.2V155h5.6v5.1H133v7.5L139.3,167.6L139.3,167.6z M80.3,253.8l17.1-57.6c6.9-9.2,14.5-20.8,22.5-35.2L89.3,270.5
		C85.9,265.1,82.9,259.5,80.3,253.8 M77.9,248.1c-3-7.7-5.3-15.6-6.8-23.8c4.8-3.8,11.6-10.1,19.8-19.9L77.9,248.1z M123.6,162.4
		c0,11.5-0.2,25.6-0.5,40.5l-17.6,67.2l-12.2,0.4L123.6,162.4z M122.7,219.8c-0.5,16.6-1.1,33.9-1.9,49.8l-11.3,0.4L122.7,219.8z
		 M99.3,284.1l20.6,0.8c-0.4,6.3-0.9,12.4-1.3,18c-3.9-3.2-7.8-6.5-11.3-10.1C104.5,290,101.8,287.1,99.3,284.1 M200.1,331.1
		c-16.4,0-32.2-3-47-8.7c-0.6-8.9-1.2-19.7-1.7-31.5l-11.9-4v29.3c-1.9-1-3.8-2-5.7-3.2v-27.8l5.7,0.2v0.2h6.2l11.1,0.4l138.1,4.9
		c-0.6,0.6-1.1,1.2-1.6,1.7C268.1,317.5,235.1,331.1,200.1,331.1"/>
</g>
</svg>
