<?xml version="1.0" encoding="utf-8"?>
<!-- Generator: Adobe Illustrator 23.0.0, SVG Export Plug-In . SVG Version: 6.00 Build 0)  -->
<svg version="1.1" id="Layer_1" xmlns="http://www.w3.org/2000/svg" xmlns:xlink="http://www.w3.org/1999/xlink" x="0px" y="0px"
	 viewBox="0 0 400 400" style="enable-background:new 0 0 400 400;" xml:space="preserve">
<style type="text/css">
	.st0{fill:#061922;}
	.st1{fill:#CE1141;}
</style>
<g>
	<path class="st0" d="M249.8,189.4l0.4-33.3c0-15.6-16.3-18.2-28.3-18.1c8-2.7,17.7-7.2,24.7-14.8c7.4-6.8,12.6-16.4,11.7-29.8
		c-1.5-22.6-29.8-33.8-76.6-29.3c-0.8,0.1-1.5,0.2-2.3,0.2c-2.2-16.7-5.6-32.9-10.8-47.8l-2.3,2.3c-6.2,19.3-9.9,34.7-12.1,49
		c-27.9,4.8-47.5,11.2-47.5,11.2l-2.3,2.3c0,0,22.6-2,48.3-1.7c-2.9,29.3,0.1,57.1,0,109.6c-41.6-1.2-78.1,5.7-87,16.9
		c-2.9,2.4-4.5,5.1-4.4,7.9c0.5,12.7,38.3,24.4,91.4,28.9l2.3,72.2l2.3-2.3l3.7-49c0-0.8,0.1-1.5,0.3-2.1c1.1,0.2,2.2,1.6,2.2,4.1
		l1.6,64.5l2.3-2.3l4-52.5c0-1.2,0.1-2.1,0.3-2.9c1.1,0.2,2.2,1.8,2.1,4.8l1.8,67.2l2.3-2.3l3.2-97.8c6.1,0.2,12.3,0.3,18.7,0.3
		c6.7,0,13.3-0.1,19.8-0.3l3.2,102l2.3-2.3l2.7-53.4c0-1.1,0.1-2,0.3-2.7c1,0.2,2,1.8,2,4.6l2.8,74.9l2.3-2.3l2.8-64.7
		c0-0.9,0.2-1.7,0.4-2.3c1.3,0,2.7,1.6,2.7,4.7l2.3,85.7l2.3-2.3l3.4-143.6c45.4-4,79.9-13.1,88.5-23.7c2.8-2.4,4.4-4.9,4.4-7.4
		C341.4,197.9,299.3,187.1,249.8,189.4 M152.3,227.9c-36.4-3.5-61-10.9-61-20.2c0-0.7,0.2-1.3,0.6-2c8.5-6,34.7-9.8,60.9-13.7
		c0,10.3-0.2,21.5-0.5,33.8L152.3,227.9z M226.5,102.5c1.4,10.3-1.6,18.1-6.9,24c-9.5,8.6-24.4,12.5-36.5,14.3
		c0.2-19.4-0.1-39.6-1.8-59.4C204.7,83.9,224.8,89.8,226.5,102.5 M219.6,229.9c-5.7,0.2-11.5,0.3-17.5,0.3c-7,0-13.9-0.1-20.5-0.4
		l0.3-8.3c-0.6-21,0.7-47.4,1.1-75.6c17.1,2,37.6,6.8,37.3,18.8L219.6,229.9z M310.2,213.7c-8.5,6.7-31,11.9-60.8,14.5l0.4-35.8
		c34.1,4.4,61.8,9.4,61.8,17.6C311.6,211.2,311.1,212.5,310.2,213.7"/>
	<path class="st1" d="M342,211.9c-0.6-14-42.7-24.8-92.2-22.4l0.4-33.3c-0.1-20.6-28.3-18.6-37.8-17.3c11.1-2,48.2-11.3,45.9-45.3
		c-1.5-22.6-29.8-33.8-76.6-29.3c-0.8,0.1-1.5,0.2-2.3,0.2c-2.2-16.7-5.6-32.9-10.8-47.8c-6.5,20.2-10.3,36.1-12.4,50.9
		c-29,4.8-49.5,11.6-49.5,11.6s22.6-2,48.3-1.7c-2.9,29.7,0.1,57.9,0,112c-49.2-1.7-91.9,7.8-91.4,22.4
		c0.4,12.7,38.3,24.4,91.4,28.9l2.3,72.2l3.7-49c0.1-6.1,4.7-5.5,4.7-0.3l1.7,64.5l4-52.5c-0.1-7.1,4.9-6.7,4.7-0.4l1.8,67.2
		l3.2-100.2c6.8,0.2,13.8,0.4,20.9,0.4c6.7,0,13.3-0.1,19.8-0.3l3.2,102l2.7-53.4c0-6.8,4.6-6.5,4.6-0.4l2.8,74.9l2.8-64.7
		c0.2-6.4,5.3-6.1,5.4,0l2.3,85.7l3.4-145.6v-0.1C303,236.3,342,224.6,342,211.9 M228.8,100.2c3.8,28.2-25,37.5-45.7,40.6
		c0.2-20.3-0.1-41.4-2-62C205.5,81.2,227,87,228.8,100.2 M91.3,207.7c0-8.6,31.9-13.2,63.8-18c0,10.3-0.2,21.5-0.5,33.8l0.1,4.7
		C116.9,224.7,91.3,217.2,91.3,207.7 M181.6,229.8l0.3-8.3c-0.6-21.7,0.8-49,1.1-78.1c17.4,1.8,39.9,6.5,39.5,19.1l-0.6,67.4
		c-6.4,0.2-13,0.3-19.8,0.3C195.1,230.1,188.3,230,181.6,229.8 M249.4,228.2l0.5-38.4c35.1,4.5,64,9.6,64,17.9
		C313.9,217.2,287.5,224.8,249.4,228.2"/>
</g>
</svg>
