<?xml version="1.0" encoding="utf-8"?>
<!-- Generator: Adobe Illustrator 24.0.1, SVG Export Plug-In . SVG Version: 6.00 Build 0)  -->
<svg version="1.1" id="Layer_2_1_" xmlns="http://www.w3.org/2000/svg" xmlns:xlink="http://www.w3.org/1999/xlink" x="0px" y="0px"
	 viewBox="0 0 400 400" style="enable-background:new 0 0 400 400;" xml:space="preserve">
<style type="text/css">
	.st0{fill:#EDE0C5;}
	.st1{fill:#00471A;}
	.st2{fill:#FFFFFF;}
</style>
<g id="Layer_2_2_">
	<path class="st0" d="M139,323.1c-1.5-1.3-2.2-3.3-1.6-5.3l17.9-64.6c0.1-0.3,0.3-0.8,0.4-1.1l-8.3-13.2c-0.8-1.2-1-2.7-0.5-4.1
		l1.2-3.9l-11.4-0.8c-10.8-0.8-14.5-2.2-17.1-3.6c-10.8-5.9-13.7-22.9-14.3-28l-0.8-5.7c-0.3-2.4,0.3-4.6,1.6-6.2
		c1.1-1.3,2.6-2,4.2-2.3c-24.9-22.3-47.4-50.1-39.7-89.5c8.5-43.5,43.6-56.7,45-57.3c0.5-0.2,1.1-0.3,1.7-0.3c1.8,0,3.6,1,4.4,2.6
		c0.6,1.2,0.8,2.6,0.4,3.7c11.6-9.9,22.6-14.2,27.3-15.7c0.5-0.2,1-0.3,1.5-0.3c1.9,0,3.7,1.1,4.6,2.9c1.1,2.4,0.2,5.1-1.9,6.3
		C143.1,43.2,133.9,52,127,62c8.4-1.9,14.1-2.3,16.1-2.3c0.8,0,1,0,1,0c2.5,0.2,4.5,2,4.7,4.5c0.3,2.5-1.4,4.7-3.8,5.4
		c-0.1,0-13.9,3.6-29.1,14.5c-2.9,8.7-4.2,17.9-4.2,27.2c0.1,17.6,5.8,35.7,15.6,49.6c2.4,3.3,4.7,6.2,7.1,8.8
		c-1-18.1,4.1-46.4,36.8-59.6c0.6-0.3,1.3-0.3,1.9-0.3c1.8,0,3.7,1,4.5,2.7c1.2,2.4,0.3,5.2-1.9,6.5l-0.3,0.2
		c-5.1,3.2-9.4,7.6-12.5,12.5c3.6-1.1,6.6-1.4,8.7-1.7l0.3-0.1c0.2,0,0.3,0,0.6,0c2,0,4,1.3,4.7,3.3c0.9,2.2-0.1,4.7-1.9,5.9
		l-0.2,0.1c-0.1,0-0.2,0.1-0.2,0.1c-10.4,6-16.2,13.1-17.2,21c-1.1,8.6,3.7,16.7,7.1,21.2c8.7-10.2,14.4-27.5,16-34.2
		c0.5-2.3,2.6-3.8,4.8-3.8c0.2,0,0.3,0,0.6,0c2.6,0.3,4.4,2.5,4.4,5c0.2,21.3-5.5,35.9-11.4,45.4c8.8,4.4,17.4,4.7,19.4,4.7
		c0.2,0,0.5,0,0.5,0c0.1,0,0.3,0,0.6,0c1.9,0,10.4-0.3,19.4-4.8c-5.9-9.4-11.6-23.9-11.6-45.3c0-2.6,1.9-4.7,4.4-5
		c0.2,0,0.3,0,0.6,0c2.3,0,4.3,1.5,4.8,3.8c1.6,6.6,7.4,24,16.2,34.1c3.3-4.5,8.1-12.7,7-21.2c-1.1-7.9-6.9-14.9-17.3-20.9
		c-0.1,0-0.3-0.2-0.3-0.2c-1.9-1.3-2.9-3.7-2-5.9c0.8-1.9,2.6-3.3,4.7-3.3c0.2,0,0.3,0,0.6,0h0.3c2,0.3,5.2,0.6,8.7,1.7
		c-3.2-4.8-7.5-9.1-12.6-12.4l-0.3-0.2c-2.3-1.4-3.1-4.2-1.9-6.5c0.9-1.7,2.6-2.8,4.5-2.8c0.6,0,1.3,0.1,1.9,0.3
		c32.7,13,38.1,41.3,37.1,59.4c2.5-2.6,4.7-5.5,7.1-8.8c9.8-13.9,15.4-32.1,15.4-49.7c0-9.4-1.5-18.4-4.4-27.2
		c-15.4-11-29.1-14.3-29.2-14.4c-2.5-0.5-4-2.8-3.8-5.4c0.2-2.5,2.2-4.4,4.7-4.6c0,0,0.3,0,1,0c1.9,0,7.6,0.2,16.1,2.2
		c-7-10-16.1-18.7-26.8-25.1c-2.2-1.3-3.1-4.1-1.9-6.3c0.9-1.8,2.6-3,4.5-3c0.5,0,1,0.1,1.5,0.3c4.6,1.4,15.7,5.7,27.4,15.5
		c-0.3-1.2-0.2-2.6,0.3-3.7c0.9-1.7,2.6-2.6,4.4-2.6c0.5,0,1.2,0.1,1.7,0.3c1.4,0.5,36.6,13.5,45.4,56.8c8,39.3-14.4,67.3-39.2,89.8
		c1.6,0.2,3.1,1,4.2,2.3c1.4,1.6,1.9,3.9,1.7,6.2l-0.6,5.7c-0.6,5.1-3.3,22.2-14.1,28.1c-2.6,1.4-6.3,2.8-17.1,3.7l-11.5,0.9
		l1.2,3.9c0.4,1.4,0.2,2.9-0.5,4.1l-8.3,13.3c0.2,0.3,0.3,0.8,0.4,1.1l18.4,64.5c0.5,1.9-0.1,4-1.6,5.3l-60.7,49.4L139,323.1z"/>
	<path class="st1" d="M75.6,95.7c8.1-41.1,41.9-53.4,41.9-53.4c-12.4,9.3-25,26.4-30.1,50.6c5.1-6.3,9.8-11,15.3-14.9
		c13.7-29.6,37-41.5,48.4-45.3c-14.9,9-27.3,22.5-34.8,38c17.2-6.2,27.5-5.7,27.5-5.7s-15.4,3.8-32.2,16.2c-3.2,9.5-5.1,19.7-5,30.3
		c0.1,18.7,6.1,37.9,16.6,52.5c5.9,8.2,11.5,13.9,18.5,19.2c-2.4-5.9-11.3-50.9,31.3-68.1l-0.3,0.2c-10,6.6-17.4,16.7-20.4,28.7
		c7.7-7.5,16-8.3,20.3-8.8c-0.1,0-0.2,0.1-0.2,0.1c-39.5,22.9-8,53.8-8,53.8c12.5-10.4,19.7-34,21.2-40.4c0.3,24.8-8,39.6-13.6,46.9
		c12.8,8.7,27.1,8.2,27.1,8.2l0,0l0,0c0,0,14.3,0.5,27-8.2c-5.6-7.2-13.9-22.1-13.9-46.8c1.6,6.5,8.9,29.8,21.4,40.2
		c0,0,31.3-31-8.3-53.8c-0.1,0-0.2-0.1-0.2-0.1c4.3,0.5,12.6,1.3,20.3,8.7c-3.1-11.9-10.4-22.1-20.7-28.5l-0.3-0.2
		c42.7,17,34,62.1,31.7,68c7.1-5.3,12.7-11,18.4-19.3c10.3-14.7,16.2-33.9,16.2-52.6c0-10.7-1.9-20.8-5.3-30.2
		C269,68.8,253.5,65,253.5,65s10.4-0.6,27.7,5.5c-7.6-15.4-20-28.7-35-37.7c11.5,3.7,34.9,15.5,48.7,45c5.5,3.8,10.3,8.5,15.4,14.7
		C305.1,68.2,292.5,51,280,42c0,0,33.8,12.1,42.2,53.2c9.7,47.8-28.5,77.8-59.2,103.6l23.5-9.7c1.6-0.8,2.7,0.9,2.5,2.7l-0.6,5.8
		c-0.3,3.1-2.6,19.5-11.6,24.3c-1.9,1.1-5.3,2.3-15,3.1l-17.6,1.2l3,9.9L229.9,264l8.8-9.4l18.4,64.5l-49.6,41.1l15.3-70.5
		L199.6,318l-23.2-28.5l15.7,70.4l-49.9-40.8l17.9-64.6l8.9,9.4l-17.3-27.8l2.9-9.9l-17.8-1.1c-9.8-0.8-13.1-1.9-15-3
		c-8.9-4.8-11.3-21.1-11.6-24.3l-0.8-5.8c-0.3-1.8,0.9-3.3,2.5-2.7l23.6,9.5C104.6,173.5,66.2,143.5,75.6,95.7 M298.9,146.5
		c0,0,19.5-30.9,6-48.1c-1.4-1.7-2.9-3.3-4.3-5C306.2,113.1,298.9,146.5,298.9,146.5 M99.5,147.1c0,0-7.4-33.3-2-52.9
		c-1.4,1.5-2.9,3.1-4.2,5C80,116.3,99.5,147.1,99.5,147.1"/>
	<path class="st2" d="M250.3,217.9c8.7-0.8,18.7-0.5,22.8-2.8c6-3.3,7.6-17.8,7.6-17.8l0,0C274.1,203.8,259.9,214.1,250.3,217.9
		 M209.7,283.9h-10.1h-10.1l4.8,6.6h5.3h5.3L209.7,283.9z M215.2,227.5c2.5,2.4,6.9,4.6,12.2,0.5c2.8-2.2,2.8-5.4,2.6-7.4
		c-0.2-1-1.3-1.6-2.2-1.2c-4.7,2.2-9.5,4.4-12.1,5.5C214.7,225.4,214.4,226.6,215.2,227.5 M181.3,256.1l-2.8,12.6l7.1,9.4h7.4
		l-6.9-10.1l1.1-6.2c3.1,3.3,7.6,5.4,12.5,5.4s9.4-2.2,12.5-5.5l1.1,6.2l-6.9,10.1h7.4l7-9.5l-2.9-12.6c-6.7-4.2-8.2-10.3-8.2-10.3
		l-4.7-15.3l-5.4,2.6l-5.4-2.6l-4.6,15.3C189.5,245.8,188,251.9,181.3,256.1 M171.6,228.1c5.4,4.1,9.8,1.8,12.2-0.5
		c0.9-0.9,0.5-2-0.4-2.6c-2.6-1.2-7.3-3.3-12.1-5.5c-1-0.4-2,0.2-2.2,1.2C168.7,222.8,168.8,226,171.6,228.1 M117.9,197.8
		L117.9,197.8c0,0,1.7,14.4,7.9,17.8c4.1,2.3,14.1,1.9,22.9,2.6C138.9,214.5,124.7,204.2,117.9,197.8"/>
</g>
</svg>
