<?xml version="1.0" encoding="utf-8"?>
<!-- Generator: Adobe Illustrator 24.0.1, SVG Export Plug-In . SVG Version: 6.00 Build 0)  -->
<svg version="1.1" id="Layer_1" xmlns="http://www.w3.org/2000/svg" xmlns:xlink="http://www.w3.org/1999/xlink" x="0px" y="0px"
	 viewBox="0 0 400 400" style="enable-background:new 0 0 400 400;" xml:space="preserve">
<style type="text/css">
	.st0{fill:#B4975A;}
	.st1{fill:#0A2240;}
	.st2{fill:#FFFFFF;}
	.st3{fill:#CE0E2D;}
</style>
<g>
	<path class="st0" d="M397.4,174.1L394,172c-52.2-30.4-128-45.5-162.8-46l-0.5,0c-5.7,0-9.7,2-11.8,5.9c-1.8,3.3-1.6,6.6-0.7,9.5
		c-0.6-0.7-1.5-1.4-2.4-2.1c-2.8-2.1-6.1-3.8-6.1-3.8s0.4,2.7-0.6,2.4c-0.5-0.2-1.1-0.4-1.7-0.7c-2.8-1.3-6.9-3.8-6.9-3.8
		s-4.2,2.5-7,3.8c-0.6,0.3-1.2,0.5-1.7,0.7c-1,0.3-0.6-2.4-0.6-2.4s-3.3,1.7-6.1,3.8c-0.9,0.7-1.8,1.4-2.4,2.1
		c0.9-2.8,1.1-6.1-0.7-9.5c-2.1-3.9-6-5.9-11.8-5.9l-0.5,0C135,126.6,59.2,141.6,7,172l-3.4,2.1c0,0,5.1,13.1,17.8,16.8l-1.7,0.8
		c0,0,7.2,11.6,18.3,14l-2.1,0.9c0,0,7.8,12.7,23,15.3l-2.2,1.1c0,0,10.8,11.7,27.5,12.8l-2.4,1.8c0,0,11,7.3,27.3,9.2l-2.6,2.3
		c0,0,28.8,10.5,52.9,1.8c6.7,16.7,23,28.1,41.3,28.1h0h0c18.3,0,34.7-11.3,41.3-28.1c24.1,8.8,52.9-1.8,52.9-1.8l-2.6-2.3
		c16.2-1.8,27.3-9.2,27.3-9.2l-2.4-1.8c16.6-1,27.5-12.8,27.5-12.8l-2.2-1.1c15.2-2.7,23-15.3,23-15.3l-2.1-0.9
		c11.1-2.4,18.3-14,18.3-14l-1.7-0.8C392.3,187.2,397.4,174.1,397.4,174.1z"/>
	<g>
		<g>
			<g>
				<path class="st1" d="M391.9,175.7c-51.1-29.8-126.1-44.9-160.8-45.5c-4.2-0.1-7,0.9-8.5,3.7c-2.4,4.5,1,9.6,2.4,11.8
					c3.1,4.7,7.3,12,7.3,20.8c0,17.1-13.8,29.7-30.8,29.7c-0.4,0-0.7,0-1.1,0c-0.4,0-0.7,0-1.1,0c-17,0-30.8-12.6-30.8-29.7
					c0-8.8,4.2-16.1,7.3-20.8c1.5-2.2,4.9-7.2,2.4-11.8c-1.5-2.7-4.3-3.7-8.5-3.7c-34.7,0.6-109.7,15.7-160.8,45.5
					c0,0.1,8.2,14.1,24.4,12.9c-2.5,1.2-5,2.5-7.5,3.8c0,0.2,7.5,12.3,25.4,10.6c-3,1.4-5.9,2.8-8.9,4.3c0,0.2,8.6,12.2,27.5,11.8
					c-4.3,2.2-7,3.6-7,3.6c0,0.1,12.5,12.1,32.6,8.8c-2.2,1.6-4.4,3.3-7,5.1c0,0,14.8,8.1,32.2,5.6c-2.2,1.7-4.5,3.4-6.7,5.2
					c0-0.2,26.6,7.3,45.6-1.1c16.3-7.2,25.4-24.8,27.5-29.2c3.2,0.7,6,1.1,8.2,1.4c0,0.2,3.5,0.5,5.2,0.5c1.7,0.1,5.2-0.2,5.2-0.5
					c2.1-0.3,5-0.7,8.2-1.4c2.1,4.4,11.1,22.1,27.5,29.2c19,8.4,45.6,0.8,45.6,1.1c-2.2-1.7-4.5-3.5-6.7-5.2
					c17.4,2.5,32.2-5.6,32.2-5.6c-2.6-1.8-4.8-3.5-7-5.1c20.1,3.3,32.6-8.7,32.6-8.8c0,0-2.6-1.4-7-3.6
					c18.9,0.3,27.4-11.7,27.5-11.8c-3-1.5-5.9-2.9-8.9-4.3c17.9,1.8,25.3-10.4,25.4-10.6c-2.5-1.3-5-2.5-7.5-3.8
					C383.8,189.7,391.9,175.8,391.9,175.7z"/>
				<path class="st2" d="M185.8,208c0,0-45.6-15.3-25.8-63.9c0,0-48.3,2-114.4,28.7c0,0-4.6,1.9-7.3,2.9c-2.7,1-7.1,2.7-13.3-0.3
					c0,0,60.5-31.6,138.2-39c10.2-1,11.6,0.6,8.9,4.4C169.9,144.1,142.1,179.4,185.8,208z"/>
				<path class="st0" d="M145.3,157.9c-39.1,5.1-77.4,18.7-77.4,18.7c6.5,11.6,24.2,6.7,24.2,6.7c33.1-9.4,47.9-12.6,52.7-13.5
					C144.6,166.1,144.7,162.2,145.3,157.9z"/>
				<path class="st0" d="M145.5,176.9c-6.5,1.3-33.9,6.9-61.5,17.2c0,0,8.7,9.9,26,5c14.5-4.1,33.2-10.1,38.7-11.8
					C147.3,184.2,146.2,180.7,145.5,176.9z"/>
				<path class="st0" d="M151.6,192.8c-5.9,1.9-35.4,11.5-47.9,16.3c0,0,7.1,9.6,27.8,1.5c14.4-5.7,22.3-9,25.8-10.5
					C155.2,197.9,153.3,195.5,151.6,192.8z"/>
				<path class="st0" d="M161.9,204.2c-5.2,2.2-24.3,10.6-35.4,15.9c0,0,13.9,6.8,31.5-4l10.9-7.2
					C166.5,207.6,164.1,206.1,161.9,204.2z"/>
				<path class="st0" d="M174.2,211.8c-3.5,2.2-18,11.3-25.1,16.6c0,0,12,5,24.4-6.7c4-3.8,6.2-5.9,7.4-7.2
					C178.7,213.8,176.5,212.9,174.2,211.8z"/>
				<g>
					<path class="st2" d="M215.2,208c0,0,45.6-15.3,25.8-63.9c0,0,48.3,2,114.4,28.7c0,0,4.6,1.9,7.3,2.9c2.7,1,7.1,2.7,13.3-0.3
						c0,0-60.5-31.6-138.2-39c-10.3-1-11.6,0.6-8.9,4.4C231.2,144.1,258.9,179.4,215.2,208z"/>
					<path class="st0" d="M255.7,157.9c39.1,5.1,77.4,18.7,77.4,18.7c-6.5,11.6-24.2,6.7-24.2,6.7c-33.1-9.4-47.9-12.6-52.7-13.5
						C256.5,166.1,256.3,162.2,255.7,157.9z"/>
					<path class="st0" d="M255.5,176.9c6.5,1.3,33.9,6.9,61.5,17.2c0,0-8.7,9.9-26,5c-14.5-4.1-33.2-10.1-38.7-11.8
						C253.7,184.2,254.8,180.7,255.5,176.9z"/>
					<path class="st0" d="M249.4,192.8c5.9,1.9,35.4,11.5,47.9,16.3c0,0-7.1,9.6-27.8,1.5c-14.4-5.7-22.3-9-25.8-10.5
						C245.8,197.9,247.7,195.5,249.4,192.8z"/>
					<path class="st0" d="M239.1,204.2c5.2,2.2,24.3,10.6,35.4,15.9c0,0-13.9,6.8-31.5-4l-10.9-7.2
						C234.5,207.6,236.9,206.1,239.1,204.2z"/>
					<path class="st0" d="M226.8,211.8c3.5,2.2,18,11.3,25.1,16.6c0,0-12,5-24.4-6.7c-4-3.8-6.2-5.9-7.4-7.2
						C222.3,213.8,224.5,212.9,226.8,211.8z"/>
				</g>
			</g>
			<g>
				<g>
					<g>
						<path class="st2" d="M237.9,234.5c0,20.7-16.7,37.4-37.4,37.4c-20.7,0-37.4-16.7-37.4-37.4c0-20.6,16.7-37.4,37.4-37.4
							C221.1,197.2,237.9,213.9,237.9,234.5z"/>
					</g>
					<g>
						<path class="st0" d="M230.1,242.3c0,16.4-13.3,29.7-29.6,29.7c-16.4,0-29.6-13.3-29.6-29.7c0-16.4,13.3-29.6,29.6-29.6
							C216.9,212.6,230.1,225.9,230.1,242.3z"/>
					</g>
					<path class="st1" d="M200.5,194.2c-22.2,0-40.3,18.1-40.3,40.3c0,22.2,18.1,40.3,40.3,40.3c22.2,0,40.3-18.1,40.3-40.3
						C240.8,212.3,222.7,194.2,200.5,194.2z M234.3,228c-2.5,10-9.3,18.1-18.2,22.6c0.7-4.9,2.9-9.8,5.1-14.9
						c3.2-7.3,6.8-15.4,5.2-23.9C230.4,216.4,233.2,221.9,234.3,228z M182.8,205c4.5-2.7,9.7-4.4,15.2-4.8v54.2
						c-2.8-0.2-5.4-0.7-8-1.5c-0.3-6.7-3-13-5.7-19.1C179.8,223.7,176,214.8,182.8,205z M189.7,258c2.7,0.7,5.4,1.2,8.3,1.4v9.6
						c-4.5-0.3-8.8-1.5-12.7-3.4C187.2,263.7,189.2,261.2,189.7,258z M203,259.3c2.9-0.2,5.6-0.6,8.3-1.4c0.6,3.2,2.5,5.8,4.4,7.5
						c-3.9,1.9-8.2,3.1-12.7,3.4V259.3z M211,252.8c-2.6,0.8-5.2,1.4-8,1.6v-54.2c5.5,0.4,10.7,2.1,15.2,4.8
						c6.8,9.9,3,18.7-1.5,28.8C214,239.9,211.3,246.1,211,252.8z M174.5,211.9c-1.5,8.5,2,16.5,5.2,23.9c2.2,5.1,4.4,10,5.1,15
						c-8.9-4.4-15.7-12.6-18.2-22.8C167.8,221.9,170.6,216.4,174.5,211.9z M166.6,240.6c4.3,7.1,10.8,12.6,18.4,15.7
						c0,0.2,0,0.5-0.1,0.7c-0.4,2.6-2.5,4.7-4,5.8C173.5,257.7,168.2,249.7,166.6,240.6z M220.2,262.8c-1.5-1.2-3.6-3.3-4-5.8
						c0-0.2-0.1-0.5-0.1-0.7c7.6-3.2,14-8.7,18.4-15.7C232.8,249.8,227.5,257.7,220.2,262.8z"/>
				</g>
				<g>
					<path class="st1" d="M212.5,141.9c0,0-0.3,1.3-1.1,1.3c-0.8,0-5.6-2.3-7.9-3.6c-1-0.5-2.4-1.3-2.9-1.6c0,0-2.1,1.1-3.1,1.6
						c-2.3,1.3-7.2,3.6-7.9,3.6c-0.8,0-1.1-1.3-1.1-1.3s-12.7,7.7-12.7,28.8c0,15.8,8.2,22.9,8.2,22.9l1.1,4.5h14h2.8h14l1.1-4.5
						c0,0,8.2-7.1,8.2-22.9C225.2,149.6,212.5,141.9,212.5,141.9z"/>
					<path class="st2" d="M218.5,165.4c0-6.5-2.7-11.9-5.5-15c0,0-0.1,1.9-3.2-0.2c-2.7-1.8-5.9-2.9-9.3-2.9c-3.4,0-6.6,1.1-9.3,2.9
						c-3,2.1-3.2,0.2-3.2,0.2c-2.9,3.2-5.5,8.5-5.5,15c0,5.4,1.3,8.1,1.8,8.9c2.7,6.9,8.9,11.8,16.2,11.8c7.2,0,13.4-4.8,16.1-11.6
						C216.8,174.3,218.5,171.7,218.5,165.4z"/>
					<path class="st1" d="M207.3,180.2c0,0,0-0.1-0.1-0.1c0,0-1.8-3.4,1.2-5.7c0,0,6.6,1.4,6.8-7.4c0,0-0.2-0.9,0.8-2.8
						c0,0-1.7-1.6-5.4,1.2c-3.7,2.8-5.7,10.7-7.7,8.8c-2-1.8-1.3-12.1-2.3-12.5h0c-1,0.4-0.3,10.7-2.3,12.5c-2,1.9-4-6-7.7-8.8
						c-3.7-2.8-5.4-1.2-5.4-1.2c0.9,1.9,0.8,2.8,0.8,2.8c0.2,8.8,6.8,7.4,6.8,7.4c2.9,2.3,1.2,5.7,1.2,5.7c0,0,0,0.1-0.1,0.1
						c-7.9-8.5-12.5-7.4-10.3,2.2c2.2,9.4,10.8,49.6,12.2,58.9c-0.2,8.4-1.2,11.4-1.4,12l-0.9,1.7l1,1.9c1.5,2.2,2.6,4.7,2.9,5.6
						l3.3,8.3l3.2-8.3c0.4-1,1.4-3.4,2.9-5.6l1-1.8l-0.9-1.8c-0.3-0.6-1.2-3.5-1.4-11.6c1.1-8.4,9.9-49.8,12.2-59.4
						C219.8,172.8,215.2,171.7,207.3,180.2z"/>
					<g>
						<path class="st3" d="M195.1,222.1c-2.8-15-5.1-26.1-6.9-34.1c-1.4-6.1,2.3-3.7,4.3,0.2L195.1,222.1z"/>
						<path class="st3" d="M205.9,222.1c2.9-15,5.1-26.1,6.9-34.1c1.4-6.1-2.3-3.7-4.3,0.2L205.9,222.1z"/>
					</g>
					<g>
						<path class="st3" d="M190.6,171.4c-0.6-0.2-0.9-0.7-0.7-1.3c0.1-0.2,0.2-0.4,0.4-0.5c-0.4-0.4-0.8-0.8-1.3-1.2
							c0,0-0.9,4.3,2.9,3.9c0,0-0.1-0.4-0.4-0.9C191.2,171.5,190.9,171.5,190.6,171.4z"/>
						<path class="st3" d="M212.1,168.4c-0.5,0.4-1,0.8-1.3,1.2c0.2,0.1,0.3,0.3,0.4,0.5c0.2,0.6-0.2,1.1-0.7,1.3
							c-0.3,0.1-0.6,0-0.8-0.1c-0.3,0.5-0.4,0.9-0.4,0.9C213,172.7,212.1,168.4,212.1,168.4z"/>
					</g>
					<path class="st3" d="M202.3,227.7c1.2-23.1,3.1-39.5,3.1-41.6c0-0.7-0.1-1.7-0.4-2.7l-1.3,4.4l-0.4-7.8
						c-0.7-0.9-1.6-1.7-2.8-2.6h-0.1c-1.2,0.8-2,1.7-2.7,2.6l-0.4,7.8l-1.4-4.4c-0.3,1-0.4,2-0.4,2.7c0,2,1.8,18.4,3.1,41.6
						c1.2,23.1-1.6,27.4-1.6,27.4c1.7,2.4,3.5,6.7,3.5,6.7s1.8-4.3,3.5-6.7C204,255.1,201.1,250.8,202.3,227.7z"/>
				</g>
			</g>
		</g>
	</g>
	<g>
		<g>
			<g>
				<path class="st1" d="M391.9,175.7c-51.1-29.8-126.1-44.9-160.8-45.5c-4.2-0.1-7,0.9-8.5,3.7c-2.4,4.5,1,9.6,2.4,11.8
					c3.1,4.7,7.3,12,7.3,20.8c0,17.1-13.8,29.7-30.8,29.7c-0.4,0-0.7,0-1.1,0c-0.4,0-0.7,0-1.1,0c-17,0-30.8-12.6-30.8-29.7
					c0-8.8,4.2-16.1,7.3-20.8c1.5-2.2,4.9-7.2,2.4-11.8c-1.5-2.7-4.3-3.7-8.5-3.7c-34.7,0.6-109.7,15.7-160.8,45.5
					c0,0.1,8.2,14.1,24.4,12.9c-2.5,1.2-5,2.5-7.5,3.8c0,0.2,7.5,12.3,25.4,10.6c-3,1.4-5.9,2.8-8.9,4.3c0,0.2,8.6,12.2,27.5,11.8
					c-4.3,2.2-7,3.6-7,3.6c0,0.1,12.5,12.1,32.6,8.8c-2.2,1.6-4.4,3.3-7,5.1c0,0,14.8,8.1,32.2,5.6c-2.2,1.7-4.5,3.4-6.7,5.2
					c0-0.2,26.6,7.3,45.6-1.1c16.3-7.2,25.4-24.8,27.5-29.2c3.2,0.7,6,1.1,8.2,1.4c0,0.2,3.5,0.5,5.2,0.5c1.7,0.1,5.2-0.2,5.2-0.5
					c2.1-0.3,5-0.7,8.2-1.4c2.1,4.4,11.1,22.1,27.5,29.2c19,8.4,45.6,0.8,45.6,1.1c-2.2-1.7-4.5-3.5-6.7-5.2
					c17.4,2.5,32.2-5.6,32.2-5.6c-2.6-1.8-4.8-3.5-7-5.1c20.1,3.3,32.6-8.7,32.6-8.8c0,0-2.6-1.4-7-3.6
					c18.9,0.3,27.4-11.7,27.5-11.8c-3-1.5-5.9-2.9-8.9-4.3c17.9,1.8,25.3-10.4,25.4-10.6c-2.5-1.3-5-2.5-7.5-3.8
					C383.8,189.7,391.9,175.8,391.9,175.7z"/>
				<path class="st2" d="M185.8,208c0,0-45.6-15.3-25.8-63.9c0,0-48.3,2-114.4,28.7c0,0-4.6,1.9-7.3,2.9c-2.7,1-7.1,2.7-13.3-0.3
					c0,0,60.5-31.6,138.2-39c10.2-1,11.6,0.6,8.9,4.4C169.9,144.1,142.1,179.4,185.8,208z"/>
				<path class="st0" d="M145.3,157.9c-39.1,5.1-77.4,18.7-77.4,18.7c6.5,11.6,24.2,6.7,24.2,6.7c33.1-9.4,47.9-12.6,52.7-13.5
					C144.6,166.1,144.7,162.2,145.3,157.9z"/>
				<path class="st0" d="M145.5,176.9c-6.5,1.3-33.9,6.9-61.5,17.2c0,0,8.7,9.9,26,5c14.5-4.1,33.2-10.1,38.7-11.8
					C147.3,184.2,146.2,180.7,145.5,176.9z"/>
				<path class="st0" d="M151.6,192.8c-5.9,1.9-35.4,11.5-47.9,16.3c0,0,7.1,9.6,27.8,1.5c14.4-5.7,22.3-9,25.8-10.5
					C155.2,197.9,153.3,195.5,151.6,192.8z"/>
				<path class="st0" d="M161.9,204.2c-5.2,2.2-24.3,10.6-35.4,15.9c0,0,13.9,6.8,31.5-4l10.9-7.2
					C166.5,207.6,164.1,206.1,161.9,204.2z"/>
				<path class="st0" d="M174.2,211.8c-3.5,2.2-18,11.3-25.1,16.6c0,0,12,5,24.4-6.7c4-3.8,6.2-5.9,7.4-7.2
					C178.7,213.8,176.5,212.9,174.2,211.8z"/>
				<g>
					<path class="st2" d="M215.2,208c0,0,45.6-15.3,25.8-63.9c0,0,48.3,2,114.4,28.7c0,0,4.6,1.9,7.3,2.9c2.7,1,7.1,2.7,13.3-0.3
						c0,0-60.5-31.6-138.2-39c-10.3-1-11.6,0.6-8.9,4.4C231.2,144.1,258.9,179.4,215.2,208z"/>
					<path class="st0" d="M255.7,157.9c39.1,5.1,77.4,18.7,77.4,18.7c-6.5,11.6-24.2,6.7-24.2,6.7c-33.1-9.4-47.9-12.6-52.7-13.5
						C256.5,166.1,256.3,162.2,255.7,157.9z"/>
					<path class="st0" d="M255.5,176.9c6.5,1.3,33.9,6.9,61.5,17.2c0,0-8.7,9.9-26,5c-14.5-4.1-33.2-10.1-38.7-11.8
						C253.7,184.2,254.8,180.7,255.5,176.9z"/>
					<path class="st0" d="M249.4,192.8c5.9,1.9,35.4,11.5,47.9,16.3c0,0-7.1,9.6-27.8,1.5c-14.4-5.7-22.3-9-25.8-10.5
						C245.8,197.9,247.7,195.5,249.4,192.8z"/>
					<path class="st0" d="M239.1,204.2c5.2,2.2,24.3,10.6,35.4,15.9c0,0-13.9,6.8-31.5-4l-10.9-7.2
						C234.5,207.6,236.9,206.1,239.1,204.2z"/>
					<path class="st0" d="M226.8,211.8c3.5,2.2,18,11.3,25.1,16.6c0,0-12,5-24.4-6.7c-4-3.8-6.2-5.9-7.4-7.2
						C222.3,213.8,224.5,212.9,226.8,211.8z"/>
				</g>
			</g>
			<g>
				<g>
					<g>
						<path class="st2" d="M237.9,234.5c0,20.7-16.7,37.4-37.4,37.4c-20.7,0-37.4-16.7-37.4-37.4c0-20.6,16.7-37.4,37.4-37.4
							C221.1,197.2,237.9,213.9,237.9,234.5z"/>
					</g>
					<g>
						<path class="st0" d="M230.1,242.3c0,16.4-13.3,29.7-29.6,29.7c-16.4,0-29.6-13.3-29.6-29.7c0-16.4,13.3-29.6,29.6-29.6
							C216.9,212.6,230.1,225.9,230.1,242.3z"/>
					</g>
					<path class="st1" d="M200.5,194.2c-22.2,0-40.3,18.1-40.3,40.3c0,22.2,18.1,40.3,40.3,40.3c22.2,0,40.3-18.1,40.3-40.3
						C240.8,212.3,222.7,194.2,200.5,194.2z M234.3,228c-2.5,10-9.3,18.1-18.2,22.6c0.7-4.9,2.9-9.8,5.1-14.9
						c3.2-7.3,6.8-15.4,5.2-23.9C230.4,216.4,233.2,221.9,234.3,228z M182.8,205c4.5-2.7,9.7-4.4,15.2-4.8v54.2
						c-2.8-0.2-5.4-0.7-8-1.5c-0.3-6.7-3-13-5.7-19.1C179.8,223.7,176,214.8,182.8,205z M189.7,258c2.7,0.7,5.4,1.2,8.3,1.4v9.6
						c-4.5-0.3-8.8-1.5-12.7-3.4C187.2,263.7,189.2,261.2,189.7,258z M203,259.3c2.9-0.2,5.6-0.6,8.3-1.4c0.6,3.2,2.5,5.8,4.4,7.5
						c-3.9,1.9-8.2,3.1-12.7,3.4V259.3z M211,252.8c-2.6,0.8-5.2,1.4-8,1.6v-54.2c5.5,0.4,10.7,2.1,15.2,4.8
						c6.8,9.9,3,18.7-1.5,28.8C214,239.9,211.3,246.1,211,252.8z M174.5,211.9c-1.5,8.5,2,16.5,5.2,23.9c2.2,5.1,4.4,10,5.1,15
						c-8.9-4.4-15.7-12.6-18.2-22.8C167.8,221.9,170.6,216.4,174.5,211.9z M166.6,240.6c4.3,7.1,10.8,12.6,18.4,15.7
						c0,0.2,0,0.5-0.1,0.7c-0.4,2.6-2.5,4.7-4,5.8C173.5,257.7,168.2,249.7,166.6,240.6z M220.2,262.8c-1.5-1.2-3.6-3.3-4-5.8
						c0-0.2-0.1-0.5-0.1-0.7c7.6-3.2,14-8.7,18.4-15.7C232.8,249.8,227.5,257.7,220.2,262.8z"/>
				</g>
				<g>
					<path class="st1" d="M212.5,141.9c0,0-0.3,1.3-1.1,1.3c-0.8,0-5.6-2.3-7.9-3.6c-1-0.5-2.4-1.3-2.9-1.6c0,0-2.1,1.1-3.1,1.6
						c-2.3,1.3-7.2,3.6-7.9,3.6c-0.8,0-1.1-1.3-1.1-1.3s-12.7,7.7-12.7,28.8c0,15.8,8.2,22.9,8.2,22.9l1.1,4.5h14h2.8h14l1.1-4.5
						c0,0,8.2-7.1,8.2-22.9C225.2,149.6,212.5,141.9,212.5,141.9z"/>
					<path class="st2" d="M218.5,165.4c0-6.5-2.7-11.9-5.5-15c0,0-0.1,1.9-3.2-0.2c-2.7-1.8-5.9-2.9-9.3-2.9c-3.4,0-6.6,1.1-9.3,2.9
						c-3,2.1-3.2,0.2-3.2,0.2c-2.9,3.2-5.5,8.5-5.5,15c0,5.4,1.3,8.1,1.8,8.9c2.7,6.9,8.9,11.8,16.2,11.8c7.2,0,13.4-4.8,16.1-11.6
						C216.8,174.3,218.5,171.7,218.5,165.4z"/>
					<path class="st1" d="M207.3,180.2c0,0,0-0.1-0.1-0.1c0,0-1.8-3.4,1.2-5.7c0,0,6.6,1.4,6.8-7.4c0,0-0.2-0.9,0.8-2.8
						c0,0-1.7-1.6-5.4,1.2c-3.7,2.8-5.7,10.7-7.7,8.8c-2-1.8-1.3-12.1-2.3-12.5h0c-1,0.4-0.3,10.7-2.3,12.5c-2,1.9-4-6-7.7-8.8
						c-3.7-2.8-5.4-1.2-5.4-1.2c0.9,1.9,0.8,2.8,0.8,2.8c0.2,8.8,6.8,7.4,6.8,7.4c2.9,2.3,1.2,5.7,1.2,5.7c0,0,0,0.1-0.1,0.1
						c-7.9-8.5-12.5-7.4-10.3,2.2c2.2,9.4,10.8,49.6,12.2,58.9c-0.2,8.4-1.2,11.4-1.4,12l-0.9,1.7l1,1.9c1.5,2.2,2.6,4.7,2.9,5.6
						l3.3,8.3l3.2-8.3c0.4-1,1.4-3.4,2.9-5.6l1-1.8l-0.9-1.8c-0.3-0.6-1.2-3.5-1.4-11.6c1.1-8.4,9.9-49.8,12.2-59.4
						C219.8,172.8,215.2,171.7,207.3,180.2z"/>
					<g>
						<path class="st3" d="M195.1,222.1c-2.8-15-5.1-26.1-6.9-34.1c-1.4-6.1,2.3-3.7,4.3,0.2L195.1,222.1z"/>
						<path class="st3" d="M205.9,222.1c2.9-15,5.1-26.1,6.9-34.1c1.4-6.1-2.3-3.7-4.3,0.2L205.9,222.1z"/>
					</g>
					<g>
						<path class="st3" d="M190.6,171.4c-0.6-0.2-0.9-0.7-0.7-1.3c0.1-0.2,0.2-0.4,0.4-0.5c-0.4-0.4-0.8-0.8-1.3-1.2
							c0,0-0.9,4.3,2.9,3.9c0,0-0.1-0.4-0.4-0.9C191.2,171.5,190.9,171.5,190.6,171.4z"/>
						<path class="st3" d="M212.1,168.4c-0.5,0.4-1,0.8-1.3,1.2c0.2,0.1,0.3,0.3,0.4,0.5c0.2,0.6-0.2,1.1-0.7,1.3
							c-0.3,0.1-0.6,0-0.8-0.1c-0.3,0.5-0.4,0.9-0.4,0.9C213,172.7,212.1,168.4,212.1,168.4z"/>
					</g>
					<path class="st3" d="M202.3,227.7c1.2-23.1,3.1-39.5,3.1-41.6c0-0.7-0.1-1.7-0.4-2.7l-1.3,4.4l-0.4-7.8
						c-0.7-0.9-1.6-1.7-2.8-2.6h-0.1c-1.2,0.8-2,1.7-2.7,2.6l-0.4,7.8l-1.4-4.4c-0.3,1-0.4,2-0.4,2.7c0,2,1.8,18.4,3.1,41.6
						c1.2,23.1-1.6,27.4-1.6,27.4c1.7,2.4,3.5,6.7,3.5,6.7s1.8-4.3,3.5-6.7C204,255.1,201.1,250.8,202.3,227.7z"/>
				</g>
			</g>
		</g>
	</g>
</g>
</svg>
