<?xml version="1.0" encoding="utf-8"?>
<!-- Generator: Adobe Illustrator 21.0.0, SVG Export Plug-In . SVG Version: 6.00 Build 0)  -->
<svg version="1.1" id="Layer_2" xmlns="http://www.w3.org/2000/svg" xmlns:xlink="http://www.w3.org/1999/xlink" x="0px" y="0px"
	 viewBox="0 0 400 400" style="enable-background:new 0 0 400 400;" xml:space="preserve">
<style type="text/css">
	.st0{fill:#057DC1;}
	.st1{fill:#EE3C33;}
	.st2{fill:#FFFFFF;}
	.st3{fill:#F9B82F;}
	.st4{fill:#1E3160;}
</style>
<g id="Layer_2_1_">
	<path class="st0" d="M315.8,179c27.8-6.2,55-10.3,81.2-12.4c-29.1,8.9-58.7,18.8-88.8,29.7C310.9,190.7,313.4,184.9,315.8,179
		 M22.3,325.6c23.2-20.5,49.4-40.1,78.1-58c5.4-2.7,10.8-5.4,16.2-8.1c2.2-1.1,6.6-3.2,12.1-5.9c3.7,4.1,7.5,8.2,11.5,12.1
		C99,284.9,59.6,305,22.3,325.6"/>
	<path class="st1" d="M327.3,144.7c24-1,47.3-0.6,69.7,1.1c-24.1,3.4-48.7,7.4-73.6,11.9C324.7,153.5,326,149.2,327.3,144.7
		 M2,244.3c26.9-17.1,56.8-32.7,89-46.3c1.1,2.2,2.2,4.3,3.3,6.4c-1.7,3.5-3.5,7.1-5.2,10.6C59.2,224.4,30.1,234.1,2,244.3"/>
	<path class="st2" d="M175,231.7l3.9-1.8l10.1-8.1l2.2-6.2c1.5,2.9,2.2,4.1,3.7,7.1l3.3-1.5c0.1,3.2,0.2,6.3,0.2,9.3
		c-7.3,1.7-15.1,2.6-23.2,2.7L175,231.7z M204,218.6c4.2-1.8,8.4-3.7,12.5-5.5l2-2c0.8,0.1,1.8,0.2,2.8,0.1c1.6-0.3,3.6-0.8,5.8-1.6
		c-1.4,5.1-2.3,9.5-2.6,13.4c-5.9,2.1-12.6,4.1-20.2,6C204.2,225.7,204.1,222.2,204,218.6 M199.5,106.4c45.4,0,81.1,10.6,121.3,30.7
		c-19.7,74.2-55.7,124-121.3,164.4c-24.6-15.2-45.6-32.2-63.1-51.6c7.8-3.7,16.6-7.9,24.3-11.5c3.1,0.3,6.1,0.4,8.9,0.5
		c-0.2,4.3-1.5,7.4-3.7,9.7c1.3,1.4,2.5,2.9,3.8,4.3c3.4-3,5.6-7.5,5.8-13.9c8-0.1,15.7-0.9,22.8-2.5c-0.4,11.7-2,20.3-5.4,23.7
		c-0.1,0.1-0.2,0.2-0.2,0.3c-0.8,0.9-1.6,1.6-2.2,2.2c3.2-0.6,6.4-1.3,9.5-2.2c4-8.3,4.1-22.8,4.1-25.4c7.4-1.9,14.1-3.8,20-5.8
		c0.2,6.8,3,13.3,8.2,15.7c2.3-1.7,4.6-3.4,6.8-5.2c-1.3,0.2-9.6,0.8-9.4-12.5c17.5-6.6,28.8-14.5,38.8-26.4
		c2.6-6,4.8-12.2,6.3-18.7c-12,18.9-23,29.9-44.5,38.5c0.6-3.8,1.7-8.4,3.5-13.8c6.3-2.6,12.8-5.8,16.8-7.4l9.4-9.9
		c2.4-9.1,4.7-18.3,7.1-27.4l-7.4,2.3l8.7-9.1c1.8-7.2,3.6-14.3,5.4-21.5c-4.3,0.6-8.7,1.3-13,2c0.7-3.6,1.2-7.1,1.5-10.7
		c-2.1-0.5-4.2-1-6.3-1.5c-0.4,4-1.2,8.4-2.4,13.3l-0.6,0.1c-4.1,0.7-8.2,2-11.8,5.1l1.2-3.5c-7,1.3-13.9,2.5-20.9,3.9l-6.9,7.3
		l0.2-0.6l2.2-5.8c-6.9,1.4-13.7,2.9-20.6,4.4c-1.4-9.3-2.9-17.6-4.1-24.4c-1.9,0.2-3.9,0.5-5.8,0.8c1.3,6.9,2.7,15.4,4.2,24.9
		l-4.9,1.1l-6.2,6.5c-4.3-4.6-13.1-1.7-18.7-0.3c-6,1.5-12,3.1-18,4.7c-1.8,0.5-3.6,1-5.3,1.6c-4.5-6.5-8.7-13.2-12.2-20.3l-0.6-1.3
		c-1.8,0.7-3.6,1.5-5.4,2.3l0.8,1.6c3.4,7,7.5,13.6,11.9,20c-6.5,2.9-12.4,6.9-17.6,12.6c0,0-8.4,8.8-9.4,9.9
		c-2.2,2.5-4.1,5.2-5.7,7.9c-8.8-17.8-15.8-37.1-21.1-58.3C118.4,117,154.1,106.4,199.5,106.4"/>
	<path class="st1" d="M175,231.7l3.9-1.8l10.1-8.1l2.2-6.2c1.5,3,2.2,4.1,3.7,7.1l3.3-1.5c0.1,3.2,0.2,6.3,0.2,9.3
		c-7.3,1.7-15.1,2.6-23.2,2.7L175,231.7z M204,218.6c4.2-1.8,8.4-3.7,12.5-5.5l2-2c0.8,0.1,1.8,0.2,2.8,0.1c1.6-0.3,3.6-0.8,5.8-1.6
		c-1.4,5.1-2.3,9.5-2.6,13.4c-5.9,2.1-12.6,4.1-20.2,6C204.2,225.7,204.1,222.2,204,218.6 M124.8,141.1c20-8.2,40.5-13.9,61.7-16.9
		c1.3,6.9,2.7,15.4,4.2,24.9l-4.9,1.1l-6.2,6.5c-4.3-4.6-13.1-1.7-18.7-0.3c-6,1.5-12,3.1-18,4.7c-1.8,0.5-3.6,1-5.3,1.6
		c-4.5-6.5-8.7-13.2-12.2-20.3L124.8,141.1z M119.8,172.4c-3.3-8.2-6.1-16.7-8.6-25.3c2.7-1.3,5.4-2.5,8.2-3.7l0.8,1.6
		c3.4,7,7.5,13.6,11.9,20C127.7,166.9,123.6,169.3,119.8,172.4 M165.9,248.5c-2.6-3-5.1-6-7.5-9.1l2.3-1.1c3.1,0.3,6.1,0.4,8.9,0.5
		C169.4,243.2,168.1,246.3,165.9,248.5 M190.5,262.6c-3.3,0.6-6.6,1.1-10,1.4c-3.7-3.6-7.3-7.3-10.8-11.2c3.4-3,5.6-7.5,5.8-13.9
		c8-0.1,15.7-0.9,22.8-2.5c-0.4,11.7-2,20.3-5.4,23.7c-0.1,0.1-0.2,0.2-0.2,0.3C191.9,261.3,191.2,262.1,190.5,262.6 M232.3,245
		c-9.7,6.8-20.6,12.1-32.3,15.4c4-8.3,4.1-22.8,4.1-25.4c7.4-1.9,14.1-3.8,20-5.8C224.4,236.1,227.1,242.6,232.3,245 M268.5,200.9
		c-6.7,15.1-16.8,28.4-29.4,38.9c-1.3,0.2-9.6,0.8-9.4-12.5C247.2,220.7,258.5,212.8,268.5,200.9 M224,121.5
		c9.6,0,19.1,0.5,28.4,1.5c7.1,1.5,14.1,3.3,21.1,5.4c2.7,9.3,4.1,19.2,4.1,29.3c0,8.4-1,16.6-2.8,24.4c-12,18.9-23,29.9-44.5,38.5
		c0.6-3.8,1.7-8.4,3.5-13.8c6.3-2.6,12.8-5.8,16.8-7.4l9.4-9.9c2.4-9.1,4.7-18.3,7.1-27.4l-7.4,2.3l8.7-9.1
		c1.8-7.2,3.6-14.3,5.4-21.5c-4.3,0.6-8.7,1.3-13,2c0.7-3.6,1.2-7.1,1.5-10.7c-2.1-0.5-4.2-1-6.3-1.5c-0.4,4-1.2,8.4-2.4,13.3
		L253,137c-4.1,0.7-8.2,2-11.8,5.1l1.2-3.5c-7,1.3-13.9,2.5-20.9,3.9l-6.9,7.3l0.2-0.6l2.2-5.8c-6.9,1.4-13.7,2.9-20.6,4.4
		c-1.4-9.3-2.9-17.6-4.1-24.4C202.6,122.2,213.2,121.5,224,121.5"/>
	<path class="st3" d="M110.5,181.6c-5.7-12.3-10.4-25.2-14.2-38.5c33.7-15.9,68.5-24.5,105.5-25.5c17.3,0.2,34.1,2,50.5,5.4
		c-9.3-1-18.8-1.5-28.4-1.5c-10.8,0-21.3,0.6-31.8,1.9c-1.9,0.2-3.9,0.5-5.8,0.8c-21.2,3-41.6,8.7-61.7,16.9
		c-1.8,0.7-3.6,1.5-5.4,2.3c-2.7,1.2-5.5,2.4-8.2,3.7c2.5,8.6,5.3,17.1,8.6,25.3c-1.9,1.5-3.7,3.2-5.4,5.1L110.5,181.6z
		 M201.5,289.2c-19.3-13.1-36.5-28.5-51.4-45.7l8.3-3.9c2.4,3.1,5,6.1,7.5,9.1c1.2,1.4,2.5,2.9,3.8,4.3c11,12.1,23.2,23.2,36.5,33.1
		C204.7,287,203.1,288.1,201.5,289.2"/>
	<path class="st4" d="M175,231.7l0.2,1.4c8.1-0.1,15.9-1,23.2-2.7c0-3-0.1-6.1-0.2-9.3l-3.3,1.5c-1.4-3-2.2-4.1-3.7-7.1l-2.2,6.2
		l-10.1,8.1L175,231.7z M204,218.6c0.1,3.6,0.2,7,0.2,10.3c7.6-1.9,14.3-3.9,20.2-6c0.4-3.9,1.2-8.3,2.6-13.4
		c-2.2,0.7-4.2,1.3-5.8,1.6c-1.1,0.1-2,0.1-2.8-0.1l-2,2C212.3,215,208.1,216.8,204,218.6 M199.5,106.4
		c-45.5,0-81.1,10.6-121.3,30.7c5.2,21.2,12.2,40.5,21.1,58.3c1.7-2.7,3.5-5.4,5.7-7.9c1-1.1,9.4-9.9,9.4-9.9
		c5.2-5.7,11.1-9.7,17.6-12.6c-4.4-6.4-8.5-12.9-11.9-20l-0.8-1.6c1.8-0.8,3.6-1.5,5.4-2.3l0.6,1.3c3.5,7.2,7.7,13.9,12.2,20.3
		c1.7-0.6,3.5-1.1,5.3-1.6c6-1.6,12-3.2,18-4.7c5.5-1.4,14.3-4.3,18.7,0.3l6.2-6.5l4.9-1.1c-1.5-9.5-2.9-18.1-4.2-24.9
		c1.9-0.3,3.9-0.5,5.8-0.8c1.3,6.8,2.7,15.2,4.1,24.4c6.9-1.5,13.7-2.9,20.6-4.4l-2.2,5.8l-0.2,0.6l6.9-7.3
		c6.9-1.3,13.9-2.6,20.9-3.9l-1.2,3.5c3.6-3,7.8-4.4,11.8-5.1l0.6-0.1c1.2-4.9,2-9.3,2.4-13.3c2.1,0.5,4.2,1,6.3,1.5
		c-0.3,3.5-0.8,7.1-1.5,10.7c4.3-0.7,8.7-1.3,13-2c-1.8,7.2-3.6,14.3-5.4,21.5l-8.7,9.1l7.4-2.3c-2.3,9.1-4.7,18.3-7.1,27.4
		l-9.4,9.9c-3.9,1.6-10.5,4.8-16.8,7.4c-1.8,5.4-2.9,10-3.5,13.8c21.5-8.6,32.5-19.7,44.5-38.5c-1.5,6.5-3.6,12.7-6.3,18.7
		c-10,11.8-21.4,19.8-38.8,26.4c-0.1,13.3,8.1,12.7,9.4,12.5c-2.2,1.8-4.5,3.6-6.8,5.2c-5.2-2.4-7.9-8.9-8.2-15.7
		c-6,2-12.6,3.9-20,5.8c-0.1,2.5-0.1,17.1-4.1,25.4c-3.1,0.9-6.3,1.6-9.5,2.2c0.6-0.6,1.4-1.3,2.2-2.2c0.1-0.1,0.1-0.2,0.2-0.3
		c3.3-3.4,5-12,5.4-23.7c-7.1,1.5-14.8,2.3-22.8,2.5c-0.2,6.4-2.4,10.9-5.8,13.9c-1.3-1.4-2.6-2.8-3.8-4.3c2.2-2.2,3.5-5.4,3.7-9.7
		c-2.8-0.1-5.8-0.2-8.9-0.5c-7.7,3.6-16.5,7.8-24.3,11.5c17.5,19.4,38.4,36.3,63.1,51.6C265.1,261,301.1,211.2,320.8,137
		C280.6,117,244.9,106.4,199.5,106.4 M68.5,132.6C112,110.2,150.2,98,199.5,98s87.5,12.2,131,34.6c-20.2,81.4-58.8,135.3-131,178.6
		c-27.2-16.3-51-35.4-70.8-57.6c-5.5,2.6-9.9,4.8-12.1,5.9c-6.8,3.4-13.6,6.8-20.4,10.3c-7.6,3.9-16.1,9.8-25,7.5
		c-9.6-4.2-3.3-15.9-0.3-22.6c7.5-16.9,15.3-33.6,23.5-50.2c-9.8-18.4-17.5-38.4-22.9-60L68.5,132.6z"/>
	<path class="st2" d="M253.3,140.7c-4.2,0.7-7.9,2-11.1,5.2c-2.6,2.8-3.9,6-5,9.5c-3.3,10.4-6.7,20.9-10,31.3
		c-1.3,4.1-3.4,11.6,3.2,11.1c2.3-0.4,4.4-1.3,6.5-2.2c6.7-2.8,13.4-5.7,20.1-8.4c1.7-6.6,3.4-13.1,5.1-19.7
		c-3.5,1.1-7.1,2.2-10.6,3.4c-0.8,3-1.7,5.9-2.5,8.9c-2.5,0.9-4.9,1.8-7.4,2.7c3.1-10.6,6.2-21.2,9.3-31.8c2.2-0.5,4.3-0.9,6.5-1.4
		c-0.5,1.9-1,3.7-1.5,5.6c3.2-0.8,6.3-1.5,9.5-2.2c1.2-4.8,2.4-9.6,3.6-14.3C263.8,139,258.6,139.8,253.3,140.7 M223.3,145.8
		c-7.5,9.8-14.9,19.7-22.2,29.6c3.4-9.1,6.9-18.2,10.4-27.2c-7.8,1.6-15.5,3.3-23.2,5c-2,4.7-4,9.4-6,14c1.7-0.5,3.3-0.9,5-1.4
		c-6.1,14.7-12,29.5-17.8,44.3c-2.4,6-4.8,12-7.1,18.1c7.8-3.7,15.5-7.3,23.3-10.9c3.5-9.7,7.1-19.5,10.7-29.2
		c3.3,6.6,6.6,13.3,9.8,19.9c5-2.2,10.1-4.4,15.1-6.6c-3.1-7-6.2-14-9.3-20.9c5.6-8.5,11.2-16.9,16.9-25.3c1.6-0.4,3.2-0.8,4.8-1.1
		c1.2-3.6,2.4-7.3,3.6-10.9C232.5,144.1,227.9,144.9,223.3,145.8 M130.7,227c-5.4,2.4-10.8,4.8-16.2,7.3c7.8-18.1,15.9-36.1,24.4-54
		c4.7-1.5,9.5-3,14.3-4.4C145.4,192.8,138,209.9,130.7,227 M143.7,164.6c-10.2,2.8-19.4,7.2-26.7,15.2c-4.2,4.8-7.2,10.3-10,16
		c-8.2,16.6-16,33.4-23.5,50.3c-2,4.4-8,15.1-1.6,17.9c7.1,1.8,15.9-4.1,22.2-7.3c6.8-3.5,13.6-6.9,20.4-10.3
		c11.6-5.8,22.1-12.8,29.1-24c2.8-4.8,4.9-9.8,7-14.9c4.4-10.9,9-21.9,13.6-32.7c1.7-4.1,4.7-9.2,3.8-13.7c-1.9-6-12-2.3-16.4-1.2
		C155.6,161.4,149.6,162.9,143.7,164.6"/>
	<path class="st0" d="M282.1,131.7c3,1,6,2.1,9,3.2C288.1,133.7,285.1,132.7,282.1,131.7 M281.6,131c3.2,1,6.2,2.1,9.1,3.2
		c7.5,2.8,14.1,5.6,19.5,8.2c-16.8,57.8-51.3,106.3-100,140.8l-4,2.7c-14.3-10.7-22.7-19.1-22.7-19.1l6.7-1.1
		c20.4-3.4,40-12.6,56.2-27.7c27.6-25.8,38.9-62.6,33.2-97.3c-0.1-0.8-0.3-1.6-0.4-2.4l-0.1-0.3l-0.1-0.4l-0.1-0.4l-0.1-0.4
		l-0.1-0.4l-0.1-0.4l-0.1-0.4l-0.1-0.4l-0.1-0.4l-0.1-0.3l-0.1-0.4l-0.1-0.4l-0.1-0.3l-0.1-0.3l-0.1-0.3c-0.3-1.2-0.6-2.3-0.9-3.3
		C278.6,130,280.1,130.5,281.6,131"/>
</g>
</svg>
